<?xml version="1.0" encoding="UTF-8"?>
<svg xmlns="http://www.w3.org/2000/svg" xmlns:xlink="http://www.w3.org/1999/xlink" viewBox="0 0 1080 1080">
  <title>Automation (general) illustration</title>
<desc>automation, infrastructure technology, software, conveyor belt</desc>
<metadata><?xpacket begin="﻿" id="W5M0MpCehiHzreSzNTczkc9d"?>
<x:xmpmeta xmlns:x="adobe:ns:meta/" x:xmptk="Adobe XMP Core 8.0-c001 1.000000, 0000/00/00-00:00:00        ">
   <rdf:RDF xmlns:rdf="http://www.w3.org/1999/02/22-rdf-syntax-ns#">
      <rdf:Description rdf:about=""
            xmlns:xmp="http://ns.adobe.com/xap/1.0/"
            xmlns:tiff="http://ns.adobe.com/tiff/1.0/"
            xmlns:dc="http://purl.org/dc/elements/1.1/">
         <xmp:rhcc-effective-on>2024-07-01T18:43:18.905Z</xmp:rhcc-effective-on>
         <xmp:rhcc-rights-restricted>no</xmp:rhcc-rights-restricted>
         <xmp:brand-content-subtype>Illustration</xmp:brand-content-subtype>
         <xmp:rhcc-metadata-complete-moderator>pending</xmp:rhcc-metadata-complete-moderator>
         <xmp:rhcc-translation-id>TRAe0c9a189-d2cf-4835-9977-7fdcdc07b81c</xmp:rhcc-translation-id>
         <xmp:brand-content-type>Illustration</xmp:brand-content-type>
         <xmp:CreateDate>2024-07-01T18:43:18.905Z</xmp:CreateDate>
         <xmp:rhcc-aspect-ratio>square</xmp:rhcc-aspect-ratio>
         <xmp:rhcc-derivative-id>DERe0c9a189-d2cf-4835-9977-7fdcdc07b81c</xmp:rhcc-derivative-id>
         <xmp:rhcc-effective-on-set-on-upload>true</xmp:rhcc-effective-on-set-on-upload>
         <xmp:rhcc-uploaded-by>alwilker@redhat.com</xmp:rhcc-uploaded-by>
         <xmp:rhcc-metadata-complete-uploader>pending</xmp:rhcc-metadata-complete-uploader>
         <xmp:rhcc-file-last-modified>2024-07-13T00:26:50.265Z</xmp:rhcc-file-last-modified>
         <xmp:rhcc-audience>rhcc-audience:internal</xmp:rhcc-audience>
         <xmp:rhcc-notify-portal-subscribers-on-change>yes</xmp:rhcc-notify-portal-subscribers-on-change>
         <xmp:brand-colorway>
            <rdf:Bag>
               <rdf:li>colorway:black</rdf:li>
               <rdf:li>colorway:blue</rdf:li>
               <rdf:li>colorway:red</rdf:li>
            </rdf:Bag>
         </xmp:brand-colorway>
         <tiff:ImageLength>1080</tiff:ImageLength>
         <tiff:ImageWidth>1080</tiff:ImageWidth>
         <dc:format>image/svg+xml</dc:format>
         <dc:modified>2024-07-01T18:45:12.381Z</dc:modified>
         <dc:description>
            <rdf:Alt>
               <rdf:li xml:lang="x-default">automation, infrastructure technology, software, conveyor belt</rdf:li>
            </rdf:Alt>
         </dc:description>
         <dc:title>
            <rdf:Alt>
               <rdf:li xml:lang="x-default">Automation (general) illustration</rdf:li>
            </rdf:Alt>
         </dc:title>
      </rdf:Description>
   </rdf:RDF>
</x:xmpmeta>
                                                                                                    
                                                                                                    
                                                                                                    
                                                                                                    
                                                                                                    
                                                                                                    
                                                                                                    
                                                                                                    
                                                                                                    
                                                                                                    
                                                                                                    
                                                                                                    
                                                                                                    
                                                                                                    
                                                                                    
<?xpacket end="w"?></metadata>
<defs>
    <style>
      .uuid-c1b0d615-270e-4b7e-a619-c2d535957a9e, .uuid-a19995f3-6ebe-43c8-aadc-0f8d3262c5a4, .uuid-0a72072a-f132-4ec8-b50d-27c2d1853248, .uuid-212d9af3-4661-46e6-823e-5b68e686b0e9, .uuid-53fb7c4a-b79a-41fe-a2e8-932f720b323c, .uuid-33aa6855-746c-4afe-a605-0d03d79815c3, .uuid-11122c78-7c82-4dcb-875b-4e0c68373392, .uuid-ce8cdcfc-71dd-4a71-a341-3cd7d31939f2, .uuid-d97ecf5a-217c-4877-a9ce-eeb3f87892b2, .uuid-2567273a-a12f-4629-8d81-002a02a1aa45, .uuid-681b16d6-d3a7-421d-be60-6765d5e8ff53, .uuid-b79f88c3-9f57-413c-a657-edadecc814d8, .uuid-a858ed17-9f8a-47e9-b1dd-74eccc8dd145, .uuid-84e9ea48-e5b3-41ae-a8ae-b623d9fb1af9 {
        fill: none;
      }

      .uuid-c1b0d615-270e-4b7e-a619-c2d535957a9e, .uuid-a19995f3-6ebe-43c8-aadc-0f8d3262c5a4, .uuid-2a5d5479-99e0-40c1-ad16-981b03212510, .uuid-c6aaba9e-ec55-4ce6-99e5-b5f00ad0617a, .uuid-68d443b5-adaf-401e-8b77-b73cffbdd136, .uuid-b11b652c-071e-4a27-9658-99c22e468995, .uuid-3d0f56ec-a713-4574-8041-ead289ae3471, .uuid-ad2cbf4c-58ae-4746-b9ce-f3a35cb229dc, .uuid-212d9af3-4661-46e6-823e-5b68e686b0e9, .uuid-53fb7c4a-b79a-41fe-a2e8-932f720b323c, .uuid-33aa6855-746c-4afe-a605-0d03d79815c3, .uuid-11122c78-7c82-4dcb-875b-4e0c68373392, .uuid-ce8cdcfc-71dd-4a71-a341-3cd7d31939f2, .uuid-d97ecf5a-217c-4877-a9ce-eeb3f87892b2, .uuid-2567273a-a12f-4629-8d81-002a02a1aa45, .uuid-681b16d6-d3a7-421d-be60-6765d5e8ff53, .uuid-84e9ea48-e5b3-41ae-a8ae-b623d9fb1af9 {
        stroke-linecap: round;
      }

      .uuid-c1b0d615-270e-4b7e-a619-c2d535957a9e, .uuid-a19995f3-6ebe-43c8-aadc-0f8d3262c5a4, .uuid-c6aaba9e-ec55-4ce6-99e5-b5f00ad0617a, .uuid-68d443b5-adaf-401e-8b77-b73cffbdd136, .uuid-11122c78-7c82-4dcb-875b-4e0c68373392, .uuid-ce8cdcfc-71dd-4a71-a341-3cd7d31939f2, .uuid-d97ecf5a-217c-4877-a9ce-eeb3f87892b2, .uuid-2567273a-a12f-4629-8d81-002a02a1aa45, .uuid-b79f88c3-9f57-413c-a657-edadecc814d8, .uuid-a858ed17-9f8a-47e9-b1dd-74eccc8dd145, .uuid-84e9ea48-e5b3-41ae-a8ae-b623d9fb1af9, .uuid-f8e61381-e626-462d-b9eb-a2617863c0d9 {
        stroke-miterlimit: 10;
      }

      .uuid-c1b0d615-270e-4b7e-a619-c2d535957a9e, .uuid-a19995f3-6ebe-43c8-aadc-0f8d3262c5a4, .uuid-f8e61381-e626-462d-b9eb-a2617863c0d9 {
        stroke-width: 3px;
      }

      .uuid-c1b0d615-270e-4b7e-a619-c2d535957a9e, .uuid-c6aaba9e-ec55-4ce6-99e5-b5f00ad0617a, .uuid-68d443b5-adaf-401e-8b77-b73cffbdd136, .uuid-b11b652c-071e-4a27-9658-99c22e468995, .uuid-3d0f56ec-a713-4574-8041-ead289ae3471, .uuid-53fb7c4a-b79a-41fe-a2e8-932f720b323c, .uuid-ce8cdcfc-71dd-4a71-a341-3cd7d31939f2, .uuid-a858ed17-9f8a-47e9-b1dd-74eccc8dd145 {
        stroke: var(--konflux-brand-orange, #fc783d);
      }

      .uuid-a19995f3-6ebe-43c8-aadc-0f8d3262c5a4, .uuid-2567273a-a12f-4629-8d81-002a02a1aa45, .uuid-f8e61381-e626-462d-b9eb-a2617863c0d9 {
        stroke: var(--konflux-illustration-primary-dark, #21134d);
      }

      .uuid-0a72072a-f132-4ec8-b50d-27c2d1853248, .uuid-55afd9ae-e03f-414f-a92c-00bcbcf6b62d, .uuid-d6794aa5-e166-4bfa-bd35-3e20c0a15e23, .uuid-a77f715e-7199-4c9c-80ab-02b04f3d37d7, .uuid-4f23cf80-901b-4144-b1eb-9e0de7b6ec94, .uuid-4648657e-b716-453e-bed8-11ea5248ac72, .uuid-7a49ec86-198e-4b21-9f51-7edee88142de, .uuid-e5b54377-9676-485d-81fd-48e57b49df01, .uuid-9325842f-70a3-40c6-9b83-af854e270fa0 {
        stroke-width: 0px;
      }

      .uuid-2a5d5479-99e0-40c1-ad16-981b03212510, .uuid-c6aaba9e-ec55-4ce6-99e5-b5f00ad0617a, .uuid-68d443b5-adaf-401e-8b77-b73cffbdd136, .uuid-b11b652c-071e-4a27-9658-99c22e468995, .uuid-3d0f56ec-a713-4574-8041-ead289ae3471, .uuid-ad2cbf4c-58ae-4746-b9ce-f3a35cb229dc, .uuid-212d9af3-4661-46e6-823e-5b68e686b0e9, .uuid-53fb7c4a-b79a-41fe-a2e8-932f720b323c, .uuid-33aa6855-746c-4afe-a605-0d03d79815c3, .uuid-11122c78-7c82-4dcb-875b-4e0c68373392, .uuid-ce8cdcfc-71dd-4a71-a341-3cd7d31939f2, .uuid-d97ecf5a-217c-4877-a9ce-eeb3f87892b2, .uuid-2567273a-a12f-4629-8d81-002a02a1aa45, .uuid-681b16d6-d3a7-421d-be60-6765d5e8ff53, .uuid-b79f88c3-9f57-413c-a657-edadecc814d8, .uuid-a858ed17-9f8a-47e9-b1dd-74eccc8dd145, .uuid-84e9ea48-e5b3-41ae-a8ae-b623d9fb1af9 {
        stroke-width: 2px;
      }

      .uuid-2a5d5479-99e0-40c1-ad16-981b03212510, .uuid-b11b652c-071e-4a27-9658-99c22e468995, .uuid-3d0f56ec-a713-4574-8041-ead289ae3471, .uuid-ad2cbf4c-58ae-4746-b9ce-f3a35cb229dc, .uuid-212d9af3-4661-46e6-823e-5b68e686b0e9, .uuid-53fb7c4a-b79a-41fe-a2e8-932f720b323c, .uuid-33aa6855-746c-4afe-a605-0d03d79815c3, .uuid-681b16d6-d3a7-421d-be60-6765d5e8ff53 {
        stroke-linejoin: round;
      }

      .uuid-2a5d5479-99e0-40c1-ad16-981b03212510, .uuid-ad2cbf4c-58ae-4746-b9ce-f3a35cb229dc, .uuid-d97ecf5a-217c-4877-a9ce-eeb3f87892b2, .uuid-b79f88c3-9f57-413c-a657-edadecc814d8 {
        stroke: var(--konflux-illustration-accent, #b9dafc);
      }

      .uuid-2a5d5479-99e0-40c1-ad16-981b03212510, .uuid-d6794aa5-e166-4bfa-bd35-3e20c0a15e23 {
        fill: var(--konflux-illustration-primary-dark, #21134d);
      }

      .uuid-c6aaba9e-ec55-4ce6-99e5-b5f00ad0617a, .uuid-3d0f56ec-a713-4574-8041-ead289ae3471, .uuid-f8e61381-e626-462d-b9eb-a2617863c0d9, .uuid-7a49ec86-198e-4b21-9f51-7edee88142de {
        fill: #fff;
      }

      .uuid-68d443b5-adaf-401e-8b77-b73cffbdd136, .uuid-b11b652c-071e-4a27-9658-99c22e468995, .uuid-e5b54377-9676-485d-81fd-48e57b49df01 {
        fill: var(--konflux-brand-orange, #fc783d);
      }

      .uuid-ad2cbf4c-58ae-4746-b9ce-f3a35cb229dc, .uuid-4648657e-b716-453e-bed8-11ea5248ac72 {
        fill: var(--konflux-illustration-accent, #b9dafc);
      }

      .uuid-212d9af3-4661-46e6-823e-5b68e686b0e9, .uuid-11122c78-7c82-4dcb-875b-4e0c68373392 {
        stroke: #fff;
      }

      .uuid-33aa6855-746c-4afe-a605-0d03d79815c3, .uuid-84e9ea48-e5b3-41ae-a8ae-b623d9fb1af9 {
        stroke: #f7c8bb;
      }

      .uuid-681b16d6-d3a7-421d-be60-6765d5e8ff53 {
        stroke: #ce8873;
      }

      .uuid-e221e8b5-917a-410c-8457-82bfcf6ed2ea {
        clip-path: url(#uuid-744f4fa6-6b0a-46be-bdc8-cd0a1f080eac);
      }

      .uuid-a77f715e-7199-4c9c-80ab-02b04f3d37d7 {
        fill: none;
      }

      .uuid-4f23cf80-901b-4144-b1eb-9e0de7b6ec94 {
        fill: var(--konflux-illustration-primary, #92c5f9);
      }

      .uuid-9325842f-70a3-40c6-9b83-af854e270fa0 {
        fill: #e8a997;
      }
    </style>
    <clipPath id="uuid-744f4fa6-6b0a-46be-bdc8-cd0a1f080eac">
      <path class="uuid-0a72072a-f132-4ec8-b50d-27c2d1853248" d="M117.68,463.29v-131.75h251.63v131.75H117.68ZM674.23,463.29v-131.75h-251.63v131.75h251.63ZM979.26,463.29v-131.75h-251.63v131.75h251.63ZM369.31,279.48v-131.75H117.68v131.75h251.63ZM674.23,279.48v-131.75h-251.63v131.75h251.63ZM979.26,279.48v-131.75h-251.63v131.75h251.63ZM369.31,647.1v-131.75H117.68v131.75h251.63ZM674.23,647.1v-131.75h-251.63v131.75h251.63ZM979.26,647.1v-131.75h-251.63v131.75h251.63Z"/>
    </clipPath>
  </defs>
  <g id="uuid-06e33eb5-2467-4d78-a25c-3f2500069e1b" data-name="Backgrounds">
    <rect class="uuid-a77f715e-7199-4c9c-80ab-02b04f3d37d7" width="1080" height="1080"/>
  </g>
  <g id="uuid-b61b44db-c68b-447c-91c0-b061e57ccb15" data-name="Automation General">
    <g id="uuid-09b1783b-3fdf-44e5-8697-a17b65287e90" data-name="Blue-10">
      <path class="uuid-4648657e-b716-453e-bed8-11ea5248ac72" d="M943.89,171.36c35.36,17.11,62.82,46.84,79.25,90.17,33.08,87.24,15.32,189.77-37.36,264.43-25.74,36.48-58.03,66.4-88.2,98.69-31.36,33.56-57.44,71.44-84.17,108.96-44.64,62.69-95.88,124.49-168.25,152.02-79.21,30.13-166.81,15.67-238.89-27.37-72.53-43.31-134.96-102.31-207.59-145.95-66.79-40.13-130.91-86.02-151.69-168.16-21.26-84.01,7.14-167.35,58.1-232.84,27.3-35.09,59.82-60.38,87.72-94.99,26.6-33,50.61-73.91,83.77-100,62.3-49.03,138.47-67.78,214.9-49.41,70.44,16.93,132.05,59.24,201.37,79.68,58.31,17.19,121.12,3.88,181.11,7.47,25.62,1.53,49.14,7.23,69.93,17.29Z"/>
      <path class="uuid-9325842f-70a3-40c6-9b83-af854e270fa0" d="M612.93,938.69c0-14.23,3.61-28.71,6.4-37.1l33.24,6.61c0,13.21,3.13,23.23,7.79,26.02,0,0-5.76,12.6-21.01,13.62s-26.43-9.15-26.43-9.15Z"/>
      <g>
        <rect class="uuid-4f23cf80-901b-4144-b1eb-9e0de7b6ec94" x="91.57" y="335.27" width="274.01" height="154.13"/>
        <rect class="uuid-4f23cf80-901b-4144-b1eb-9e0de7b6ec94" x="396.49" y="335.27" width="274.01" height="154.13"/>
        <rect class="uuid-4f23cf80-901b-4144-b1eb-9e0de7b6ec94" x="701.52" y="335.27" width="274.01" height="154.13"/>
        <rect class="uuid-4f23cf80-901b-4144-b1eb-9e0de7b6ec94" x="91.57" y="151.46" width="274.01" height="154.13"/>
        <rect class="uuid-4f23cf80-901b-4144-b1eb-9e0de7b6ec94" x="396.49" y="151.46" width="274.01" height="154.13"/>
        <rect class="uuid-4f23cf80-901b-4144-b1eb-9e0de7b6ec94" x="701.52" y="151.46" width="274.01" height="154.13"/>
        <rect class="uuid-4f23cf80-901b-4144-b1eb-9e0de7b6ec94" x="91.57" y="519.07" width="274.01" height="154.13"/>
        <rect class="uuid-4f23cf80-901b-4144-b1eb-9e0de7b6ec94" x="396.49" y="519.07" width="274.01" height="154.13"/>
        <rect class="uuid-4f23cf80-901b-4144-b1eb-9e0de7b6ec94" x="701.52" y="519.07" width="274.01" height="154.13"/>
      </g>
      <line class="uuid-c1b0d615-270e-4b7e-a619-c2d535957a9e" x1="61.02" y1="731.41" x2="1009.1" y2="731.41"/>
      <g>
        <rect class="uuid-f8e61381-e626-462d-b9eb-a2617863c0d9" x="106.49" y="320.35" width="274.01" height="154.13"/>
        <rect class="uuid-f8e61381-e626-462d-b9eb-a2617863c0d9" x="411.41" y="320.35" width="274.01" height="154.13"/>
        <rect class="uuid-f8e61381-e626-462d-b9eb-a2617863c0d9" x="716.44" y="320.35" width="274.01" height="154.13"/>
        <rect class="uuid-f8e61381-e626-462d-b9eb-a2617863c0d9" x="106.49" y="136.54" width="274.01" height="154.13"/>
        <rect class="uuid-f8e61381-e626-462d-b9eb-a2617863c0d9" x="411.41" y="136.54" width="274.01" height="154.13"/>
        <rect class="uuid-f8e61381-e626-462d-b9eb-a2617863c0d9" x="716.44" y="136.54" width="274.01" height="154.13"/>
        <rect class="uuid-f8e61381-e626-462d-b9eb-a2617863c0d9" x="106.49" y="504.15" width="274.01" height="154.13"/>
        <rect class="uuid-f8e61381-e626-462d-b9eb-a2617863c0d9" x="411.41" y="504.15" width="274.01" height="154.13"/>
        <rect class="uuid-f8e61381-e626-462d-b9eb-a2617863c0d9" x="716.44" y="504.15" width="274.01" height="154.13"/>
      </g>
      <g>
        <rect class="uuid-7a49ec86-198e-4b21-9f51-7edee88142de" x="117.68" y="331.54" width="251.63" height="131.75"/>
        <rect class="uuid-7a49ec86-198e-4b21-9f51-7edee88142de" x="117.68" y="331.54" width="251.63" height="131.75"/>
      </g>
      <g>
        <rect class="uuid-7a49ec86-198e-4b21-9f51-7edee88142de" x="422.6" y="331.54" width="251.63" height="131.75"/>
        <rect class="uuid-7a49ec86-198e-4b21-9f51-7edee88142de" x="422.6" y="331.54" width="251.63" height="131.75"/>
      </g>
      <g>
        <rect class="uuid-7a49ec86-198e-4b21-9f51-7edee88142de" x="727.63" y="331.54" width="251.63" height="131.75"/>
        <rect class="uuid-7a49ec86-198e-4b21-9f51-7edee88142de" x="727.63" y="331.54" width="251.63" height="131.75"/>
      </g>
      <g>
        <rect class="uuid-7a49ec86-198e-4b21-9f51-7edee88142de" x="117.68" y="147.73" width="251.63" height="131.75"/>
        <rect class="uuid-7a49ec86-198e-4b21-9f51-7edee88142de" x="117.68" y="147.73" width="251.63" height="131.75"/>
      </g>
      <g>
        <rect class="uuid-7a49ec86-198e-4b21-9f51-7edee88142de" x="422.6" y="147.73" width="251.63" height="131.75"/>
        <rect class="uuid-7a49ec86-198e-4b21-9f51-7edee88142de" x="422.6" y="147.73" width="251.63" height="131.75"/>
      </g>
      <g>
        <rect class="uuid-7a49ec86-198e-4b21-9f51-7edee88142de" x="117.68" y="515.34" width="251.63" height="131.75"/>
        <rect class="uuid-7a49ec86-198e-4b21-9f51-7edee88142de" x="117.68" y="515.34" width="251.63" height="131.75"/>
      </g>
      <g>
        <rect class="uuid-7a49ec86-198e-4b21-9f51-7edee88142de" x="422.6" y="515.34" width="251.63" height="131.75"/>
        <rect class="uuid-7a49ec86-198e-4b21-9f51-7edee88142de" x="422.6" y="515.34" width="251.63" height="131.75"/>
      </g>
      <g>
        <rect class="uuid-7a49ec86-198e-4b21-9f51-7edee88142de" x="727.63" y="515.34" width="251.63" height="131.75"/>
        <rect class="uuid-7a49ec86-198e-4b21-9f51-7edee88142de" x="727.63" y="515.34" width="251.63" height="131.75"/>
      </g>
      <g class="uuid-e221e8b5-917a-410c-8457-82bfcf6ed2ea">
        <g>
          <path class="uuid-a858ed17-9f8a-47e9-b1dd-74eccc8dd145" d="M855.25,658.29v-70.01c0-8.75-7.1-15.85-15.85-15.85h-262.02c-8.75,0-15.85-7.1-15.85-15.85v-143.6c0-8.75,7.1-15.85,15.85-15.85h317.96c8.75,0,15.85-7.1,15.85-15.85v-129.61c0-8.75-7.1-15.85-15.85-15.85h-24.24c-8.75,0-15.85-7.1-15.85-15.85v-21.45c0-8.75-7.1-15.85-15.85-15.85h-275.07c-8.75,0-15.85,7.1-15.85,15.85h0c0,8.75-7.1,15.85-15.85,15.85H246.36c-8.75,0-15.85,7.1-15.85,15.85v151.52c0,8.75-7.1,15.85-15.85,15.85h-20.05c-8.75,0-15.85,7.1-15.85,15.85v151.99c0,8.75,7.1,15.85,15.85,15.85h185.56"/>
          <circle class="uuid-a858ed17-9f8a-47e9-b1dd-74eccc8dd145" cx="196.94" cy="415.78" r="8.86"/>
          <circle class="uuid-a858ed17-9f8a-47e9-b1dd-74eccc8dd145" cx="196.94" cy="563.1" r="8.86"/>
          <circle class="uuid-a858ed17-9f8a-47e9-b1dd-74eccc8dd145" cx="580.17" cy="553.78" r="8.86"/>
          <circle class="uuid-a858ed17-9f8a-47e9-b1dd-74eccc8dd145" cx="580.17" cy="414.84" r="8.86"/>
          <circle class="uuid-a858ed17-9f8a-47e9-b1dd-74eccc8dd145" cx="892.54" cy="378.48" r="8.86"/>
          <circle class="uuid-a858ed17-9f8a-47e9-b1dd-74eccc8dd145" cx="892.54" cy="254.46" r="8.86"/>
          <circle class="uuid-a858ed17-9f8a-47e9-b1dd-74eccc8dd145" cx="873.89" cy="217.17" r="8.86"/>
          <circle class="uuid-a858ed17-9f8a-47e9-b1dd-74eccc8dd145" cx="836.6" cy="201.31" r="8.86"/>
          <circle class="uuid-a858ed17-9f8a-47e9-b1dd-74eccc8dd145" cx="567.12" cy="201.31" r="8.86"/>
          <circle class="uuid-a858ed17-9f8a-47e9-b1dd-74eccc8dd145" cx="529.82" cy="195.72" r="8.86"/>
          <circle class="uuid-a858ed17-9f8a-47e9-b1dd-74eccc8dd145" cx="249.15" cy="233.02" r="8.86"/>
          <circle class="uuid-a858ed17-9f8a-47e9-b1dd-74eccc8dd145" cx="836.6" cy="591.08" r="8.86"/>
          <circle class="uuid-a858ed17-9f8a-47e9-b1dd-74eccc8dd145" cx="211.86" cy="379.41" r="8.86"/>
        </g>
      </g>
      <g>
        <path class="uuid-a19995f3-6ebe-43c8-aadc-0f8d3262c5a4" d="M186.68,728.15s28.03-27.97,78.82-27.97,78.82,27.97,78.82,27.97"/>
        <path class="uuid-d6794aa5-e166-4bfa-bd35-3e20c0a15e23" d="M289.72,700.68v-42.86h-46.62v42.86s10.26-.86,22.38-.86,24.24.86,24.24.86Z"/>
      </g>
      <g>
        <path class="uuid-2567273a-a12f-4629-8d81-002a02a1aa45" d="M469.68,728.61s28.03-27.97,78.82-27.97,78.82,27.97,78.82,27.97"/>
        <path class="uuid-d6794aa5-e166-4bfa-bd35-3e20c0a15e23" d="M572.71,701.11v-42.86h-46.62v42.86s10.26-.86,22.38-.86,24.24.86,24.24.86Z"/>
      </g>
      <g>
        <path class="uuid-a19995f3-6ebe-43c8-aadc-0f8d3262c5a4" d="M774.59,728.61s28.03-27.97,78.82-27.97,78.82,27.97,78.82,27.97"/>
        <path class="uuid-d6794aa5-e166-4bfa-bd35-3e20c0a15e23" d="M877.62,701.11v-42.86h-46.62v42.86s10.26-.86,22.38-.86,24.24.86,24.24.86Z"/>
      </g>
      <g>
        <path class="uuid-7a49ec86-198e-4b21-9f51-7edee88142de" d="M483.27,839.65c-4.21,0-27.38-2.13-70.24-44.12-40.69-39.88-61.31-81.26-71.44-108.95-11.42-31.23-13.71-56.66-11.69-64.75,1.26-5.05,6.56-10.24,12.7-16.24,11.31-11.07,25.37-24.82,24.09-45.82-12.79-5.42-19.89-18.15-20.57-26.2-.44.07-.98.13-1.55.13-2.82,0-4.91-1.35-5.89-3.79l-.14-.34.12-.35c.04-.1,3.26-9.93,2.07-16.99-.62.18-1.42.35-2.29.35-2.57,0-4.48-1.48-5.38-4.18l-.24-.72.64-.42c.05-.03,5.23-3.59,6.09-10.48.04-.32.08-.87.13-1.62,1.74-24.27,8.98-36.57,21.5-36.57.1,0,.19,0,.29,0,4.68-6.79,10.49-10.08,17.74-10.08,5.29,0,10.45,1.73,15,3.26,3.48,1.17,6.49,2.18,8.8,2.18,4.13,0,7.69-.29,10.83-.54,2.57-.21,4.78-.39,6.88-.39,3.08,0,5.92,2.56,9.5,5.8,6,5.42,14.22,12.85,28.73,12.85h.75l.21.73c.04.14.97,3.48-.77,5.79-.7.93-1.71,1.54-3,1.83.87.89,2.38,1.92,4.68,1.92h1.12l-.12,1.11c-.36,3.21-2.58,9.28-8.45,9.28-3.48,0-6.54,0-8.94.46,1.62,5.84,3.41,12.87,3.41,15.32,0,.77-.08,1.53-.17,2.23l9.61,1.88-.12,2.09c-.06,1.13-.73,10.83-5.09,17.06,1.49,1.69,2.4,3.01,2.71,3.94.51,1.53.35,2.98-.45,4.09-.76,1.05-2.03,1.71-3.56,1.86l-.52,1.17c.98,1.7,3.08,4.97,5.58,6.85l.4.3v.5c0,2.02-1.09,5.65-4.98,6.44.57,1.17,1.25,2.94,1.25,4.75,0,2.14-1.64,4.08-2.83,5.49-.32.38-.76.89-.89,1.13,0,.05.01.11.02.18.51,5.09-.55,9.14-3.16,12.02-2.73,3.02-7.04,4.56-12.79,4.56-6.15,0-10.87-2.42-14.08-7.21-1.07,7.28-1.77,20.04-.58,29.67,17.67,5.52,30.54,11.5,39.34,18.27,6.2,4.77,10.25,10.14,15.56,18.38,6.01,9.33,12.83,19.92,21.45,27.1l1.19.99-.41,1.49s-.25.9-.8,2.47c7.49,7.72,25.63,25.31,41.88,32.46,4.34,1.91,8.86,3.67,13.43,5.24l50.23-32.09,23.06-77.47c.3-1.03,1.22-1.72,2.27-1.72.08,0,.16,0,.24.01l96.95,7.46c.72.05,1.38.43,1.79,1.03.41.6.53,1.34.33,2.04l-27.08,92.43-.04.08c-.04.11-.1.22-.17.33-.05.1-.1.17-.16.25-.09.12-.19.22-.3.32-.04.04-.08.08-.12.11l-.04.05-75.63,50.42c-.4.26-.86.4-1.33.4-.26,0-.52-.04-.77-.13l-23.42-7.98c-12.67,3.97-28.65,6.24-43.89,6.24-10.03,0-19.56-.99-27.57-2.86-.33-.08-.67-.16-1.01-.24,4.93,17.36-.04,37.73-14.44,59.07-11.18,16.57-24.25,28.06-24.38,28.17l-.25.21-.33.03s-.16.01-.48.01Z"/>
        <path class="uuid-7a49ec86-198e-4b21-9f51-7edee88142de" d="M379.2,449.5c9.15,0,18.17,5.44,23.8,5.44,7.46,0,13.05-.93,17.72-.93,7.46,0,14.92,18.65,38.23,18.65,0,0,1.86,6.53-4.66,6.53,0,0,1.86,3.73,6.53,3.73,0,0-.93,8.39-7.46,8.39-4.15,0-7.54,0-10.18.72,1.37,4.89,3.66,13.45,3.66,16.06,0,.97-.13,1.94-.31,3.03l9.7,1.89-.07,1.22c-.03.57-.68,11.15-5.38,17.18,1.06,1.16,2.67,3.03,3.05,4.19.93,2.8-.93,4.66-3.73,4.66l-.97,2.2c.92,1.64,3.23,5.44,6.1,7.59,0,0,0,5.59-5.59,5.59,0,0,1.86,2.8,1.86,5.59s-3.73,5.59-3.73,6.53,2.8,15.85-14.92,15.85c-7.79,0-12.15-4.14-14.6-9.11-1.38,6.71-2.44,22.39-.98,33.33,14.49,4.49,29.41,10.42,39.64,18.3,5.89,4.53,9.8,9.56,15.33,18.13,6.05,9.4,12.92,20.05,21.65,27.32l.69.58-.24.87c-.02.06-.33,1.17-.99,2.98,8.15,8.45,26.19,25.89,42.63,33.13,4.81,2.12,9.48,3.9,13.96,5.43l50.95-32.55,23.16-77.83c.17-.59.7-1,1.31-1,.04,0,.09,0,.14,0l96.97,7.46c.42.03.8.25,1.04.6.24.35.31.78.19,1.19l-27.04,92.31s-.02.04-.03.07c-.03.08-.07.16-.12.24-.03.05-.05.1-.09.14-.05.07-.11.12-.18.18-.04.04-.08.08-.13.11-.01,0-.02.02-.03.02l-75.53,50.35c-.23.15-.5.23-.78.23-.15,0-.3-.02-.45-.07l-23.73-8.08c-12.71,4.02-28.58,6.29-43.9,6.29-9.65,0-19.08-.9-27.35-2.83-.89-.21-1.79-.44-2.72-.7,13.9,42.61-37.99,87.92-37.99,87.92,0,0-.13.01-.4.01-3.25,0-26.43-1.6-69.54-43.84-75.65-74.14-86.58-157.82-82.85-172.74,3.42-13.68,39.27-29.49,36.77-62.99-12.94-5.19-20.58-18.61-20.58-26.75,0,0-1.11.37-2.5.37-1.74,0-3.93-.58-4.96-3.17,0,0,3.73-11.19,1.86-18.65,0,0-1.4.7-3.03.7s-3.5-.7-4.43-3.5c0,0,5.59-3.73,6.53-11.19.46-3.65.92-37.31,20.64-37.32h0c.27,0,.53,0,.81.02,5.17-7.76,11.22-10.1,17.22-10.1M379.2,447.5c-7.45,0-13.44,3.3-18.26,10.08-10.51.13-15.82,8.88-18.42,16.24-2.9,8.19-3.56,17.35-3.84,21.26-.05.72-.09,1.29-.13,1.57-.8,6.41-5.46,9.64-5.66,9.78l-1.25.85.47,1.44c1.05,3.14,3.29,4.86,6.33,4.86.51,0,1-.05,1.45-.13.7,6.69-2.15,15.35-2.18,15.45l-.23.69.27.68c1.14,2.85,3.56,4.42,6.82,4.42.23,0,.45,0,.67-.02.58,4.16,2.59,8.96,5.63,13.29,3.87,5.5,9.11,9.89,14.86,12.48.94,20.2-12.77,33.62-23.82,44.44-6.24,6.11-11.64,11.39-12.97,16.71-1.91,7.64-.42,32.14,11.72,65.34,10.16,27.79,30.85,69.31,71.67,109.32,43.13,42.27,66.66,44.41,70.94,44.41.37,0,.56-.02.56-.02l.65-.06.51-.43c.54-.47,13.3-11.69,24.55-28.37,14.12-20.93,19.27-40.99,15-58.27,7.95,1.79,17.34,2.74,27.19,2.74,15.21,0,31.15-2.25,43.87-6.19l23.11,7.87c.35.12.72.18,1.1.18.67,0,1.32-.2,1.89-.57l75.53-50.35.18-.12.08-.08c.06-.05.11-.1.14-.13.09-.08.25-.23.41-.44.08-.1.15-.22.22-.34.06-.11.14-.25.22-.44.04-.09.09-.2.13-.34l27.04-92.29c.29-.99.12-2.04-.46-2.89-.59-.85-1.51-1.38-2.54-1.46l-96.97-7.46c-.07,0-.18-.01-.29-.01-1.5,0-2.8.98-3.23,2.43l-22.95,77.11-49.51,31.63c-4.39-1.52-8.72-3.22-12.89-5.05-15.8-6.95-33.45-23.92-41.14-31.8.42-1.24.62-1.94.62-1.95l.24-.87.35-1.24-.99-.83-.69-.58c-8.5-7.08-15.27-17.6-21.24-26.87-5.37-8.34-9.48-13.78-15.79-18.63-8.79-6.76-21.57-12.73-39.03-18.23-.96-8.49-.51-19.21.34-26.42,3.33,3.76,7.88,5.71,13.4,5.71,6.05,0,10.6-1.64,13.53-4.88,2.77-3.07,3.93-7.31,3.43-12.6.17-.22.42-.52.62-.75,1.22-1.45,3.07-3.63,3.07-6.14,0-1.5-.41-2.95-.87-4.12,3.32-1.28,4.6-4.65,4.6-7.07v-1l-.8-.6c-2.16-1.62-4.03-4.4-5.06-6.11l.09-.19c1.55-.28,2.86-1.04,3.68-2.19.99-1.38,1.2-3.15.59-4.99-.12-.38-.47-1.41-2.41-3.7,4.13-6.46,4.77-15.81,4.83-16.92l.07-1.22.1-1.74-1.71-.33-7.85-1.53c.04-.46.07-.94.07-1.43,0-2-1.06-6.88-3.15-14.51,2.14-.27,4.76-.27,7.68-.27,6.58,0,9.06-6.65,9.45-10.17l.25-2.22h-2.23c-1.07,0-1.94-.27-2.63-.63.81-.45,1.37-1,1.75-1.51,2-2.65,1.05-6.26.93-6.66l-.41-1.45h-1.51c-14.12,0-22.18-7.28-28.06-12.59-3.75-3.39-6.71-6.06-10.17-6.06-2.14,0-4.37.18-6.96.39-3.13.25-6.67.54-10.75.54-2.15,0-5.22-1.03-8.48-2.13-4.63-1.55-9.87-3.31-15.32-3.31h0Z"/>
      </g>
      <path class="uuid-9325842f-70a3-40c6-9b83-af854e270fa0" d="M330.88,622.07c14.23-30.49,44.62-32.4,35.3-72.49,0,0-38.7-64.81,3.26-80.66,56.08-21.18,72.73,19.58,72.73,19.58,0,0,4.66,15.85,4.66,19.58s-1.86,7.46-1.86,17.72l4.84,4.58s3.43,3.44,4.02,5.21c.93,2.8-.93,4.66-3.73,4.66l-5.13,11.66c-1.86,5.59-23.31,15.85-25.18,17.72-1.53,1.53-4.95,20.68-2.51,36.26,0,0,6.08,21.27,5.07,35.5-1.02,14.23-91.48-19.31-91.48-19.31Z"/>
      <g>
        <path class="uuid-84e9ea48-e5b3-41ae-a8ae-b623d9fb1af9" d="M449.81,530.39s3.43,3.44,4.02,5.21c.93,2.8-.93,4.66-3.73,4.66"/>
        <path class="uuid-84e9ea48-e5b3-41ae-a8ae-b623d9fb1af9" d="M442.17,488.51s4.66,15.85,4.66,19.58-1.86,7.46-1.86,17.72"/>
      </g>
      <path class="uuid-7a49ec86-198e-4b21-9f51-7edee88142de" d="M350.19,596.66c-7.17,9.71-17.62,18.66-19.31,25.41-3.73,14.92,7.2,98.6,82.85,172.74,46.62,45.69,69.93,43.83,69.93,43.83,0,0,58.74-51.28,34.5-96.04l-27.51-46.16-5.59-6.53s7.46-11.19,7.93-17.25c-16.78-13.99-25.52-39.98-38.23-48.49-9.82-6.57-34.81-16.68-38.63-17.55-56.93-14.31-65.94-9.96-65.94-9.96Z"/>
      <path class="uuid-4648657e-b716-453e-bed8-11ea5248ac72" d="M471.14,706.44c-32.53-34.56-44.72-58.95-59.97-65.05-24.19-9.68-60.98-14.23-82.95-9.45,0,0,2.92,61.31,47,120.25,44.08,58.94,94.9,81.3,94.9,81.3,0,0,60.98-17.28,53.87-74.2l-69.12-44.72s9.15-1.02,16.26-8.13Z"/>
      <path class="uuid-e5b54377-9676-485d-81fd-48e57b49df01" d="M603.48,966.85c-37.3,7.46-44.76,23.31,2.8,19.58,47.55-3.73,96.04-29.84,91.38-33.57l-94.18,13.99Z"/>
      <g>
        <path class="uuid-55afd9ae-e03f-414f-a92c-00bcbcf6b62d" d="M518.41,717.63l.17-.87c.93-4.64,5.85-27.95,11.66-31.43,3.3-1.98,19.54-4.98,36.47-4.98,13.05,0,24.29,1.65,33.38,4.9l.81.29-10.63,56.05-71.86-23.95Z"/>
        <path class="uuid-7a49ec86-198e-4b21-9f51-7edee88142de" d="M566.71,681.35c11.07,0,22.96,1.24,33.05,4.84l-10.26,54.08-69.93-23.31c1.86-9.32,6.53-27.97,11.19-30.77,2.86-1.72,18.37-4.84,35.95-4.84M566.71,679.35h0c-17.36,0-33.5,3.03-36.98,5.12-6.01,3.61-10.8,25.48-12.12,32.09l-.35,1.73,1.67.56,69.93,23.31,2.17.72.43-2.25,10.26-54.08.32-1.68-1.61-.58c-9.21-3.29-20.55-4.95-33.72-4.95h0Z"/>
      </g>
      <ellipse class="uuid-4648657e-b716-453e-bed8-11ea5248ac72" cx="552.3" cy="984.17" rx="223.62" ry="35.84"/>
      <g>
        <path class="uuid-d6794aa5-e166-4bfa-bd35-3e20c0a15e23" d="M568.86,982.66c-.57,0-1.13-.11-1.66-.31l-64.29-25.25-59.99,25.21c-.56.24-1.15.35-1.76.35h-2.12c-2.17,0-3.95-1.42-4.43-3.53s.51-4.16,2.46-5.1l65.82-31.7,67.89,31.68c1.98.92,2.99,2.97,2.51,5.1-.47,2.13-2.25,3.56-4.43,3.56Z"/>
        <path class="uuid-a77f715e-7199-4c9c-80ab-02b04f3d37d7" d="M502.9,943.43l67.46,31.48c3.44,1.6,2.29,6.75-1.5,6.75-.44,0-.88-.08-1.29-.25l-64.67-25.4-60.37,25.37c-.43.18-.9.28-1.37.28h-2.12c-3.77,0-4.93-5.1-1.54-6.73l65.39-31.5M502.89,941.21l-.85.41-65.39,31.5c-2.38,1.15-3.59,3.65-3,6.23.59,2.58,2.76,4.31,5.4,4.31h2.12c.74,0,1.46-.15,2.15-.43l59.62-25.05,63.91,25.1c.65.25,1.33.38,2.03.38,2.66,0,4.84-1.75,5.41-4.34.58-2.6-.66-5.1-3.07-6.22l-67.46-31.48-.86-.4h0Z"/>
      </g>
      <rect class="uuid-d6794aa5-e166-4bfa-bd35-3e20c0a15e23" x="499.21" y="850.76" width="9" height="101.89"/>
      <path class="uuid-55afd9ae-e03f-414f-a92c-00bcbcf6b62d" d="M517.23,748.19c18.65,7.46,1.86,112.83-69.93,82.99,0,0,9.03,19.12,82.38,19.12s160.06-81.59,173.12-97.44c13.05-15.85,4.66-39.16-15.85-45.69-20.51-6.53-169.71,41.03-169.71,41.03Z"/>
      <path class="uuid-68d443b5-adaf-401e-8b77-b73cffbdd136" d="M691.13,708.57s9.32,1.86,22.38-1.86c11.34-3.24,37.3-15.85,47.55-15.85s13.05,10.26,13.05,10.26c0,0-96.56,60.97-105.24,51.01-8.68-9.95-11.32-20.24-1.99-25.84,9.32-5.59,16.8-8.34,24.24-17.72Z"/>
      <path class="uuid-212d9af3-4661-46e6-823e-5b68e686b0e9" d="M671.09,754.72c-8.68-9.95-16.78-22.38-7.46-27.97,9.32-5.59,21-9.74,28.44-19.12"/>
      <path class="uuid-55afd9ae-e03f-414f-a92c-00bcbcf6b62d" d="M665.49,909.51c0-49.42,27.97-125.88,43.55-170.62l-73.39,34.48s-26.11,53.15-26.11,131.48c0,0,10.26,11.19,31.7,11.19s24.24-6.53,24.24-6.53Z"/>
      <path class="uuid-212d9af3-4661-46e6-823e-5b68e686b0e9" d="M591.36,836.87c38.7-14.45,60.61-34.5,76.46-55.95"/>
      <path class="uuid-212d9af3-4661-46e6-823e-5b68e686b0e9" d="M658.33,793.12s4.36,1.78,9.96.85"/>
      <polygon class="uuid-ad2cbf4c-58ae-4746-b9ce-f3a35cb229dc" points="602.09 686.65 534.95 729.55 619.8 758.45 697.66 706.7 724.7 614.39 721.91 612.52 695.8 704.84 620.27 754.25 602.09 686.65"/>
      <polygon class="uuid-2a5d5479-99e0-40c1-ad16-981b03212510" points="619.8 754.72 695.33 704.37 602.09 682.92 534.95 725.82 619.8 754.72"/>
      <path class="uuid-9325842f-70a3-40c6-9b83-af854e270fa0" d="M536.35,706.7c11.19,0,34.5-17.72,39.16-17.72s17.72,5.59,22.38,5.59l7.46,10.26-20.37,7.7s-19.03,16.47-37.61,21.34c-10.09,2.65-22.19-1.56-26.13-5.83-11.19-12.12-2.61-22.28-2.61-22.28l17.72.93Z"/>
      <polygon class="uuid-2a5d5479-99e0-40c1-ad16-981b03212510" points="722.37 612.06 695.33 704.37 602.09 682.92 625.4 604.6 722.37 612.06"/>
      <polygon class="uuid-7a49ec86-198e-4b21-9f51-7edee88142de" points="610.9 677.54 630.4 612.02 713.18 618.39 690.49 695.85 610.9 677.54"/>
      <polyline class="uuid-ce8cdcfc-71dd-4a71-a341-3cd7d31939f2" points="686.7 676.87 623.04 665.02 635.39 624.37"/>
      <path class="uuid-9325842f-70a3-40c6-9b83-af854e270fa0" d="M594.84,724.1c3.52-3.87.72-12.27,2.58-14.13,1.86-1.86,10.26-12.12,13.05-12.12s4.66,2.8,5.59,2.8,7.46-2.8,8.39-2.8,7.46,4.66,7.46,4.66c0,0,6.27,9.6,6.4,11.33s-2.67,11.05-7.33,14.78c-4.66,3.73-13.05,6.53-17.72,9.32s-24.28-7.4-18.44-13.84Z"/>
      <path class="uuid-b79f88c3-9f57-413c-a657-edadecc814d8" d="M366.18,549.58c9.32,40.1-28.91,47.55-37.3,78.33-4.05,14.84,9.2,92.77,84.85,166.91,46.62,45.69,69.93,43.83,69.93,43.83,0,0,58.74-51.28,34.5-96.04"/>
      <path class="uuid-681b16d6-d3a7-421d-be60-6765d5e8ff53" d="M566.19,723.48c8.39-.93,15.85-9.32,18.65-10.26,2.8-.93,11.19-3.73,10.26-5.59-.93-1.86-4.66-3.73-14.92-.93-10.26,2.8-.93-6.53-.93-6.53"/>
      <path class="uuid-9325842f-70a3-40c6-9b83-af854e270fa0" d="M597.89,724.42l-64.39-4.43-42.03-44.04s-7.68,31.18-36.59,38.64l67.9,45.04s73.71-8.62,90.49-21.68"/>
      <g>
        <polyline class="uuid-33aa6855-746c-4afe-a605-0d03d79815c3" points="597.89 724.42 533.5 719.99 492.49 677.98"/>
        <path class="uuid-33aa6855-746c-4afe-a605-0d03d79815c3" d="M594.84,724.1c3.52-3.87.72-12.27,2.58-14.13,1.86-1.86,10.26-12.12,13.05-12.12s4.66,2.8,5.59,2.8,7.46-2.8,8.39-2.8,7.46,4.66,7.46,4.66"/>
      </g>
      <g>
        <path class="uuid-681b16d6-d3a7-421d-be60-6765d5e8ff53" d="M455.9,715.58l66.89,44.03s73.71-8.62,90.49-21.68"/>
        <path class="uuid-681b16d6-d3a7-421d-be60-6765d5e8ff53" d="M638.32,713.83c.13,1.73-2.67,11.05-7.33,14.78-4.66,3.73-13.05,6.53-17.72,9.32"/>
      </g>
      <path class="uuid-33aa6855-746c-4afe-a605-0d03d79815c3" d="M536.35,706.7c11.19,0,34.5-17.72,39.16-17.72s17.72,5.59,22.38,5.59"/>
      <path class="uuid-d97ecf5a-217c-4877-a9ce-eeb3f87892b2" d="M373,597.48c23.63,1.71,71.79,18.76,81.76,26.7,11.96,9.53,21.45,34.5,38.23,48.49,0,0-10.72,38.7-42.89,43.83-22.84-12.59-31.7-28.91-38.7-23.78"/>
      <path class="uuid-55afd9ae-e03f-414f-a92c-00bcbcf6b62d" d="M361.98,459.6c13.05-19.58,31.7-4.66,41.03-4.66,7.46,0,13.05-.93,17.72-.93,7.46,0,14.92,18.65,38.23,18.65,0,0,1.86,6.53-4.66,6.53,0,0,1.86,3.73,6.53,3.73,0,0-.93,8.39-7.46,8.39s-11.19,0-13.99,2.8c-2.8,2.8,2.8,8.39-8.39,14.92-11.19,6.53-4.66,17.72.93,23.31,5.59,5.59,6.53,14.92,11.19,14.92,0,0,1.86-5.59,5.59-5.59,0,0,2.8,5.59,6.53,8.39,0,0,0,5.59-5.59,5.59,0,0,1.86,2.8,1.86,5.59s-3.73,5.59-3.73,6.53,2.8,15.85-14.92,15.85-17.72-21.45-17.72-25.18,2.93-17.75,3.73-27.04c1.46-17.07-8.39-23.31-14.92-19.58-6.53,3.73-4.96,18.78,2.8,22.38,0,0-8.39,27.04-27.97,27.04s-31.7-18.65-31.7-28.91c0,0-5.59,1.86-7.46-2.8,0,0,3.73-11.19,1.86-18.65,0,0-5.59,2.8-7.46-2.8,0,0,5.59-3.73,6.53-11.19.46-3.7.93-38.23,21.45-37.3Z"/>
      <path class="uuid-681b16d6-d3a7-421d-be60-6765d5e8ff53" d="M589.5,699.24s-8.39-.93-14.92,0"/>
      <polyline class="uuid-53fb7c4a-b79a-41fe-a2e8-932f720b323c" points="633.79 655.88 645.91 642.83 647.78 652.15 652.44 646.56 658.03 655.88 671.09 646.56 674.82 651.22 691.6 636.3"/>
      <path class="uuid-7a49ec86-198e-4b21-9f51-7edee88142de" d="M668.76,750.53c0,12.12,21.45,19.58,58.74-1.86,37.3-21.45,49.65-42.1,42.89-53.15-9.65-15.78-40.08,21.38-55.95,29.84-13.99,7.46-45.69,7.46-45.69,25.18Z"/>
      <path class="uuid-c6aaba9e-ec55-4ce6-99e5-b5f00ad0617a" d="M672.49,754.25c0,12.12,21.45,13.99,58.74-1.86,39.6-16.83,49.65-42.1,42.89-53.15-10.26-16.78-41.96,22.38-55.95,29.84-13.99,7.46-45.69,7.46-45.69,25.18Z"/>
      <path class="uuid-3d0f56ec-a713-4574-8041-ead289ae3471" d="M603.48,935.15c-4.66,9.32-3.73,36.62-2.8,42.21,0,0,3.73,6.53,21.45,5.59,17.72-.93,70.87-15.85,75.53-21.45-.2-.44,0-11.44,0-11.44,0,0-12.52-6.69-21.45-10.26-10.1-4.04-15.85-11.19-15.85-11.19,0,0-4.66,15.85-20.51,18.65-15.85,2.8-11.19-5.59-15.85-8.39-4.66-2.8-20.51-3.73-20.51-3.73Z"/>
      <path class="uuid-b11b652c-071e-4a27-9658-99c22e468995" d="M603.48,931.42c-4.66,9.32-3.73,30.77-2.8,36.37,0,0,3.73,6.53,21.45,5.59,17.72-.93,70.87-16.78,75.53-22.38-4.66-10.26-12.12-11.19-21.45-14.92-10.1-4.04-15.85-11.19-15.85-11.19,0,0-4.66,15.85-20.51,18.65-15.85,2.8-11.19-5.59-15.85-8.39-4.66-2.8-20.51-3.73-20.51-3.73Z"/>
      <line class="uuid-212d9af3-4661-46e6-823e-5b68e686b0e9" x1="699.13" y1="707.63" x2="620.25" y2="759.62"/>
      <path class="uuid-212d9af3-4661-46e6-823e-5b68e686b0e9" d="M389.84,474.33c6.69,6.69,12.42,7.65,12.42,7.65,0,0-.96-5.73,2.87-7.65,0,0,2.87,4.78,7.65,3.82"/>
      <polygon class="uuid-e5b54377-9676-485d-81fd-48e57b49df01" points="412.19 506.2 453.86 513.48 453.86 515.66 420.32 514.33 412.19 506.2"/>
      <path class="uuid-e5b54377-9676-485d-81fd-48e57b49df01" d="M454.93,513.17l-42.3-7.46c-.43-.07-.86.14-1.06.52-.2.39-.13.86.18,1.17l7.46,7.46c.19.19.44.29.71.29,4.44,0,27.09.93,33.54,1.76-.66,4.74-2.67,13.98-8.34,15.87-.52.17-.81.74-.63,1.26.14.42.53.68.95.68.1,0,.21-.02.32-.05,8.93-2.98,9.97-19.76,10.01-20.47.03-.51-.33-.95-.82-1.04Z"/>
      <path class="uuid-11122c78-7c82-4dcb-875b-4e0c68373392" d="M471.35,706.69c-5.71,4.73-12.73,8.44-21.25,9.8-22.84-12.59-31.7-28.91-38.7-23.78"/>
      <path class="uuid-212d9af3-4661-46e6-823e-5b68e686b0e9" d="M457.99,512.68l-45.8-6.48"/>
      <g>
        <path class="uuid-4648657e-b716-453e-bed8-11ea5248ac72" d="M354.38,689.07c56.62,0,121.25,69,170.78,86.63,55.01,19.58,91.38,4.66,122.15,26.11,0,0-38.23,48.49-141.73,48.49-72.73,0-149.19-96.97-169.71-158.52,6.05-1.86,12.23-2.71,18.51-2.71M354.38,686.07c-6.74,0-13.26.96-19.39,2.84l-2.93.9.97,2.91c11.01,33.02,36.28,72.67,65.96,103.47,16.6,17.23,33.69,30.89,50.8,40.59,19.3,10.95,38.07,16.5,55.8,16.5,23.85,0,46.24-2.58,66.54-7.67,16.29-4.08,31.28-9.78,44.56-16.94,22.78-12.28,32.58-24.51,32.99-25.03l1.97-2.5-2.61-1.82c-16.85-11.74-35.24-13.02-56.53-14.5-19.03-1.32-40.61-2.82-66.33-11.98-19.08-6.79-40.53-21.41-63.24-36.89-36-24.54-73.23-49.91-108.54-49.91h0Z"/>
        <path class="uuid-e5b54377-9676-485d-81fd-48e57b49df01" d="M505.58,850.3c103.5,0,141.73-48.49,141.73-48.49-30.77-21.45-67.14-6.53-122.15-26.11-55.01-19.58-128.68-102.57-189.29-83.92,20.51,61.54,96.97,158.52,169.71,158.52Z"/>
        <path class="uuid-e5b54377-9676-485d-81fd-48e57b49df01" d="M505.58,850.3c103.5,0,141.73-48.49,141.73-48.49-30.77-21.45-67.14-6.53-122.15-26.11-55.01-19.58-128.68-102.57-189.29-83.92,20.51,61.54,96.97,158.52,169.71,158.52Z"/>
      </g>
    </g>
  </g>
</svg>