<?xml version="1.0" encoding="UTF-8"?>
<svg id="uuid-2d2b673d-397d-4ced-89c4-94b61ca877c2" data-name="Online Collaboration" xmlns="http://www.w3.org/2000/svg" xmlns:xlink="http://www.w3.org/1999/xlink" viewBox="0 0 1080 1080">
  <title>Collaboration (co-workers) illustration</title>
<desc>co-workers, collaboration, team, brainstorming, research, notes, data, checklist</desc>
<metadata><?xpacket begin="﻿" id="W5M0MpCehiHzreSzNTczkc9d"?>
<x:xmpmeta xmlns:x="adobe:ns:meta/" x:xmptk="Adobe XMP Core 8.0-c001 1.000000, 0000/00/00-00:00:00        ">
   <rdf:RDF xmlns:rdf="http://www.w3.org/1999/02/22-rdf-syntax-ns#">
      <rdf:Description rdf:about=""
            xmlns:xmp="http://ns.adobe.com/xap/1.0/"
            xmlns:tiff="http://ns.adobe.com/tiff/1.0/"
            xmlns:dc="http://purl.org/dc/elements/1.1/">
         <xmp:rhcc-effective-on>2024-06-28T18:22:50.966Z</xmp:rhcc-effective-on>
         <xmp:rhcc-rights-restricted>no</xmp:rhcc-rights-restricted>
         <xmp:brand-content-subtype>Illustration</xmp:brand-content-subtype>
         <xmp:rhcc-metadata-complete-moderator>pending</xmp:rhcc-metadata-complete-moderator>
         <xmp:rhcc-translation-id>TRAff5badf0-e88c-42cb-bdcf-7eabb84dec8b</xmp:rhcc-translation-id>
         <xmp:brand-content-type>Illustration</xmp:brand-content-type>
         <xmp:CreateDate>2024-06-28T18:22:50.966Z</xmp:CreateDate>
         <xmp:rhcc-aspect-ratio>square</xmp:rhcc-aspect-ratio>
         <xmp:rhcc-derivative-id>DERff5badf0-e88c-42cb-bdcf-7eabb84dec8b</xmp:rhcc-derivative-id>
         <xmp:rhcc-effective-on-set-on-upload>true</xmp:rhcc-effective-on-set-on-upload>
         <xmp:rhcc-uploaded-by>alwilker@redhat.com</xmp:rhcc-uploaded-by>
         <xmp:rhcc-metadata-complete-uploader>pending</xmp:rhcc-metadata-complete-uploader>
         <xmp:rhcc-file-last-modified>2024-07-13T00:26:50.579Z</xmp:rhcc-file-last-modified>
         <xmp:rhcc-audience>rhcc-audience:internal</xmp:rhcc-audience>
         <xmp:rhcc-notify-portal-subscribers-on-change>yes</xmp:rhcc-notify-portal-subscribers-on-change>
         <xmp:brand-colorway>
            <rdf:Bag>
               <rdf:li>colorway:black</rdf:li>
               <rdf:li>colorway:red</rdf:li>
            </rdf:Bag>
         </xmp:brand-colorway>
         <tiff:ImageLength>1080</tiff:ImageLength>
         <tiff:ImageWidth>1080</tiff:ImageWidth>
         <dc:format>image/svg+xml</dc:format>
         <dc:modified>2024-06-28T18:24:33.015Z</dc:modified>
         <dc:description>
            <rdf:Alt>
               <rdf:li xml:lang="x-default">co-workers, collaboration, team, brainstorming, research, notes, data, checklist</rdf:li>
            </rdf:Alt>
         </dc:description>
         <dc:title>
            <rdf:Alt>
               <rdf:li xml:lang="x-default">Collaboration (co-workers) illustration</rdf:li>
            </rdf:Alt>
         </dc:title>
      </rdf:Description>
   </rdf:RDF>
</x:xmpmeta>
                                                                                                    
                                                                                                    
                                                                                                    
                                                                                                    
                                                                                                    
                                                                                                    
                                                                                                    
                                                                                                    
                                                                                                    
                                                                                                    
                                                                                                    
                                                                                                    
                                                                                                    
                                                                                                    
                                                                                                    
                                                                                                    
                                                                                                    
                         
<?xpacket end="w"?></metadata>
<defs>
    <style>
      .uuid-52be7b32-1aeb-478c-85b7-d54a80bceb4d, .uuid-9e1e7313-b744-49fa-a26c-a5d40df7cb2c, .uuid-f65f1c4e-fdc0-479f-8db7-ed23efe4a781, .uuid-053028e6-1b78-4e54-9be5-90f0034921b6, .uuid-a21c4ada-fbd0-43c0-9651-397809af70dc, .uuid-0106360b-dd9d-47af-b319-c01a4bf924d9, .uuid-d08a0e7c-a023-4ab2-b4bf-95390c4861e4, .uuid-2995529a-d38e-49ea-8652-1af3343a1350, .uuid-68e5873a-adbe-42b1-9b2c-fa6adace68c9, .uuid-08452dfd-aec0-4505-8ebf-c52e081cdc0b, .uuid-ca7584a8-9d49-453c-b415-39c058683d62, .uuid-a812f147-61ea-471a-983b-659a72b651fa, .uuid-c9b7912a-0b88-4971-8010-65c9c4ca8b90, .uuid-dc0b3739-f6fd-416d-9d6c-f022e0c929f5, .uuid-6490b837-f39f-4f30-808d-bf0cc9cb44b8, .uuid-ec179813-26df-4391-ae16-afc3f7ce05c2 {
        stroke-width: 0px;
      }

      .uuid-52be7b32-1aeb-478c-85b7-d54a80bceb4d, .uuid-f4b95e0b-edd8-4ac6-93e3-f2c4a64b6574, .uuid-52d458a2-f911-4348-871a-5d5d1103924b, .uuid-53832fae-5700-4172-8a00-e8d5cecfac47, .uuid-f31f556e-5668-470d-b201-04504e4d668b, .uuid-09437b3b-89ee-4a15-9d7e-578b80afe076, .uuid-3691d2ef-c626-4ffa-9f9f-31c5be9970f8, .uuid-59bb21ad-19cb-4c70-a2d2-c59b33f3bdde, .uuid-3b948d49-70e2-4198-9fdf-9ac1f352d746, .uuid-3bd8f3f9-cf58-4961-900e-45f4d58e788c, .uuid-3e31c24a-d8a2-4722-85b6-ca76cd9d0675, .uuid-227654a0-c304-49e8-9ebe-0d81583f45da {
        fill: none;
      }

      .uuid-be4cf568-9ad6-4281-a815-008d52234e57 {
        clip-path: url(#uuid-e7cfa5ab-32ea-4ceb-b8e2-c346f1a7091b);
      }

      .uuid-9e1e7313-b744-49fa-a26c-a5d40df7cb2c {
        opacity: .8;
      }

      .uuid-9e1e7313-b744-49fa-a26c-a5d40df7cb2c, .uuid-ca7584a8-9d49-453c-b415-39c058683d62 {
        fill: var(--konflux-illustration-background, #e0f0ff);
      }

      .uuid-6cb854d0-0f89-4ce1-a5e4-abe1d1a83106 {
        clip-path: url(#uuid-95333a7b-a32d-4596-a19f-20328b5e9865);
      }

      .uuid-f4b95e0b-edd8-4ac6-93e3-f2c4a64b6574, .uuid-52d458a2-f911-4348-871a-5d5d1103924b, .uuid-53832fae-5700-4172-8a00-e8d5cecfac47, .uuid-f31f556e-5668-470d-b201-04504e4d668b, .uuid-09437b3b-89ee-4a15-9d7e-578b80afe076, .uuid-3691d2ef-c626-4ffa-9f9f-31c5be9970f8, .uuid-59bb21ad-19cb-4c70-a2d2-c59b33f3bdde, .uuid-3b948d49-70e2-4198-9fdf-9ac1f352d746, .uuid-3bd8f3f9-cf58-4961-900e-45f4d58e788c, .uuid-3e31c24a-d8a2-4722-85b6-ca76cd9d0675 {
        stroke-width: 2px;
      }

      .uuid-f4b95e0b-edd8-4ac6-93e3-f2c4a64b6574, .uuid-52d458a2-f911-4348-871a-5d5d1103924b, .uuid-53832fae-5700-4172-8a00-e8d5cecfac47, .uuid-f31f556e-5668-470d-b201-04504e4d668b, .uuid-09437b3b-89ee-4a15-9d7e-578b80afe076, .uuid-3691d2ef-c626-4ffa-9f9f-31c5be9970f8, .uuid-59bb21ad-19cb-4c70-a2d2-c59b33f3bdde, .uuid-227654a0-c304-49e8-9ebe-0d81583f45da {
        stroke-linecap: round;
      }

      .uuid-f4b95e0b-edd8-4ac6-93e3-f2c4a64b6574, .uuid-52d458a2-f911-4348-871a-5d5d1103924b, .uuid-53832fae-5700-4172-8a00-e8d5cecfac47, .uuid-09437b3b-89ee-4a15-9d7e-578b80afe076, .uuid-3691d2ef-c626-4ffa-9f9f-31c5be9970f8, .uuid-59bb21ad-19cb-4c70-a2d2-c59b33f3bdde, .uuid-227654a0-c304-49e8-9ebe-0d81583f45da {
        stroke-linejoin: round;
      }

      .uuid-f4b95e0b-edd8-4ac6-93e3-f2c4a64b6574, .uuid-3bd8f3f9-cf58-4961-900e-45f4d58e788c {
        stroke: #fff;
      }

      .uuid-52d458a2-f911-4348-871a-5d5d1103924b, .uuid-3e31c24a-d8a2-4722-85b6-ca76cd9d0675, .uuid-227654a0-c304-49e8-9ebe-0d81583f45da {
        stroke: var(--konflux-brand-orange, #fc783d);
      }

      .uuid-53832fae-5700-4172-8a00-e8d5cecfac47 {
        stroke: #40251d;
      }

      .uuid-f31f556e-5668-470d-b201-04504e4d668b {
        stroke: #000;
      }

      .uuid-f31f556e-5668-470d-b201-04504e4d668b, .uuid-3b948d49-70e2-4198-9fdf-9ac1f352d746, .uuid-3bd8f3f9-cf58-4961-900e-45f4d58e788c, .uuid-3e31c24a-d8a2-4722-85b6-ca76cd9d0675 {
        stroke-miterlimit: 10;
      }

      .uuid-09437b3b-89ee-4a15-9d7e-578b80afe076 {
        stroke: #ce8873;
      }

      .uuid-3691d2ef-c626-4ffa-9f9f-31c5be9970f8 {
        stroke: var(--konflux-brand-orange, #fc783d);
      }

      .uuid-59bb21ad-19cb-4c70-a2d2-c59b33f3bdde {
        stroke: var(--konflux-illustration-background, #e0f0ff);
      }

      .uuid-3b948d49-70e2-4198-9fdf-9ac1f352d746 {
        stroke: var(--konflux-illustration-primary, #92c5f9);
      }

      .uuid-d2ddc83e-de45-415f-a495-42153a2235d6 {
        clip-path: url(#uuid-3d3178ef-9ea0-46e6-bf0f-4121a493e309);
      }

      .uuid-4ba1c344-720d-4afd-a9be-cb33ff45cfc2 {
        clip-path: url(#uuid-956cbd21-577e-423b-bebc-40ed096783a7);
      }

      .uuid-0024aa83-35a8-4fdb-ac78-af330e1bc2a2 {
        clip-path: url(#uuid-874ab7e2-3106-4dab-92aa-ac3cbbc4975f);
      }

      .uuid-053028e6-1b78-4e54-9be5-90f0034921b6 {
        fill: var(--konflux-illustration-primary, #92c5f9);
      }

      .uuid-a21c4ada-fbd0-43c0-9651-397809af70dc {
        fill: var(--konflux-illustration-primary-dark, #21134d);
      }

      .uuid-0106360b-dd9d-47af-b319-c01a4bf924d9 {
        fill: #724335;
      }

      .uuid-d08a0e7c-a023-4ab2-b4bf-95390c4861e4 {
        fill: var(--konflux-illustration-primary, #92c5f9);
      }

      .uuid-2995529a-d38e-49ea-8652-1af3343a1350 {
        fill: var(--konflux-illustration-primary, #92c5f9);
      }

      .uuid-68e5873a-adbe-42b1-9b2c-fa6adace68c9 {
        fill: #40251d;
      }

      .uuid-08452dfd-aec0-4505-8ebf-c52e081cdc0b {
        fill: var(--konflux-illustration-accent, #b9dafc);
      }

      .uuid-a812f147-61ea-471a-983b-659a72b651fa {
        fill: var(--konflux-brand-orange, #fc783d);
      }

      .uuid-c9b7912a-0b88-4971-8010-65c9c4ca8b90 {
        fill: #ce8873;
      }

      .uuid-dc0b3739-f6fd-416d-9d6c-f022e0c929f5 {
        fill: #fff;
      }

      .uuid-6490b837-f39f-4f30-808d-bf0cc9cb44b8 {
        fill: var(--konflux-brand-orange, #fc783d);
      }

      .uuid-ec179813-26df-4391-ae16-afc3f7ce05c2 {
        fill: #e8a997;
      }

      .uuid-6c206457-8606-4846-908e-7b1ebcc13168 {
        clip-path: url(#uuid-237ca70d-6428-43a2-bbf1-0cd8e2390f5a);
      }

      .uuid-227654a0-c304-49e8-9ebe-0d81583f45da {
        stroke-width: 3px;
      }
    </style>
    <clipPath id="uuid-874ab7e2-3106-4dab-92aa-ac3cbbc4975f">
      <path class="uuid-52be7b32-1aeb-478c-85b7-d54a80bceb4d" d="M40.1,541.95c2.01-73.87,52.76-142.76,141.45-171.78,88.68-29.02,183.54-18.98,251.46-42.98,67.92-24,102.72-57.49,136.39-104.93s116.19-109.96,236.3-83.72c120.12,26.23,140.76,115.34,139.59,187.56-1,61.76-1.82,122.19,39.03,189.97,40.85,67.77,51.52,84.72,55.45,145,3.01,46.16-22.99,108.7-44.88,148.53-41.7,75.86-118.9,123.77-204.28,135.13-30.31,4.03-61.25,3.97-91.51-.57-37.2-5.58-73.14-18.02-106.13-35.94-133.59-72.56-172.88-135.07-321.62-135.63-148.74-.56-234.62-106.87-231.25-230.65Z"/>
    </clipPath>
    <clipPath id="uuid-3d3178ef-9ea0-46e6-bf0f-4121a493e309">
      <path class="uuid-52be7b32-1aeb-478c-85b7-d54a80bceb4d" d="M268.54,635.63c-1.33,13.25-15.59,18.01-27.08,18.08-14.51.09-28.45-6.27-39.28-15.62-4.97-4.29-18.29-17.51-22.89-22.83-8.06-9.33-17.75-10.78-17.75-10.78,5.4-1.69,13.95-5.07,17.85-8.53,8.22-7.31,18.26-19.87,21.32-35.24,3.05-15.35,4.37-33.65,4.11-40.04s3-5.09,8.78,1c5.79,6.09,25.58,36.23,25.58,36.23l.93,19.63s-3.67,9.01-4.28,14.8c0,0-.3,4.69,7.75,8.79,3.09,1.57,5.77,2.39,11.02,2.33.29.08,4.93,1.57,6.99,5.12,2.13,3.65,7.8,18.57,6.95,27.08Z"/>
    </clipPath>
    <clipPath id="uuid-95333a7b-a32d-4596-a19f-20328b5e9865">
      <path class="uuid-52be7b32-1aeb-478c-85b7-d54a80bceb4d" d="M904.73,606.93c17.21,7.79,27.8,10.45,40.76,14.69,12.96,4.24,19.8,13.58,23.1,26.54,3.3,12.96,0,53.49,0,53.49l-62.12,202.37-74.78,58.47-70.69,17.44-66.45-9.66s.71-17.44,8.48-27.33c7.78-9.9,25.21-25.68,32.75-29.92,0,0,8.48-18.61,14.14-39.11,5.66-20.5,58.44-174.6,58.44-174.6l12.04-21.44s8.74-7.3,11.9-13.67,4.53-13.52,4.53-13.52c0,0-.43-13.58,14.88-26.31,15.32-12.72,34.87-19.79,34.87-19.79l18.14,2.36Z"/>
    </clipPath>
    <clipPath id="uuid-237ca70d-6428-43a2-bbf1-0cd8e2390f5a">
      <path class="uuid-52be7b32-1aeb-478c-85b7-d54a80bceb4d" d="M750.66,970.96c23.71-13.74,60.07-49.26,89.02-121,28.95-71.74,30.18-79.51,35.4-97.66,5.22-18.15,11.21-42.41,37.2-50.99,47.1-15.56,60.7-24.16,82.54-42.35,10.33-8.6,19.01-10.37,21.18,0,2.16,10.37,2.16,31.98-7.78,64.82-9.94,32.84-26.79,92.05-72.17,150.82-45.38,58.77-133.96,107.17-133.96,107.17l-51.43-10.8Z"/>
    </clipPath>
    <clipPath id="uuid-e7cfa5ab-32ea-4ceb-b8e2-c346f1a7091b">
      <path class="uuid-52be7b32-1aeb-478c-85b7-d54a80bceb4d" d="M269.73,542.18s3.41-1.81,5.6-1.68,2.92,1.69,2.73,2.34-1.47,1.27-.13,1.32c0,0-.76,4.07-3.37,4.2s-4.85-1.74-4.85-2.02.02-4.16.02-4.16Z"/>
    </clipPath>
    <clipPath id="uuid-956cbd21-577e-423b-bebc-40ed096783a7">
      <path class="uuid-52be7b32-1aeb-478c-85b7-d54a80bceb4d" d="M150.57,607.23c-20.99,6.68-29.24,11.13-32.35,29.77-3.11,18.64,2.84,35.53,6.77,56.2,2.78,14.64,3.9,24.24,3.9,24.24,0,0,1.04-4.49,8.63-8.28,7.59-3.8,22.91-6.15,33.96-5.8,11.04.35,12,3.87,12,3.87,0,0-14.27-38.77-12.68-60.12"/>
    </clipPath>
  </defs>
  <g id="uuid-f5cda477-5a48-4615-bb3a-a808eb6625fc" data-name="Gray-20">
    <path class="uuid-ca7584a8-9d49-453c-b415-39c058683d62" d="M40.1,541.95c2.01-73.87,52.76-142.76,141.45-171.78,88.68-29.02,183.54-18.98,251.46-42.98,67.92-24,102.72-57.49,136.39-104.93s116.19-109.96,236.3-83.72c120.12,26.23,144.41,125.99,139.59,187.56-4.83,61.58-1.82,122.19,39.03,189.97,40.85,67.77,51.52,84.72,55.45,145,3.01,46.16-22.99,108.7-44.88,148.53-41.7,75.86-118.9,123.77-204.28,135.13-30.31,4.03-61.25,3.97-91.51-.57-37.2-5.58-73.14-18.02-106.13-35.94-133.59-72.56-172.88-135.07-321.62-135.63-148.74-.56-234.62-106.87-231.25-230.65Z"/>
    <path class="uuid-ca7584a8-9d49-453c-b415-39c058683d62" d="M380.98,181.18c47.75,0,87.35,30.46,99.81,72.44,6.81-3.96,14.72-6.23,23.17-6.23,25.52,0,46.2,20.69,46.2,46.2,0,3.5-.4,6.9-1.14,10.17,1.49-.21,3.01-.32,4.57-.32,18.29,0,34.13,14.83,35.37,33.12,1.24,18.29-12.58,33.12-30.87,33.12H240.95c-35.23,0-61.5-28.56-58.67-63.79,2.83-35.23,33.68-63.79,68.9-63.79,10.22,0,19.68,2.42,27.91,6.69,16.1-39.48,55.99-67.62,101.9-67.62M380.98,179.18c-22.63,0-44.5,6.69-63.25,19.35-17.73,11.97-31.41,28.38-39.67,47.53-8.3-3.95-17.34-5.95-26.89-5.95-36.19,0-68,29.44-70.9,65.63-1.41,17.64,4.15,34.22,15.66,46.69,11.46,12.42,27.44,19.25,45.01,19.25h317.16c9.39,0,17.99-3.66,24.2-10.31,6.23-6.67,9.31-15.53,8.67-24.95-1.31-19.29-18.08-34.99-37.37-34.99-.69,0-1.39.02-2.09.07.44-2.63.66-5.28.66-7.91,0-26.58-21.62-48.2-48.2-48.2-7.65,0-15.2,1.83-21.98,5.31-6.5-20.03-19.45-37.94-36.67-50.65-18.5-13.65-40.74-20.87-64.33-20.87h0Z"/>
    <rect class="uuid-d08a0e7c-a023-4ab2-b4bf-95390c4861e4" x="460.91" y="524.92" width="63.02" height="75.14"/>
    <rect class="uuid-d08a0e7c-a023-4ab2-b4bf-95390c4861e4" x="358.22" y="414.01" width="63.02" height="75.14"/>
    <path class="uuid-3e31c24a-d8a2-4722-85b6-ca76cd9d0675" d="M389.37,358.95v158.95c0,13.91,11.28,25.19,25.19,25.19h192.79c13.91,0,25.19,11.28,25.19,25.19v36.33"/>
    <path class="uuid-dc0b3739-f6fd-416d-9d6c-f022e0c929f5" d="M588.97,336.56c-1.24-18.29-17.08-33.12-35.37-33.12-1.56,0-3.08.12-4.57.32.74-3.27,1.14-6.68,1.14-10.17,0-25.52-20.69-46.2-46.2-46.2-8.45,0-16.35,2.28-23.17,6.23-12.46-41.99-52.06-72.44-99.81-72.44s-85.8,28.15-101.9,67.62c-8.22-4.28-17.68-6.69-27.91-6.69-35.23,0-66.08,28.56-68.9,63.79-2.83,35.23,23.44,63.79,58.67,63.79h317.16c18.29,0,32.11-14.83,30.87-33.12Z"/>
    <g>
      <path class="uuid-59bb21ad-19cb-4c70-a2d2-c59b33f3bdde" d="M319.28,224.11c16.51-14.93,38.53-23.83,61.7-23.83,17.79,0,34.39,5.09,48.1,14.07"/>
      <path class="uuid-59bb21ad-19cb-4c70-a2d2-c59b33f3bdde" d="M303.04,243.64c2.15-3.52,4.55-6.87,7.16-10.03"/>
    </g>
    <path class="uuid-dc0b3739-f6fd-416d-9d6c-f022e0c929f5" d="M344.27,478.01c13.71-16.51,13.96-52.02,13.96-63.99h63.02c0,11.97-.25,47.48-13.96,63.99h-63.02Z"/>
    <path class="uuid-6490b837-f39f-4f30-808d-bf0cc9cb44b8" d="M446.95,588.91c13.71-16.51,13.96-52.02,13.96-63.99h63.02c0,11.97-.25,47.48-13.96,63.99h-63.02Z"/>
    <rect class="uuid-d08a0e7c-a023-4ab2-b4bf-95390c4861e4" x="601.28" y="595.11" width="63.02" height="75.14"/>
    <path class="uuid-dc0b3739-f6fd-416d-9d6c-f022e0c929f5" d="M587.32,659.1c13.71-16.51,13.96-52.02,13.96-63.99h63.02c0,11.97-.25,47.48-13.96,63.99h-63.02Z"/>
    <path class="uuid-ca7584a8-9d49-453c-b415-39c058683d62" d="M247.04,339.65h-57.8c9.82,18.03,28.88,30.04,51.71,30.04h6.09v-30.04Z"/>
    <rect class="uuid-dc0b3739-f6fd-416d-9d6c-f022e0c929f5" x="111.1" y="329.64" width="125.92" height="175.05"/>
    <rect class="uuid-3b948d49-70e2-4198-9fdf-9ac1f352d746" x="111.1" y="329.64" width="125.92" height="175.05"/>
    <circle class="uuid-ca7584a8-9d49-453c-b415-39c058683d62" cx="204.82" cy="367.62" r="12.59"/>
    <line class="uuid-3e31c24a-d8a2-4722-85b6-ca76cd9d0675" x1="177.99" y1="367.62" x2="129.68" y2="367.62"/>
    <circle class="uuid-ca7584a8-9d49-453c-b415-39c058683d62" cx="204.82" cy="412.57" r="12.59"/>
    <line class="uuid-3e31c24a-d8a2-4722-85b6-ca76cd9d0675" x1="177.99" y1="412.57" x2="129.68" y2="412.57"/>
    <circle class="uuid-ca7584a8-9d49-453c-b415-39c058683d62" cx="204.82" cy="457.52" r="12.59"/>
    <line class="uuid-3e31c24a-d8a2-4722-85b6-ca76cd9d0675" x1="177.99" y1="457.52" x2="129.68" y2="457.52"/>
    <polyline class="uuid-52d458a2-f911-4348-871a-5d5d1103924b" points="199.05 365.84 204.88 371.89 217.42 352.93"/>
    <rect class="uuid-d08a0e7c-a023-4ab2-b4bf-95390c4861e4" x="636.91" y="303.6" width="231.9" height="194.38"/>
    <rect class="uuid-dc0b3739-f6fd-416d-9d6c-f022e0c929f5" x="625.81" y="292.5" width="231.9" height="194.38"/>
    <rect class="uuid-6490b837-f39f-4f30-808d-bf0cc9cb44b8" x="625.81" y="292.5" width="231.9" height="43.76"/>
    <line class="uuid-3bd8f3f9-cf58-4961-900e-45f4d58e788c" x1="650.9" y1="314.38" x2="746.96" y2="314.38"/>
    <circle class="uuid-dc0b3739-f6fd-416d-9d6c-f022e0c929f5" cx="834.79" cy="314.38" r="4.96"/>
    <rect class="uuid-08452dfd-aec0-4505-8ebf-c52e081cdc0b" x="767.92" y="361.51" width="65.06" height="13.97"/>
    <rect class="uuid-6490b837-f39f-4f30-808d-bf0cc9cb44b8" x="767.92" y="389.69" width="37.12" height="13.97"/>
    <rect class="uuid-9e1e7313-b744-49fa-a26c-a5d40df7cb2c" x="767.92" y="417.88" width="50.22" height="13.97"/>
    <circle class="uuid-6490b837-f39f-4f30-808d-bf0cc9cb44b8" cx="698.06" cy="406.61" r="44.98"/>
    <path class="uuid-08452dfd-aec0-4505-8ebf-c52e081cdc0b" d="M698.06,406.61l43.4-11.79c1.04,3.84,1.57,7.81,1.57,11.79,0,24.67-20.3,44.98-44.98,44.98s-44.98-20.3-44.98-44.98,20.3-44.98,44.98-44.98v44.98Z"/>
    <circle class="uuid-3bd8f3f9-cf58-4961-900e-45f4d58e788c" cx="698.06" cy="406.61" r="44.98"/>
    <polyline class="uuid-f65f1c4e-fdc0-479f-8db7-ed23efe4a781" points="501.65 817.33 505.83 827.86 616.83 827.86 616.83 827.86 619.34 817.33 501.65 817.33"/>
    <path class="uuid-f65f1c4e-fdc0-479f-8db7-ed23efe4a781" d="M204.58,521.67c-3.25,8.24-9.42,15.8-17.87,14.95-8.45-.85-20.49.76-23.96,11.18s.23,16.88.23,16.88c0,0-2.26,5.12-11.79,2.44-9.53-2.68-18.66-2.79-23.61,6.96-4.96,9.75,4.34,17.57,4.34,17.57,0,0-1.67,6.05-8.05,7.06-6.38,1.01-20.47,3.09-21.85,14.54-.36,3,.51,5.79,2.5,8.05,1.78,2.02,5.09,2.4,3.99,6.03-.57,1.87-2.11,3.25-3.56,4.56-6.76,6.14-13.31,14.68-11.15,23.56,2.14,8.81,11.91,13.47,20.88,14.88,12.83,2.02,25.96-.07,38.58-3.13,8.77-2.13,14.4-.93,22.93.94,4.74,1.04,10.06,2.17,14.91,1.11,11.68-2.57,17.73-16.61,22.13-26.3,19.46-42.79,13.25-126.39,13.25-126.39l-10.01-8.71-11.88,13.83Z"/>
    <ellipse class="uuid-3e31c24a-d8a2-4722-85b6-ca76cd9d0675" cx="777.2" cy="545.79" rx="13.11" ry="17.52" transform="translate(-119.77 233.74) rotate(-15.9)"/>
    <g class="uuid-0024aa83-35a8-4fdb-ac78-af330e1bc2a2">
      <g>
        <path class="uuid-dc0b3739-f6fd-416d-9d6c-f022e0c929f5" d="M161.88,614.62s-56.81,6-73.21,18.25c-16.4,12.24-11.32,36.72-5.54,62.36,5.77,25.64,20.09,60.05,20.09,60.05l71.36,33.03-.69-115.94-11.09-57.28-.92-.46Z"/>
        <path class="uuid-08452dfd-aec0-4505-8ebf-c52e081cdc0b" d="M169.92,616.1c-21.8,1.21-70.5,12.35-79.94,23.98-9.45,11.63-6.78,22.29-3.63,41.67,3.15,19.38,20.59,76.79,32.95,96.9,12.35,20.11,57.9,25.44,57.9,25.44l2.42-140.99-9.69-47Z"/>
        <path class="uuid-68e5873a-adbe-42b1-9b2c-fa6adace68c9" d="M283.89,744.23s33.93,21.73,50.43,25l-27.91,8.38-36.7-27.19"/>
        <path class="uuid-6490b837-f39f-4f30-808d-bf0cc9cb44b8" d="M240.12,577.51s-3.67,9.01-4.28,14.79c0,0-.72,5.62,9.53,9.75,4.71,1.9,7.42,1.37,9.24,1.37,1.72,0,3.02.04,5.53.04,8.22,0,18.9,2.2,22.48,12.69,5.22,15.29-3.49,24.24,1.9,36.23,0,0,10.34,13.46,12.96,20.94,2.25,6.43,2,14.48-4.95,23.99-1.66,2.27-2.59,4.99-2.6,7.81-.01,8.1-1.13,28.29.68,36.2,2.44,10.66,8.59,24.6,15.29,32.04h-118.47s-26.19-72.34-31.97-87.87c-5.79-15.53-18.58-67.91-4.87-78.26,0,0,26.21-5.54,34.44-12.84s12.22-16.73,15.27-32.09c3.05-15.36,5.81-31.76,5.56-38.15s1.98-8.57,7.76-2.48c5.79,6.09,25.58,36.22,25.58,36.22l.93,19.63Z"/>
        <polyline class="uuid-2995529a-d38e-49ea-8652-1af3343a1350" points="197.88 761.19 179.83 716.6 173.1 699.53"/>
        <path class="uuid-a812f147-61ea-471a-983b-659a72b651fa" d="M176.69,691.94s-3.67-15.6-5.64-23.65c-1.98-8.05-1.51-17.85-1.51-17.85,0,0,7.58,15.76,13.38,26.69,7.14,13.45,22.19,26.35,48.24,24.03,12.38-1.1-3.67,5.46-9.93,8.8-16.17,8.61-17.23,29.61-18.65,45.52-2.75-.31-4.88-2.42-6.66-4.47-3.82-4.43-7.15-9.26-9.92-14.37-1.48-2.74-2.8-5.56-3.95-8.44-.49-1.22-.76-3.01-1.5-4.09s-1.41-.96-2.15-1.81c-1.11-1.27-5.93-19.11-5.93-19.11l-2.95-13.66"/>
        <rect class="uuid-dc0b3739-f6fd-416d-9d6c-f022e0c929f5" x="366.01" y="760.92" width="112.67" height="8.83"/>
        <polygon class="uuid-08452dfd-aec0-4505-8ebf-c52e081cdc0b" points="366.01 769.75 284.34 769.75 281.6 760.92 366.01 760.92 366.01 769.75"/>
        <rect class="uuid-6490b837-f39f-4f30-808d-bf0cc9cb44b8" x="169.14" y="769.59" width="380.96" height="6"/>
        <path class="uuid-0106360b-dd9d-47af-b319-c01a4bf924d9" d="M268.54,635.63c-1.33,13.25-15.59,18.01-27.08,18.08-14.51.09-28.45-6.27-39.28-15.62-4.97-4.29-18.29-17.51-22.89-22.83-8.06-9.33-17.75-10.78-17.75-10.78,5.4-1.69,13.95-5.07,17.85-8.53,8.22-7.31,18.26-19.87,21.32-35.24,3.05-15.35,4.37-33.65,4.11-40.04s3-5.09,8.78,1c5.79,6.09,25.58,36.23,25.58,36.23l.93,19.63s-3.67,9.01-4.28,14.8c0,0-.3,4.69,7.75,8.79,3.09,1.57,5.77,2.39,11.02,2.33.29.08,4.93,1.57,6.99,5.12,2.13,3.65,7.8,18.57,6.95,27.08Z"/>
        <g class="uuid-d2ddc83e-de45-415f-a495-42153a2235d6">
          <path class="uuid-68e5873a-adbe-42b1-9b2c-fa6adace68c9" d="M210.49,547.2c.21,7.21,3.84,39.09,17.57,52.36,6.86,6.63,31.02,5.93,33.24-1.04,2.11-6.61-17.66-19.81-17.66-19.81l-21.21-24.3-11.94-7.21Z"/>
        </g>
        <path class="uuid-f65f1c4e-fdc0-479f-8db7-ed23efe4a781" d="M204.75,525.94s.82,5.53.21,12.72-2.91,23.49-9.17,35.12c-6.26,11.64-10.09.6-10.09.6l12-28.92,6.34-16.46"/>
        <path class="uuid-a21c4ada-fbd0-43c0-9651-397809af70dc" d="M828.79,887.98s-89.15-7.45-115.56-8.31c-26.4-.86-40.81-.1-52.44,10.55-3.72,3.4-10.68,17.55-10.68,17.55,0,0,36.53,34.85,69.35,45.46,32.83,10.61,83.43,8.19,83.43,8.19l25.88-73.45Z"/>
        <path class="uuid-f65f1c4e-fdc0-479f-8db7-ed23efe4a781" d="M752.17,908.4s-89.15-7.45-115.56-8.31-40.81-.1-52.44,10.55c-3.72,3.4-10.68,17.55-10.68,17.55,0,0,36.53,34.85,69.35,45.46,32.83,10.61,83.43,8.19,83.43,8.19l25.88-73.45Z"/>
        <path class="uuid-6490b837-f39f-4f30-808d-bf0cc9cb44b8" d="M904.73,606.93c17.21,7.79,27.8,10.45,40.76,14.69,12.96,4.24,19.8,13.58,23.1,26.54,3.3,12.96,0,53.49,0,53.49l-62.12,202.37-74.78,58.47-70.69,17.44-66.45-9.66s.71-17.44,8.48-27.33c7.78-9.9,25.21-25.68,32.75-29.92,0,0,8.48-18.61,14.14-39.11,5.66-20.5,58.44-174.6,58.44-174.6l12.04-21.44s8.74-7.3,11.9-13.67,4.53-13.52,4.53-13.52c0,0-.43-13.58,14.88-26.31,15.32-12.72,34.87-19.79,34.87-19.79l18.14,2.36Z"/>
        <g class="uuid-6cb854d0-0f89-4ce1-a5e4-abe1d1a83106">
          <path class="uuid-a812f147-61ea-471a-983b-659a72b651fa" d="M952.79,622.84s11.34,9.47,10.89,28.55c-.74,31.06-34.02,63.59-34.02,63.59,0,0,48.3,24.38,53.17-19.47,4.87-43.85-14.62-75.52-14.62-75.52"/>
        </g>
        <path class="uuid-a812f147-61ea-471a-983b-659a72b651fa" d="M874.2,709.26s5.06,39.65-12.65,106.29c-17.71,66.64-26.99,58.2-26.99,58.2l-14.34,26.99s-5.06,7.59-17.71,1.69c-12.65-5.9-42.18-29.52-42.18-29.52l58.2-118.1,55.67-45.55Z"/>
        <path class="uuid-a812f147-61ea-471a-983b-659a72b651fa" d="M786.51,892.55c5.14,3.5,3.3,20.3-4.2,35.61-7.51,15.31-20.09,24.07-20.09,24.07l21.7-2.19,29.9-40.66,4.92-11.67-2.37-6.75"/>
        <path class="uuid-dc0b3739-f6fd-416d-9d6c-f022e0c929f5" d="M750.66,970.96c23.71-13.74,60.07-49.26,89.02-121,28.95-71.74,30.18-79.51,35.4-97.66,5.22-18.15,11.21-42.41,37.2-50.99,47.1-15.56,60.7-24.16,82.54-42.35,10.33-8.6,19.01-10.37,21.18,0,2.16,10.37,2.16,31.98-7.78,64.82-9.94,32.84-26.79,92.05-72.17,150.82-45.38,58.77-133.96,107.17-133.96,107.17l-51.43-10.8Z"/>
        <g class="uuid-6c206457-8606-4846-908e-7b1ebcc13168">
          <path class="uuid-08452dfd-aec0-4505-8ebf-c52e081cdc0b" d="M795.86,955.87c1.91,0,29.22-13.97,69.23-118.77,40.01-104.8,34.3-111.15,51.45-118.77,17.15-7.62,42.06-15.83,66.96-33.88,17.7-12.83,30.21-31.54,32.75-22.02,2.54,9.53,8.26,43.19-1.27,80.03-9.53,36.84-106.07,196.89-106.07,196.89l-92.73,44.46"/>
          <path class="uuid-f4b95e0b-edd8-4ac6-93e3-f2c4a64b6574" d="M866.2,784.53s49.1-6.23,100.89-35.61c47.74-27.08,48.28-44.39,48.28-44.39"/>
          <path class="uuid-f4b95e0b-edd8-4ac6-93e3-f2c4a64b6574" d="M837.89,856.88s51.11-6.23,102.9-35.61c47.74-27.08,55.79-56.06,55.79-56.06"/>
          <path class="uuid-f4b95e0b-edd8-4ac6-93e3-f2c4a64b6574" d="M807.57,913.69s51.77-3.56,104.07-32.01c42.83-23.3,55.35-52.6,55.35-52.6"/>
        </g>
      </g>
    </g>
    <path class="uuid-a812f147-61ea-471a-983b-659a72b651fa" d="M286.88,707.7c1.27,3.92,2.16,9.99,2.7,14.63.07-6.72.33-13.34.33-17.21,0-2.81.94-5.53,2.6-7.81,4.68-6.4,6.32-12.14,6.2-17.17l-.91-5.76c.42,3.69.17,10.54-6,15.42-4.32,3.42-15.12,4.37-14.53,7.19.59,2.81,7.32,3.61,9.61,10.71Z"/>
    <path class="uuid-dc0b3739-f6fd-416d-9d6c-f022e0c929f5" d="M785.34,584.05s1.84,2.89,2.9,3.96c0,0,2.13-2.33,4.58-4.41,2.45-2.08,3.87-5.2,1.83-6.89-2.05-1.69-5.43,1.07-5.43,1.07l-3.88,6.27Z"/>
    <path class="uuid-ec179813-26df-4391-ae16-afc3f7ce05c2" d="M877.88,571.2c.61,8.43,4.26,15.18,6.67,20.44,2.41,5.26,6.42,11.35,9.05,14.85l-54.99,26.51s-7.01-15.55-11.39-20.59c0,0-7.89,6.57-12.49,8.76-4.6,2.19-8.54,1.97-12.05-.66-3.51-2.63-5.04-10.95-5.7-15.99-.66-5.04-2.63-6.79-4.16-7.01-1.53-.22-3.31-1.46-3.53-2.11s.78-4.45,1.31-6.13,3.09-6.21,3.09-9.28c0,0-1.58-1.07-4.58,1.02-3.01,2.09-5.49,4.71-5.49,4.71,0,0-2.61-1.05-3.4-2.22-.78-1.18-.13-3.65-.92-7.45,0,0-4.17.34-7.18,1.52-3.01,1.18-6.01-.77-6.41-2.09s-.78-2.49,2.22-7.06c3.01-4.58,6.52-13.06,8.48-18.99,0,0,.92-1.62.52-4.36s-4.97-4.18-5.88-8.63,4.46-16.33,6.67-27.97c2.21-11.64,5.23-13.86,5.23-13.86,0,0,12.42-11.5,22.09-2.87,9.67,8.63,49.41,39.48,49.41,39.48l23.4,40Z"/>
    <path class="uuid-c9b7912a-0b88-4971-8010-65c9c4ca8b90" d="M825.31,611.66s5.04,3.15,10.4,16.71c0,0-2.84-23.33-6.3-34.68"/>
    <path class="uuid-f65f1c4e-fdc0-479f-8db7-ed23efe4a781" d="M790.42,512.72c-1.06-13.03-2.41-19.94-6.79-18.4s-8.11,8.44-8.11,8.44c0,0-1.1-2.96,0-6.03,0,0-5.92,3.72-10.74,4.38,0,0,6.39-4.31,8.62-11.57.54-1.76,5-1.09,6.28-2.67,2.08-2.59,2.32-7.42,5.76-9.93,13.13-9.59,30.69-15.22,42.72-15.48,28.6-.62,41.45,16.05,41.45,16.05,0,0,10.95,3.72,15.77,13.58,4.82,9.86,5.37,23.16,3.4,36.08-1.97,12.93-12.22,27.8-10.91,44.01,0,0-14.07.9-24.36,4.84,0,0-10.08-10.95-15.34-27.6-5.26-16.65-15.19-23.62-23.66-20.16-4.82,1.97-5.48,3.72-6.79,5.7s-2.63,3.29-4.6,3.94-11.17-6.35-12.71-25.19Z"/>
    <path class="uuid-f31f556e-5668-470d-b201-04504e4d668b" d="M773.03,544.41s1.5.49,3.06-1.13c0,0,.28-.47,1.66-.84,1.39-.37,7.76.93,7.76.93"/>
    <path class="uuid-f65f1c4e-fdc0-479f-8db7-ed23efe4a781" d="M777.75,542.44c1.14,2.88,1.55,5.42.91,5.67s-2.08-1.87-3.22-4.75"/>
    <path class="uuid-f65f1c4e-fdc0-479f-8db7-ed23efe4a781" d="M771.19,534.5c1.75-1.83,4.77-3.97,9.13-3.17s4.27-.62,2.4-1.96c-1.87-1.33-5.62-2.83-8.91-1.76-3.29,1.07-3.46,3.72-3.64,5.59-.18,1.87.6,3.16.6,3.16l.42-1.86Z"/>
    <path class="uuid-227654a0-c304-49e8-9ebe-0d81583f45da" d="M814.59,527.79s-4.33-.87-7.79.52c-1.55.62-47.03,18.42-47.03,18.42"/>
    <path class="uuid-227654a0-c304-49e8-9ebe-0d81583f45da" d="M824.8,529.52s11.75,5.11,15.75,7.96"/>
    <path class="uuid-a812f147-61ea-471a-983b-659a72b651fa" d="M904.73,606.93c-4.71-4.95-8.66-13.2-8.66-13.2,0,0-6.18-3.77-32.81,11.78-26.63,15.55-36.39,27.68-36.39,27.68,1.07,8.36,8.82,18.5,8.82,18.5,30.87-28.04,61.73-43.36,69.04-44.77Z"/>
    <path class="uuid-dc0b3739-f6fd-416d-9d6c-f022e0c929f5" d="M614.33,935.67c-1.37,0-2.6-.94-2.92-2.33-.2-.89-4.87-21.95,4.07-42.08,8.97-20.18,22.82-27.51,23.4-27.81,1.47-.76,3.28-.18,4.04,1.29.76,1.47.18,3.27-1.28,4.04h0c-.13.07-12.62,6.78-20.68,24.92-8.14,18.32-3.75,38.1-3.71,38.3.37,1.61-.64,3.22-2.25,3.59-.23.05-.45.08-.67.08Z"/>
    <path class="uuid-dc0b3739-f6fd-416d-9d6c-f022e0c929f5" d="M818.31,853.15h-172.86c-10.37,0-19.45,5.19-22.47,7.35-3.03,2.16-4.32,7.78,0,7.78h171c10.5,0,20.87-4.32,24.33-7.56,3.46-3.24,0-7.56,0-7.56Z"/>
    <polygon class="uuid-053028e6-1b78-4e54-9be5-90f0034921b6" points="729.15 827.86 616.83 827.86 619.34 817.33 731.66 817.33 729.15 827.86"/>
    <rect class="uuid-dc0b3739-f6fd-416d-9d6c-f022e0c929f5" x="449.92" y="827.17" width="252.99" height="6"/>
    <path class="uuid-ec179813-26df-4391-ae16-afc3f7ce05c2" d="M782.3,767.86s-9.65,33.88-25.15,53.48c0,0-27.67-6.81-57.48-16.75-29.82-9.94-45.38-18.96-45.38-18.96l-14.26,18.1s28.09,21.18,44.08,33.28c15.99,12.1,64.92,41.05,72.43,44.08,7.51,3.03,12.88,2.7,20.01-3.89,5.58-5.15,57.51-70.76,67.45-96.53l-61.7-12.8Z"/>
    <path class="uuid-c9b7912a-0b88-4971-8010-65c9c4ca8b90" d="M776.85,783.92c8.69,5.86,29.9,18.06,55.68,18,4.11-6.54,7.55-12.55,9.88-17.54-3.53-1.73-6.37-2.86-6.37-2.86l-56.39-5.33c-.77,2.26-1.71,4.88-2.8,7.73Z"/>
    <path class="uuid-09437b3b-89ee-4a15-9d7e-578b80afe076" d="M782.3,767.86s-9.43,33.45-25.15,53.48l-5.59,5.81"/>
    <path class="uuid-0106360b-dd9d-47af-b319-c01a4bf924d9" d="M215.48,564.14s2.79,6.02,9.25,13.86c6.45,7.84,16.66,11.84,21.16,12.4,4.49.56,6.55-2.03,8.22-5.54,1.67-3.51,4.96-7.45,8.91-12.36,3.95-4.91,9.77-8.3,11.82-14.85,2.05-6.56.74-14.69,3.67-16.02,5.51-2.49,5.6-3,7.36-8.37.8-2.42,3.8-15.89,3.52-24.09-.21-6.28-10.63-25.93-27.94-29.47-17.31-3.53-37,8.49-47.19,20.37-10.19,11.88-13.62,30.66,1.21,64.07Z"/>
    <path class="uuid-f65f1c4e-fdc0-479f-8db7-ed23efe4a781" d="M289.3,513.86s.49-3.23-2.56-6.04c-3.05-2.82-12.51-8.71-25.44-5.24-12.93,3.46-11.54,4.18-20.21,7.88-8.67,3.7-13.48.83-17.62,7.18-4.13,6.36-8.74,2.08-10.29-.8-1.17-2.17-6.64,1.87-8.03,3.23-1.79,1.75-3.3,4.66-4.66,6.77.28-4.47.03-9.14-.45-13.59-.82-7.7.83-25.28,14.13-35.93,14.46-11.58,40.25-10.48,53.6-3.08,13.35,7.4,23.94,21.48,21.52,39.62Z"/>
    <path class="uuid-f65f1c4e-fdc0-479f-8db7-ed23efe4a781" d="M237.21,521.58s4.95-1.97,9.17-1.55c4.22.42,9.38,3.56,10.6,5.48,1.23,1.92,3,3.75,4,3.64s2.91-1.51,3.27-2.12-3.94-5.21-10.04-7.98c-6.1-2.77-10.12-1.6-12.54-.44-2.41,1.16-4.47,2.98-4.47,2.98Z"/>
    <path class="uuid-f65f1c4e-fdc0-479f-8db7-ed23efe4a781" d="M276.48,532.58c-1.07.56-2.69,1.98-3.09,2.4s1.83.44,5.08.07,4.83.37,5.09,1.77c.26,1.39-.71,2.08-1.08,2.74,0,0,1.62-.13,2.24-2.82.62-2.69.11-4.71-3.26-4.91s-4.98.75-4.98.75Z"/>
    <path class="uuid-f31f556e-5668-470d-b201-04504e4d668b" d="M269.73,542.18s3.41-1.81,5.6-1.68,2.92,1.69,2.73,2.34,1.11,1.27,2.45,1.32"/>
    <ellipse class="uuid-f65f1c4e-fdc0-479f-8db7-ed23efe4a781" cx="247.53" cy="537.72" rx="4.44" ry="4.01" transform="translate(-344.4 531.36) rotate(-64.67)"/>
    <g class="uuid-be4cf568-9ad6-4281-a815-008d52234e57">
      <ellipse class="uuid-f65f1c4e-fdc0-479f-8db7-ed23efe4a781" cx="273.65" cy="543.61" rx="3.5" ry="2.67" transform="translate(-331.79 605.61) rotate(-69.13)"/>
    </g>
    <path class="uuid-0106360b-dd9d-47af-b319-c01a4bf924d9" d="M270.01,536.22c-.85.67-2.25,2.92-2.3,5.72s.11,8.05,3.66,15.46c1.16,2.43,1.36,4.42.12,5.69s-5.86.95-9.24-.47c-1.13-.48-2.8-.2-2.8-.2"/>
    <path class="uuid-53832fae-5700-4172-8a00-e8d5cecfac47" d="M271.28,537.33c-.85.67-2.21,3.34-2.56,5.69-.41,2.77-1.05,5.64,2.65,14.38,1.05,2.48,1.36,4.42.12,5.69s-5.86.95-9.24-.47c-1.13-.48-2.8-.2-2.8-.2"/>
    <path class="uuid-53832fae-5700-4172-8a00-e8d5cecfac47" d="M255.79,561.45s-1.21-1.18-.94-2.57c.27-1.4,1.36-2.2,2.68-2.59"/>
    <path class="uuid-0106360b-dd9d-47af-b319-c01a4bf924d9" d="M215.15,520.65c-1.77-1.27-2.07-6.33-4.59-8.81-2.52-2.48-9.15-2.27-10.42,6.3-1.28,8.57.63,15.77,5.01,17.4,4.38,1.63,4.33,2.61,4.33,2.61"/>
    <path class="uuid-53832fae-5700-4172-8a00-e8d5cecfac47" d="M215.15,520.65c-1.77-1.27-2.07-6.33-4.59-8.81-2.52-2.48-9.15-2.27-10.42,6.3-1.28,8.57.63,15.77,5.01,17.4,4.38,1.63,4.59,2.22,4.59,2.22"/>
    <path class="uuid-ec179813-26df-4391-ae16-afc3f7ce05c2" d="M811.89,532.22s1.31-7.23,6.35-8.76c5.04-1.53,10.95,5.92,11.83,18.62.88,12.71-5.04,17.31-7.67,19.06"/>
    <path class="uuid-09437b3b-89ee-4a15-9d7e-578b80afe076" d="M811.89,532.22s1.31-7.23,6.35-8.76c5.04-1.53,10.95,5.92,11.83,18.62.88,12.71-5.04,17.31-7.67,19.06"/>
    <path class="uuid-6490b837-f39f-4f30-808d-bf0cc9cb44b8" d="M837.57,671.96c-9.87,1.37-13.61,3.06-17.17,5.89s-9.45,3.77-20.05,27.8c-10.6,24.03-14.5,36.05-17.14,46.18-2.65,10.13-12.86,26.47-12.86,26.47,0,0,7.54,5.66,37.23,9.19,29.69,3.53,46.18-1.41,46.18-1.41,0,0,15.87-31.18,20.34-58.75,4.48-27.57-7.07-45-17.2-50.19-10.13-5.18-15.87-5.66-19.32-5.18Z"/>
    <path class="uuid-3691d2ef-c626-4ffa-9f9f-31c5be9970f8" d="M806.04,772.12s20.83,3.9,48.27,1.93"/>
    <path class="uuid-f65f1c4e-fdc0-479f-8db7-ed23efe4a781" d="M785.45,476.94c-4.65,3.54-18.55,9.25-22.09,1.62,0,0-1.74,5.64,3.35,9.12,3.54,2.42,8.38,3.54,13.4,1.49"/>
    <path class="uuid-c9b7912a-0b88-4971-8010-65c9c4ca8b90" d="M814.73,621.17c5.53-3.83,14.35-25.27,15.3-36.3,0,0,1.26,15.13,0,22.07-1.26,6.94-15.3,14.24-15.3,14.24Z"/>
    <path class="uuid-c9b7912a-0b88-4971-8010-65c9c4ca8b90" d="M796.67,602.71c-.12-.78-.48-3.49-.48-6.36,0-3.41-.37-7.26-.96-4.15s-2.4,5.3-2.4,5.3c1.33.19,3,1.54,3.84,5.21Z"/>
    <path class="uuid-0106360b-dd9d-47af-b319-c01a4bf924d9" d="M256.61,537.62s-1.43.48-2.96-.42c0,0-.95-1.91-3.97-3.38-3.02-1.46-7.68-1.69-9.26-1.32-1.58.37-3.81-1.52-3.81-1.52,0,0,11.55-3.76,14.09-2.72,2.54,1.04,5.91,9.34,5.91,9.34Z"/>
    <path class="uuid-f31f556e-5668-470d-b201-04504e4d668b" d="M256.61,537.62s-1.43.48-2.96-.42c0,0-.95-1.91-3.97-3.38-3.02-1.46-7.68-1.69-9.26-1.32-1.58.37-3.81-1.52-3.81-1.52"/>
    <path class="uuid-f65f1c4e-fdc0-479f-8db7-ed23efe4a781" d="M128.89,717.44c.58,2.26,13.52.79,13.52.79l-4.1-13.11s-6.55,2.62-8.03,5.41c-1.47,2.78-1.4,6.91-1.4,6.91Z"/>
    <path class="uuid-f65f1c4e-fdc0-479f-8db7-ed23efe4a781" d="M183.47,707.22c.6,1.87-3.27,3.55-5,4.69l-1.79-8.07s5.81.33,6.79,3.38Z"/>
    <path class="uuid-0106360b-dd9d-47af-b319-c01a4bf924d9" d="M172.19,669.35s-.91,6.39-.3,10.35c.61,3.96,14.71,53.09,22.01,66.18,1.14-.4,5.38-1.59,6.7-2.13,10.35-4.26,77.44-22.36,89.92-25.1,11.52-2.52,20.59-1.71,26.64.12.5.15,1.02.31,1.53.47,6.7,2.13,37.34,11.97,39.5,13.59,1.72,1.29,5.52,4.02,8.31,7.54,2.8,3.5,6.85,6.72,6.61,8.16-.24,1.44-1.88,1.96-4.04,1.42-2.08-.52-6.2-3.96-6.46-4.17,2.97,5.12,5.52,8.08,5.52,8.08,0,0,2.65,2.86,2.29,3.91-.65,1.9-2.29,2.02-4.31,1.89-2.02-.14-4.18-1.62-4.18-1.62-.53,1.22-2.42,1.89-5.26,1.35-2.83-.54-5.65-4.11-5.65-4.11,0,0-1.89,1.08-3.65.27-1.75-.8-2.84-2.77-3.52-4.39-.67-1.62-1.39-3.01-1.39-3.01-1.63-1.89-4.04-3.6-4.04-3.6-5.53-4.18-23.69-5.8-27.88-7.28-4.18-1.48-7.02-3.77-7.02-3.77-.53-.08-1.23-.08-1.93-.03-1.63.11-3.34.44-3.34.44,0,0-21.55,3.28-51.63,25.09-5.11,3.71-10.28,7.09-15.37,10.16-24.87,15.01-44.57,24.32-48.87,24.06-5.18-.3-12.18-6.55-23.45-26.65-11.27-20.1-26.03-65.24-33.94-89.29"/>
    <path class="uuid-68e5873a-adbe-42b1-9b2c-fa6adace68c9" d="M179.07,705.12c-.68-2.21-1.33-4.36-1.94-6.42l-1.16-.9-13.65.81-28.05,6.44c1.57,4.6,3.22,9.32,4.9,14.05,2.55-2.76,8.81-8.58,18.26-11.33,11.71-3.4,20.42-2.77,21.64-2.66Z"/>
    <polygon class="uuid-dc0b3739-f6fd-416d-9d6c-f022e0c929f5" points="507.12 662.26 387.49 662.26 366.01 760.92 485.64 760.92 510.15 664.8 507.12 662.26"/>
    <polygon class="uuid-08452dfd-aec0-4505-8ebf-c52e081cdc0b" points="510.15 664.8 489.23 760.92 369.61 760.92 390.53 664.8 510.15 664.8"/>
    <path class="uuid-6490b837-f39f-4f30-808d-bf0cc9cb44b8" d="M150.57,607.23c-20.99,6.68-29.24,11.13-32.35,29.77-3.11,18.64,2.84,35.53,6.77,56.2,2.78,14.64,3.9,24.24,3.9,24.24,0,0,1.04-4.49,8.63-8.28,7.59-3.8,22.91-6.15,33.96-5.8,11.04.35,12,3.87,12,3.87,0,0-14.27-38.77-12.68-60.12"/>
    <polygon class="uuid-f65f1c4e-fdc0-479f-8db7-ed23efe4a781" points="590.25 817.33 496.65 817.33 455.15 711.8 458.81 708.4 547.42 708.4 590.25 817.33"/>
    <polygon class="uuid-dc0b3739-f6fd-416d-9d6c-f022e0c929f5" points="595.25 817.33 501.65 817.33 458.81 708.4 552.41 708.4 595.25 817.33"/>
    <path class="uuid-053028e6-1b78-4e54-9be5-90f0034921b6" d="M551.05,710.4l41.26,104.93h-89.3l-41.26-104.93h89.3M552.41,708.4h-93.6l42.84,108.93h93.6l-42.84-108.93h0Z"/>
    <path class="uuid-ec179813-26df-4391-ae16-afc3f7ce05c2" d="M654.29,785.63c-9.14-5.09-10.1-8.49-12.35-12.19-2.25-3.7-10.7-16.91-11.89-18.23s-2.77-1.85-5.61-1.45c-2.84.4-26.49,4.76-28.47,5.42-1.98.66-11.23,7.92-12.81,9.38s-6.34,10.3-8.32,12.02c-1.98,1.72-.66,4.09.92,4.36,0,0-.26,3.96-.53,5.55s.92,3.3,2.11,3.3,3.06-1.32,4.17-5.55c0,0,.45-2.38.72-3.96,0,0,2.53-1.17,4.04-2.3,0,0,.58,4.15.58,5.47s.4,2.75,1.59,2.91,2.64-.13,3.57-2.11c.92-1.98.92-5.15.92-5.15,0,0,3.3-1.85,4.89-3.43s2.53-3.17,2.53-3.17c0,0,3.02,0,4.34-.13s3.57,1.59,5.15,4.09,8.59,15.06,15.98,17.57c7.4,2.51,8.37,1.82,14.2,5.72"/>
    <ellipse class="uuid-dc0b3739-f6fd-416d-9d6c-f022e0c929f5" cx="208.27" cy="526.33" rx="3.06" ry="4.21" transform="translate(-74.46 35.96) rotate(-8.38)"/>
    <polygon class="uuid-08452dfd-aec0-4505-8ebf-c52e081cdc0b" points="515.71 779.89 501.57 779.89 509.15 799.15 523.29 799.15 515.71 779.89"/>
    <polygon class="uuid-9e1e7313-b744-49fa-a26c-a5d40df7cb2c" points="531.28 756.09 517.13 756.09 534.07 799.15 548.22 799.15 531.28 756.09"/>
    <polygon class="uuid-6490b837-f39f-4f30-808d-bf0cc9cb44b8" points="548.18 735.69 534.03 735.69 559 799.15 573.14 799.15 548.18 735.69"/>
    <polygon class="uuid-6490b837-f39f-4f30-808d-bf0cc9cb44b8" points="500.28 720.11 472.33 720.11 475.73 728.73 503.67 728.73 500.28 720.11"/>
    <path class="uuid-09437b3b-89ee-4a15-9d7e-578b80afe076" d="M793.7,579.98c-1.15-.75-2.92.01-4.58,1.02-1.66,1.01-5.49,4.71-5.49,4.71,0,0-3.22-1.34-3.51-2.45-.3-1.11-.44-7.85-1.7-11.18"/>
    <path class="uuid-09437b3b-89ee-4a15-9d7e-578b80afe076" d="M791.37,577.48s2.67,1.55,4.07,5.26"/>
    <path class="uuid-09437b3b-89ee-4a15-9d7e-578b80afe076" d="M777.16,576.23c-4.02.85-6.71,2.07-8.05,1.71s-4.76-1.46-3.29-5.37c1.46-3.9,6.22-10.61,8.17-15.49,1.95-4.88,2.45-7.67,2.45-7.67"/>
    <polygon class="uuid-dc0b3739-f6fd-416d-9d6c-f022e0c929f5" points="387.49 662.26 390.53 664.8 369.61 760.92 366.01 760.92 387.49 662.26"/>
    <g>
      <path class="uuid-68e5873a-adbe-42b1-9b2c-fa6adace68c9" d="M261.86,570.39s-.69.29-1.6,3.85c-1.25,4.95-8.25,4.56-12.72-3.23-3.96-6.93-5.96-9.08-5.97-9.05.49.38.97.76,1.46,1.14,0-.02,2.66,1.65,7.06,5.11,4.42,3.42,7.07,2.33,7.97,2.27.91-.1,2.26-.14,5.21-.06"/>
      <path class="uuid-f65f1c4e-fdc0-479f-8db7-ed23efe4a781" d="M262.59,572.3s-1.45,1.26-6.42-.13c-5.47-1.57-10.14-5.48-13.84-8.65-2.05-1.76-2.13-3.53-2.13-3.52,0,0,1.08,1.76,2.4,2.52,6.9,4.14,16.35,6.22,18.8,6.5,3.08.45,3.84.36,4.05.66,0,0-2.01,2.17-2.87,2.62Z"/>
    </g>
    <path class="uuid-53832fae-5700-4172-8a00-e8d5cecfac47" d="M238.87,563.2s.72-3.51,2.64-4.06"/>
    <g>
      <path class="uuid-dc0b3739-f6fd-416d-9d6c-f022e0c929f5" d="M205.19,526.33s-.01,2.1.69,4.52c.7,2.42,4.98,9.65,4.98,9.65l1.96-.94s-1.32-2.28-2.53-4.79c-1.11-2.29-2.13-4.81-2.02-5.14"/>
      <ellipse class="uuid-dc0b3739-f6fd-416d-9d6c-f022e0c929f5" cx="211.84" cy="540.03" rx="1.09" ry=".31" transform="translate(-212.45 144.45) rotate(-25.59)"/>
    </g>
    <g class="uuid-4ba1c344-720d-4afd-a9be-cb33ff45cfc2">
      <path class="uuid-a812f147-61ea-471a-983b-659a72b651fa" d="M135.65,612.73s-14.09,5.23-12.83,26.27c1.27,21.23,10.91,40.61,15.84,73.86,4.95,33.37-22.15,13.88-22.15,13.88l-11.15-78.28,12-22.73,11.53-14.73,15.6-9.68"/>
    </g>
    <path class="uuid-6490b837-f39f-4f30-808d-bf0cc9cb44b8" d="M172.28,666.49c-1.23-8.83,1.45-14.43,1.45-14.43,0,0-2.41-4.18-4.43-3.93s-2.28,11.78-2.28,11.78"/>
  </g>
</svg>