<?xml version="1.0" encoding="UTF-8"?>
<svg id="uuid-da624e61-33d9-4ae9-8b86-8143d68c00d2" data-name="Layer 1" xmlns="http://www.w3.org/2000/svg" xmlns:xlink="http://www.w3.org/1999/xlink" viewBox="0 0 1080 1080">
  <title>Trusted software supply chain</title>
<metadata><?xpacket begin="﻿" id="W5M0MpCehiHzreSzNTczkc9d"?>
<x:xmpmeta xmlns:x="adobe:ns:meta/" x:xmptk="Adobe XMP Core 8.0-c001 1.000000, 0000/00/00-00:00:00        ">
   <rdf:RDF xmlns:rdf="http://www.w3.org/1999/02/22-rdf-syntax-ns#">
      <rdf:Description rdf:about=""
            xmlns:xmp="http://ns.adobe.com/xap/1.0/"
            xmlns:tiff="http://ns.adobe.com/tiff/1.0/"
            xmlns:dc="http://purl.org/dc/elements/1.1/">
         <xmp:rhcc-effective-on>2024-07-08T13:54:28.118Z</xmp:rhcc-effective-on>
         <xmp:rhcc-rights-restricted>no</xmp:rhcc-rights-restricted>
         <xmp:brand-content-subtype>Illustration</xmp:brand-content-subtype>
         <xmp:rhcc-metadata-complete-moderator>pending</xmp:rhcc-metadata-complete-moderator>
         <xmp:rhcc-translation-id>TRAc5cc6599-e984-451f-a064-5f387bc12e68</xmp:rhcc-translation-id>
         <xmp:brand-content-type>Illustration</xmp:brand-content-type>
         <xmp:CreateDate>2024-07-08T13:54:28.118Z</xmp:CreateDate>
         <xmp:rhcc-aspect-ratio>square</xmp:rhcc-aspect-ratio>
         <xmp:rhcc-derivative-id>DERc5cc6599-e984-451f-a064-5f387bc12e68</xmp:rhcc-derivative-id>
         <xmp:rhcc-effective-on-set-on-upload>true</xmp:rhcc-effective-on-set-on-upload>
         <xmp:rhcc-uploaded-by>sfoltz@redhat.com</xmp:rhcc-uploaded-by>
         <xmp:rhcc-metadata-complete-uploader>pending</xmp:rhcc-metadata-complete-uploader>
         <xmp:rhcc-file-last-modified>2024-07-13T00:26:51.260Z</xmp:rhcc-file-last-modified>
         <xmp:rhcc-audience>rhcc-audience:internal</xmp:rhcc-audience>
         <xmp:rhcc-notify-portal-subscribers-on-change>yes</xmp:rhcc-notify-portal-subscribers-on-change>
         <xmp:brand-colorway>
            <rdf:Bag>
               <rdf:li>colorway:black</rdf:li>
               <rdf:li>colorway:red</rdf:li>
            </rdf:Bag>
         </xmp:brand-colorway>
         <tiff:ImageLength>1080</tiff:ImageLength>
         <tiff:ImageWidth>1080</tiff:ImageWidth>
         <dc:format>image/svg+xml</dc:format>
         <dc:modified>2024-07-08T13:56:41.013Z</dc:modified>
         <dc:title>
            <rdf:Alt>
               <rdf:li xml:lang="x-default">Trusted software supply chain</rdf:li>
            </rdf:Alt>
         </dc:title>
      </rdf:Description>
   </rdf:RDF>
</x:xmpmeta>
                                                                                                    
                                                                                                    
                                                                                                    
                                                                                                    
                                                                                                    
                                                                                                    
                                                                                                    
                                                                                                    
                                                                                                    
                                                                                                    
                                                                                                    
                                                                                                    
                                                                                                    
                                                                                                    
                                                                                                    
                                                                                                    
                                                                                                    
                                        
<?xpacket end="w"?></metadata>
<defs>
    <style>
      .uuid-6f6882ea-2fc1-4764-9069-40fed7fafcaf, .uuid-3ea7ff8e-1f80-44c9-b61e-37a6c7d861c7, .uuid-f3132042-b11f-4d08-b585-88642675c847, .uuid-199e7628-24c1-4fc7-a8eb-185c482dd2de {
        stroke: var(--konflux-brand-orange, #fc783d);
        stroke-linecap: round;
        stroke-linejoin: round;
      }

      .uuid-6f6882ea-2fc1-4764-9069-40fed7fafcaf, .uuid-d244d3d0-ae40-403d-baec-0031c871898c, .uuid-50c55dc4-cb47-47a5-9a93-5e4e672bd755 {
        fill: #fff;
      }

      .uuid-3ea7ff8e-1f80-44c9-b61e-37a6c7d861c7, .uuid-c22f1071-c4f8-427c-92c3-1fba378f16ba, .uuid-f3132042-b11f-4d08-b585-88642675c847, .uuid-199e7628-24c1-4fc7-a8eb-185c482dd2de {
        fill: none;
      }

      .uuid-c22f1071-c4f8-427c-92c3-1fba378f16ba, .uuid-bb03f893-9712-44c5-99ba-1a49dec5e0f2, .uuid-ccc9a5b6-f18d-4729-8579-2fd9f78ac30a, .uuid-c47f9faf-632c-47dd-a422-3b658c1bad40, .uuid-8388aebb-2065-4af3-879c-a0dd3cf565ec, .uuid-7f39e8d9-0a4a-4104-8744-9bb5384ea2d5, .uuid-3a743d51-2c7f-4589-977b-d8e36a78905c, .uuid-edcda425-8a86-4e42-9fd7-392e42e8554c, .uuid-68de6b59-44c4-466b-8b91-c9f48ac04aa2, .uuid-4f3e7f9b-4f15-4d8b-97cf-bb70581b5b01, .uuid-bbc0e063-0f63-4f24-8b09-03ebe6931a74, .uuid-6b610377-9083-4f4f-b62e-61e710f1e751, .uuid-307a6395-862d-4cc2-9290-10ca871f5b99, .uuid-dcf6f7d1-acef-40c1-9988-2ad95171b891, .uuid-50c55dc4-cb47-47a5-9a93-5e4e672bd755, .uuid-e2de1b83-995d-465c-83ad-82af3172eaaf, .uuid-8edf77e4-ca28-492e-8908-c75c319aacb5, .uuid-e0b50074-b511-4adb-9051-3853dcbdec1c {
        stroke-width: 0px;
      }

      .uuid-aeaf75a4-87df-4963-844e-7371fbb5eb43 {
        clip-path: url(#uuid-572c6f0f-4fda-4c53-b2e2-d38a09d61f85);
      }

      .uuid-d244d3d0-ae40-403d-baec-0031c871898c {
        stroke: var(--konflux-illustration-accent, #b9dafc);
        stroke-miterlimit: 10;
      }

      .uuid-f3132042-b11f-4d08-b585-88642675c847 {
        stroke-dasharray: 0 0 17.48 13.11;
      }

      .uuid-dce8f35d-2978-46c1-939e-b7c0657be9fd {
        clip-path: url(#uuid-29c93ccf-e390-4ebe-97e1-878417f7c880);
      }

      .uuid-f3915ac1-9968-411c-8588-c44ec0d911c7 {
        clip-path: url(#uuid-fe92c640-4ebe-43bb-b82f-d9c49ecad421);
      }

      .uuid-199e7628-24c1-4fc7-a8eb-185c482dd2de {
        stroke-dasharray: 0 0 17.81 13.35;
      }

      .uuid-ccc9a5b6-f18d-4729-8579-2fd9f78ac30a {
        fill: #f7c8bb;
      }

      .uuid-c47f9faf-632c-47dd-a422-3b658c1bad40 {
        fill: #5f0000;
      }

      .uuid-8388aebb-2065-4af3-879c-a0dd3cf565ec {
        fill: var(--konflux-illustration-primary-dark, #21134d);
      }

      .uuid-7f39e8d9-0a4a-4104-8744-9bb5384ea2d5 {
        fill: #724335;
      }

      .uuid-3a743d51-2c7f-4589-977b-d8e36a78905c {
        fill: var(--konflux-illustration-primary, #92c5f9);
      }

      .uuid-edcda425-8a86-4e42-9fd7-392e42e8554c {
        fill: #40251d;
      }

      .uuid-68de6b59-44c4-466b-8b91-c9f48ac04aa2 {
        fill: var(--konflux-illustration-background, #e0f0ff);
      }

      .uuid-4f3e7f9b-4f15-4d8b-97cf-bb70581b5b01 {
        fill: var(--konflux-illustration-background, #e0f0ff);
      }

      .uuid-bbc0e063-0f63-4f24-8b09-03ebe6931a74 {
        fill: #a66552;
      }

      .uuid-6b610377-9083-4f4f-b62e-61e710f1e751 {
        fill: #ce8873;
      }

      .uuid-307a6395-862d-4cc2-9290-10ca871f5b99 {
        fill: var(--konflux-brand-orange, #fc783d);
      }

      .uuid-dcf6f7d1-acef-40c1-9988-2ad95171b891 {
        fill: var(--konflux-illustration-primary, #92c5f9);
      }

      .uuid-e2de1b83-995d-465c-83ad-82af3172eaaf {
        fill: var(--konflux-brand-orange, #fc783d);
      }

      .uuid-8edf77e4-ca28-492e-8908-c75c319aacb5 {
        fill: #e8a997;
      }

      .uuid-e0b50074-b511-4adb-9051-3853dcbdec1c {
        fill: var(--konflux-brand-orange, #fc783d);
      }

      .uuid-5c8c714b-1d7a-44af-9af7-10301ec2ae33 {
        clip-path: url(#uuid-934067fc-268c-469c-aada-10029017b5ba);
      }

      .uuid-aa130f6b-2fbb-48f3-993b-7bfb8561ddeb {
        clip-path: url(#uuid-1a100fef-dad1-4bb2-9c8e-f2a63935645e);
      }
    </style>
    <clipPath id="uuid-1a100fef-dad1-4bb2-9c8e-f2a63935645e">
      <path class="uuid-c22f1071-c4f8-427c-92c3-1fba378f16ba" d="M658.19,681.26c.67-.03,1.33.21,1.87.62l14.82,11c.06.05.13.08.21.08.46-.02,2.12-.06,3.48.66.23.12.5-.08.46-.34l-.33-1.94c-.14-.81-.42-1.59-.84-2.3-1.19-1.98-2.8-5.98-.79-9.16,0,0,1.83-3.04,3.93,2.55.09.24.19.49.29.73l1.89,4.34c.36.83.86,1.58,1.5,2.22,3.72,3.77,4.85,10.26,5.2,13.82.16,1.65,1.03,3.14,2.39,4.1l20.8,14.66s-1.56,11.51-13.67,14.62l-10.76-9.33c-4.11-3.57-8.74-6.49-13.73-8.66,0,0-8.66-3.73-11.47-7.11-.5-.6-1.14-1.07-1.89-1.32l-.89-.3c-1.01-.34-1.86-1.05-2.38-1.99l-2.61-4.71c-.51-.91,0-2.07,1.03-2.28.02,0,.03,0,.05,0l-3.69-6.25c-.18-.31-.34-.65-.42-1-.11-.45-.11-.86.11-1.27.15-.28.39-.44.71-.54.58-.18,1.01-.09,1.42.27,1.69,1.49,2.49,3.15,4.21,4.25.84.54,1.84,1.25,2.61,2.01,0,0-2.03-3.48-6.39-5.97,0,0-.35-.2-.85-.62l-.08-.07c-.77-.66-1.43-1.42-1.98-2.27-.01-.02-.03-.05-.04-.07-.07-.12-.15-.24-.22-.36-.08-.15-.16-.29-.24-.45,0,0,0,0,0,0h0s-.03-.05-.05-.07c-.32-.5-.31-1.06-.09-1.51.42-.87,1.57-1.1,2.36-.54l10.04,7.08s.06.05.1.06l1.12.22c.18.04.3-.19.17-.31l-8.84-9.25c-.17-.18-.33-.37-.45-.59-.43-.79-.39-1.7.65-2.31.4-.24.85-.36,1.31-.38ZM661.01,704.76l2.71,1.46-4.42-4.09s.2.26.25.64c.13.85.7,1.58,1.46,1.99Z"/>
    </clipPath>
    <clipPath id="uuid-fe92c640-4ebe-43bb-b82f-d9c49ecad421">
      <path class="uuid-c22f1071-c4f8-427c-92c3-1fba378f16ba" d="M812.43,591.62c.02.26-.27.43-.49.29l-1.65-1.07c-.69-.45-1.3-1.01-1.78-1.67-1.36-1.87-4.41-4.92-8.12-4.31,0,0-3.51.49.81,4.61.19.18.38.36.56.55l3.26,3.44c.62.65,1.12,1.41,1.46,2.25,2.01,4.9,7.54,8.48,10.68,10.2,1.46.79,2.49,2.18,2.84,3.8l5.33,24.88s11.21,3.07,18.81-6.85l-4.37-13.56c-1.67-5.18-7.95-7.27-8-12.72l-.92-24.7c-.64-.82-1.91-.81-2.5.05,0,.01-.34-2.34-.35-2.32l-4.3-5.84c-.22-.29-.46-.56-.76-.78-.37-.28-.75-.44-1.21-.39-.31.03-.56.18-.78.44-.39.46-.48.89-.31,1.41.71,2.14,1.92,3.53,2.26,5.54.17.98.43,2.18.83,3.19,0,0-2.4-3.23-2.99-8.22,0,0-.05-.4-.23-1.02l-.03-.1c-.3-.96-.75-1.88-1.32-2.71-.02-.02-.03-.05-.05-.07-.08-.12-.16-.23-.25-.34-.1-.13-.21-.27-.32-.4,0,0,0,0,0,0h0s-.03-.05-.05-.07c-.34-.49-.85-.7-1.35-.68-.97.04-1.63,1.01-1.42,1.96l2.58,12.01s.02.08.01.12l-.23,1.12c-.04.18-.29.2-.35.03l-5.05-11.76c-.1-.23-.21-.45-.37-.64-.56-.7-1.41-1.02-2.38-.31-.37.28-.66.64-.86,1.05-.29.61-.32,1.31-.17,1.96l4.32,17.94-.77,3.69Z"/>
    </clipPath>
    <clipPath id="uuid-572c6f0f-4fda-4c53-b2e2-d38a09d61f85">
      <path class="uuid-c22f1071-c4f8-427c-92c3-1fba378f16ba" d="M992.96,679.31c-6.08-48-31.19-91.33-42.21-138.31-6.19-25.28-8.11-51.14-6.24-77.29,2.11-34.51,10.32-71.62,6.17-105.57-8.49-74.76-82.45-82.81-145.88-78.19-36.08,2.6-71.8,9.36-107.35,15.58-32.82,5.77-65.69,11.11-98.96,13.16-36.41,2.38-72.89.39-109.05-3.7-66.77-8.24-136.63-17.55-201.62,4.76-89.68,28.94-157.81,110.06-169.75,203.61-12.76,87.87,24.86,180.4,96,233.58,41.22,31.46,91.51,50.43,141.43,63.91,116.03,32.26,237.46,28.93,356.87,28.1,29.2-.33,58.47-.69,87.62-2.51,47.26-3.06,96.57-10.16,136.79-35.63,42.95-26.89,63.05-71.14,56.22-121.31l-.02-.19Z"/>
    </clipPath>
    <clipPath id="uuid-29c93ccf-e390-4ebe-97e1-878417f7c880">
      <path class="uuid-c22f1071-c4f8-427c-92c3-1fba378f16ba" d="M270.5,593.82l-3.66,3.44c-.87.82-1.74,1.63-2.63,2.42-1.53,1.35-9.11,5.6-9.44,14.97,0,0-3.04,1.89-12.65-6.51,0,0,13.97-27.86,15.84-38.45.07-.42.29-.81.64-1.06s.98-.29,1.27.56c.11.31.12.65.08.98l-.78,6.45,5.88-8.97c.39-.6,1.33-.44,1.48.26.14.66.03,1.84-.72,3.92,0,0,3.4-3.93,5.15-3.57.31.07.51.37.47.69-.03.27-.13.54-.41,1.03s-.62.99-.98,1.46c-1.45,1.86-6.18,8.04-6.29,9.39,0,0,10.07-8.65,13.21-8.09.31.06.54.31.55.62.01.35-.11.74-.63,1.41-.39.5-.84.94-1.33,1.34-1.88,1.51-8.11,6.56-9.28,8.07,0,0-4.4,6.44-.16,6.84,0,0,1.36.1,3.08-1.91,0,0,3.05-3.67,5.47-4.55,1.08-.39,2.03.83,1.41,1.8l-5.57,7.43Z"/>
    </clipPath>
    <clipPath id="uuid-934067fc-268c-469c-aada-10029017b5ba">
      <path class="uuid-c22f1071-c4f8-427c-92c3-1fba378f16ba" d="M384.51,705.45c1.08-.31,2.05-.91,2.81-1.73l3.01-3.27c.57-.62,1.44-3.28.67-3.64-.01,0-1.62,1.47-1.63,1.46,0,0,5.01-4.47,5.14-4.7.2-.36.29-.7.19-1.1-.06-.25-.22-.42-.46-.56-.42-.25-.78-.26-1.17-.06-1.62.86-2.57,2.01-4.14,2.56-.76.26-1.69.64-2.45,1.09,0,0,2.27-2.36,6.18-3.5,0,0,.31-.09.79-.33l.07-.04c.73-.37,1.4-.85,1.99-1.42.02-.02.03-.03.05-.05.08-.08.16-.16.24-.24.09-.1.19-.2.28-.31,0,0,0,0,0,0h0s.03-.03.05-.05c.35-.34.45-.78.36-1.17-.16-.77-1.03-1.17-1.76-.88l-10.29,3.67h0c-.15,0-.2-.2-.07-.28l11.53-6.67c.17-.11.33-.23.47-.38.49-.54.63-1.27-.07-1.95-.27-.26-.6-.45-.96-.55-.53-.15-1.09-.08-1.59.13l-2.21,1.19c-4.16,2.25-8.53,4.09-13.04,5.5l-5.47,1.71c-.33.13.69-1.77.78-1.97l.65-1.5c.27-.62.66-1.18,1.13-1.67,1.32-1.36,3.3-4.18,2.32-7.04,0,0-.86-2.75-3.58,1.26-.12.18-.24.35-.37.52l-2.37,3.14c-.25.33-.55.61-.87.86-3.84,2.9-4.55,6.03-7.65,10.83-.69,1.07-2.21,2.33-3.4,2.8l-18.26,7.23s-.96,9.39,8.01,14.15l10.28-5.32c3.93-2.03,8.14-3.46,12.5-4.22l12.33-3.52Z"/>
    </clipPath>
  </defs>
  <path class="uuid-4f3e7f9b-4f15-4d8b-97cf-bb70581b5b01" d="M992.96,679.31c-6.08-48-31.19-91.33-42.21-138.31-6.19-25.28-8.11-51.14-6.24-77.29,2.11-34.51,10.32-71.62,6.17-105.57-8.49-74.76-82.45-82.81-145.88-78.19-36.08,2.6-71.8,9.36-107.35,15.58-32.82,5.77-65.69,11.11-98.96,13.16-36.41,2.38-72.89.39-109.05-3.7-66.77-8.24-136.63-17.55-201.62,4.76-89.68,28.94-157.81,110.06-169.75,203.61-12.76,87.87,24.86,180.4,96,233.58,41.22,31.46,91.51,50.43,141.43,63.91,116.03,32.26,237.46,28.93,356.87,28.1,29.2-.33,58.47-.69,87.62-2.51,47.26-3.06,96.57-10.16,136.79-35.63,42.95-26.89,63.05-71.14,56.22-121.31l-.02-.19Z"/>
  <path class="uuid-e2de1b83-995d-465c-83ad-82af3172eaaf" d="M410.13,871.32c.03-.11.03-.22-.02-.32"/>
  <rect class="uuid-c47f9faf-632c-47dd-a422-3b658c1bad40" x="408.13" y="767.48" width="106.59" height="110.34"/>
  <g>
    <rect class="uuid-6f6882ea-2fc1-4764-9069-40fed7fafcaf" x="415.28" y="761.43" width="106.59" height="36.78"/>
    <rect class="uuid-6f6882ea-2fc1-4764-9069-40fed7fafcaf" x="415.28" y="798.2" width="106.59" height="36.78"/>
    <rect class="uuid-6f6882ea-2fc1-4764-9069-40fed7fafcaf" x="415.28" y="834.98" width="106.59" height="36.78"/>
    <g>
      <g>
        <rect class="uuid-e2de1b83-995d-465c-83ad-82af3172eaaf" x="426.7" y="777.17" width="58.52" height="6.74"/>
        <circle class="uuid-e2de1b83-995d-465c-83ad-82af3172eaaf" cx="506.65" cy="780.54" r="3.37"/>
      </g>
      <g>
        <rect class="uuid-e2de1b83-995d-465c-83ad-82af3172eaaf" x="426.7" y="850" width="58.52" height="6.74"/>
        <circle class="uuid-e2de1b83-995d-465c-83ad-82af3172eaaf" cx="506.65" cy="853.37" r="3.37"/>
      </g>
      <circle class="uuid-e2de1b83-995d-465c-83ad-82af3172eaaf" cx="506.65" cy="816.68" r="3.37"/>
      <g>
        <rect class="uuid-e2de1b83-995d-465c-83ad-82af3172eaaf" x="420.16" y="813.22" width="19.82" height="6.74" transform="translate(-386.52 1246.66) rotate(-90)"/>
        <rect class="uuid-e2de1b83-995d-465c-83ad-82af3172eaaf" x="432.63" y="813.22" width="19.82" height="6.74" transform="translate(-374.06 1259.13) rotate(-90)"/>
      </g>
    </g>
  </g>
  <rect class="uuid-c47f9faf-632c-47dd-a422-3b658c1bad40" x="540.2" y="767.48" width="106.59" height="110.34"/>
  <g>
    <rect class="uuid-6f6882ea-2fc1-4764-9069-40fed7fafcaf" x="547.36" y="834.98" width="106.59" height="36.78"/>
    <rect class="uuid-6f6882ea-2fc1-4764-9069-40fed7fafcaf" x="547.36" y="761.38" width="106.59" height="36.78"/>
    <rect class="uuid-6f6882ea-2fc1-4764-9069-40fed7fafcaf" x="547.36" y="798.15" width="106.59" height="36.78"/>
    <g>
      <rect class="uuid-e2de1b83-995d-465c-83ad-82af3172eaaf" x="558.78" y="850.73" width="58.52" height="6.74"/>
      <circle class="uuid-e2de1b83-995d-465c-83ad-82af3172eaaf" cx="638.72" cy="854.09" r="3.37"/>
    </g>
    <g>
      <rect class="uuid-e2de1b83-995d-465c-83ad-82af3172eaaf" x="558.78" y="813.17" width="58.52" height="6.74"/>
      <circle class="uuid-e2de1b83-995d-465c-83ad-82af3172eaaf" cx="638.72" cy="816.54" r="3.37"/>
    </g>
    <circle class="uuid-e2de1b83-995d-465c-83ad-82af3172eaaf" cx="638.72" cy="779.85" r="3.37"/>
    <g>
      <rect class="uuid-e2de1b83-995d-465c-83ad-82af3172eaaf" x="552.23" y="776.4" width="19.82" height="6.74" transform="translate(-217.62 1341.91) rotate(-90)"/>
      <rect class="uuid-e2de1b83-995d-465c-83ad-82af3172eaaf" x="564.7" y="776.4" width="19.82" height="6.74" transform="translate(-205.16 1354.37) rotate(-90)"/>
    </g>
  </g>
  <g>
    <polyline class="uuid-3ea7ff8e-1f80-44c9-b61e-37a6c7d861c7" points="661.58 868.63 661.58 877.26 652.95 877.26"/>
    <line class="uuid-f3132042-b11f-4d08-b585-88642675c847" x1="639.84" y1="877.26" x2="554.6" y2="877.26"/>
    <polyline class="uuid-3ea7ff8e-1f80-44c9-b61e-37a6c7d861c7" points="548.05 877.26 539.42 877.26 539.42 868.63"/>
    <line class="uuid-199e7628-24c1-4fc7-a8eb-185c482dd2de" x1="539.42" y1="855.28" x2="539.42" y2="768.47"/>
    <polyline class="uuid-3ea7ff8e-1f80-44c9-b61e-37a6c7d861c7" points="539.42 761.8 539.42 753.17 548.05 753.17"/>
    <line class="uuid-f3132042-b11f-4d08-b585-88642675c847" x1="561.16" y1="753.17" x2="646.39" y2="753.17"/>
    <polyline class="uuid-3ea7ff8e-1f80-44c9-b61e-37a6c7d861c7" points="652.95 753.17 661.58 753.17 661.58 761.8"/>
    <line class="uuid-199e7628-24c1-4fc7-a8eb-185c482dd2de" x1="661.58" y1="775.15" x2="661.58" y2="861.96"/>
  </g>
  <g id="uuid-11ebcc00-4323-4742-8560-779877977a44" data-name="trusted content">
    <g id="uuid-def3cb4e-f758-41d9-9f0e-0d0204ed4bfa" data-name="a">
      <rect class="uuid-50c55dc4-cb47-47a5-9a93-5e4e672bd755" x="278.26" y="265.91" width="139.3" height="139.3" rx="34.82" ry="34.82"/>
      <path class="uuid-68de6b59-44c4-466b-8b91-c9f48ac04aa2" d="M382.73,270.75c16.54,0,29.99,13.45,29.99,29.99v69.65c0,16.54-13.45,29.99-29.99,29.99h-69.65c-16.54,0-29.99-13.45-29.99-29.99v-69.65c0-16.54,13.45-29.99,29.99-29.99h69.65M382.73,265.91h-69.65c-19.23,0-34.82,15.59-34.82,34.82v69.65c0,19.23,15.59,34.82,34.82,34.82h69.65c19.23,0,34.82-15.59,34.82-34.82v-69.65c0-19.23-15.59-34.82-34.82-34.82h0Z"/>
    </g>
    <g id="uuid-31675ae7-943f-468f-aa40-05abefef85d6" data-name="b">
      <path class="uuid-e0b50074-b511-4adb-9051-3853dcbdec1c" d="M384.45,368.67l-18.64-18.64c2.76-2.69,4.94-6.01,6.28-9.8.45-1.26-.22-2.64-1.47-3.09-1.25-.45-2.64.21-3.08,1.48-2.93,8.29-10.81,13.86-19.61,13.86-11.47,0-20.8-9.33-20.8-20.8s9.33-20.8,20.8-20.8c1.33,0,2.42-1.08,2.42-2.42s-1.08-2.42-2.42-2.42c-14.14,0-25.63,11.5-25.63,25.63s11.5,25.63,25.63,25.63c5.13,0,9.97-1.58,14.07-4.27l19.04,19.04c.47.47,1.09.71,1.71.71s1.24-.24,1.71-.71c.94-.94.94-2.47,0-3.42h0Z"/>
      <path class="uuid-bb03f893-9712-44c5-99ba-1a49dec5e0f2" d="M353.49,368.67l-7.74-7.74c-.94-.94-2.48-.94-3.42,0-.94.94-.94,2.47,0,3.42l3.51,3.51c-19.03-1.08-34.2-16.87-34.2-36.17s16.27-36.28,36.28-36.28c1.33,0,2.42-1.08,2.42-2.42s-1.08-2.42-2.42-2.42c-22.67,0-41.11,18.44-41.11,41.11s17.44,40.03,39.24,41.02l-3.71,3.71c-.94.94-.94,2.47,0,3.42.47.47,1.09.71,1.71.71s1.24-.24,1.71-.71l7.74-7.74c.94-.94.94-2.47,0-3.42h0Z"/>
      <path class="uuid-bb03f893-9712-44c5-99ba-1a49dec5e0f2" d="M373.06,330.24c-8.8,0-15.96-7.16-15.96-15.96v-15.59c0-1.14.8-2.13,1.92-2.37l13.54-2.88c.33-.07.67-.07,1.01,0l13.54,2.88c1.12.24,1.92,1.22,1.92,2.37v15.59c0,8.8-7.16,15.96-15.96,15.96ZM361.94,300.64v13.63c0,6.13,4.99,11.12,11.12,11.12s11.12-4.99,11.12-11.12v-13.63l-11.12-2.36-11.12,2.36Z"/>
      <path class="uuid-e0b50074-b511-4adb-9051-3853dcbdec1c" d="M371.13,317.57c-.62,0-1.24-.24-1.71-.71l-3.87-3.87c-.94-.94-.94-2.47,0-3.42.94-.94,2.48-.94,3.42,0l2.16,2.16,6.03-6.03c.94-.94,2.48-.94,3.42,0,.94.94.94,2.47,0,3.42l-7.74,7.74c-.47.47-1.09.71-1.71.71Z"/>
    </g>
  </g>
  <g id="uuid-21581a0e-7a4e-4aab-b712-016336de8b6b" data-name="Red Hat Trusted Application Pipeline">
    <g id="uuid-7c34214b-0afd-4d84-a163-cd8ca5ff5d90" data-name="a">
      <g>
        <rect class="uuid-bb03f893-9712-44c5-99ba-1a49dec5e0f2" x="518.34" y="266.26" width="139.3" height="139.3" rx="34.82" ry="34.82"/>
        <path class="uuid-8388aebb-2065-4af3-879c-a0dd3cf565ec" d="M622.81,271.09c16.52,0,29.99,13.47,29.99,29.99v69.65c0,16.52-13.47,29.99-29.99,29.99h-69.65c-16.52,0-29.99-13.47-29.99-29.99v-69.65c0-16.52,13.47-29.99,29.99-29.99h69.65M622.81,266.26h-69.65c-19.23,0-34.82,15.59-34.82,34.82v69.65c0,19.23,15.59,34.82,34.82,34.82h69.65c19.23,0,34.82-15.59,34.82-34.82v-69.65c0-19.23-15.59-34.82-34.82-34.82h0Z"/>
      </g>
      <g>
        <path class="uuid-50c55dc4-cb47-47a5-9a93-5e4e672bd755" d="M584.12,334.74c-.5,0-1.01-.15-1.47-.5-1.04-.77-2.17-1.47-3.37-1.97-1.24-.54-1.78-1.97-1.24-3.17.54-1.24,1.97-1.78,3.17-1.24,1.55.66,3.02,1.55,4.37,2.55,1.08.81,1.28,2.32.46,3.41-.46.62-1.2.97-1.93.97v-.04Z"/>
        <path class="uuid-50c55dc4-cb47-47a5-9a93-5e4e672bd755" d="M613.33,302.94l3.33-3.33c.93-.93.93-2.48,0-3.41s-2.48-.93-3.41,0l-7.74,7.74c-.93.93-.93,2.48,0,3.41l7.74,7.74c.46.46,1.08.7,1.7.7s1.24-.23,1.7-.7c.93-.93.93-2.48,0-3.41l-3.83-3.83c8.55.81,15.32,7.97,15.32,16.75,0,9.33-7.58,16.95-16.95,16.95-3.71,0-7.2-1.16-10.14-3.37-1.08-.81-2.59-.58-3.41.46-.81,1.08-.58,2.59.46,3.41,3.79,2.86,8.32,4.37,13.08,4.37,11.99,0,21.75-9.75,21.75-21.75,0-11.3-8.63-20.58-19.66-21.67l.04-.08Z"/>
        <path class="uuid-e0b50074-b511-4adb-9051-3853dcbdec1c" d="M601.53,307.66c-.81-1.08-2.32-1.28-3.41-.46-5.53,4.14-8.71,10.49-8.71,17.41v23.22c0,9.33-7.58,16.95-16.95,16.95-3.6,0-7-1.16-9.87-3.21h6c1.32,0,2.4-1.08,2.4-2.4s-1.08-2.4-2.4-2.4h-11.61c-1.32,0-2.4,1.08-2.4,2.4v11.61c0,1.32,1.08,2.4,2.4,2.4s2.4-1.08,2.4-2.4v-5.53c3.71,2.82,8.28,4.37,13.08,4.37,11.99,0,21.75-9.75,21.75-21.75v-23.22c0-5.38,2.48-10.33,6.77-13.54,1.08-.81,1.28-2.32.46-3.41l.08-.04Z"/>
        <path class="uuid-e0b50074-b511-4adb-9051-3853dcbdec1c" d="M558.97,351.65c-8.78,0-15.94-7.16-15.94-15.94v-15.59c0-1.12.81-2.13,1.93-2.36l13.54-2.86c.35-.08.66-.08,1.01,0l13.54,2.86c1.12.23,1.93,1.24,1.93,2.36v15.59c0,8.78-7.16,15.94-15.94,15.94h-.08ZM547.82,322.05v13.62c0,6.11,4.99,11.14,11.14,11.14s11.14-4.99,11.14-11.14v-13.62l-11.14-2.36s-11.14,2.36-11.14,2.36Z"/>
        <path class="uuid-50c55dc4-cb47-47a5-9a93-5e4e672bd755" d="M557.03,339c-.62,0-1.24-.23-1.7-.7l-3.87-3.87c-.93-.93-.93-2.48,0-3.41s2.48-.93,3.41,0l2.17,2.17,6.04-6.04c.93-.93,2.48-.93,3.41,0s.93,2.48,0,3.41l-7.74,7.74c-.46.46-1.08.7-1.7.7Z"/>
      </g>
    </g>
  </g>
  <path class="uuid-d244d3d0-ae40-403d-baec-0031c871898c" d="M247.78,575.43c-14.23,0-64.03,0-80.29,0-13.34,0-55.09,0-66.21,0-11.2,0-44.72,0-54.23,0-19.22,0-34.81-15.58-34.81-34.81,0-19.22,15.58-34.81,34.81-34.81,2.99,0,5.89.38,8.66,1.09,7.27-17.31,24.11-29.6,43.91-30.25,10.48-27.27,36.91-46.64,67.88-46.64,27.84,0,52.01,15.65,64.23,38.63,5.08-1.56,10.47-2.41,16.06-2.41,30.15,0,54.6,24.44,54.6,54.6s-24.44,54.6-54.6,54.6Z"/>
  <path class="uuid-d244d3d0-ae40-403d-baec-0031c871898c" d="M974.3,502.72c-14.23,0-64.03,0-80.29,0-13.34,0-55.09,0-66.21,0-11.2,0-44.72,0-54.23,0-19.22,0-34.81-15.58-34.81-34.81,0-19.22,15.58-34.81,34.81-34.81,2.99,0,5.89.38,8.66,1.09,7.27-17.31,24.11-29.6,43.91-30.25,10.48-27.27,36.91-46.64,67.88-46.64,27.84,0,52.01,15.65,64.23,38.63,5.08-1.56,10.47-2.41,16.06-2.41,30.15,0,54.6,24.44,54.6,54.6s-24.44,54.6-54.6,54.6Z"/>
  <g>
    <path class="uuid-3a743d51-2c7f-4589-977b-d8e36a78905c" d="M821.51,498.88c-13.79-13.91-30.8-23.96-50.58-29.85-15.48-4.61-29.34-5.66-38.24-5.74-26.26-.21-51.41,6.94-76.85,21.84-13.87,8.13-28.13,17.18-67.64,54.99-18.43,17.64-42.84,41.84-70.67,71.96-56.9,48.12-92.66,64.42-115.52,64.42-.05,0-.09,0-.11,0-16.48.03-40.95-5.48-59.9-24.6-23.81-24.03-23.85-54.37-23.74-61.84.09-6.08,1.17-36.28,24.27-59.84,4.42-5.25,13.24-14.32,27.27-20.77,5.78-2.66,18.36-7.59,34.78-7.14,18.88.51,32.57,7.86,40.57,12.28,5.68,3.14,10.12,6.29,13.19,8.65h-26.57c-.8,0-1.46.65-1.46,1.46v29.98c0,.8.65,1.46,1.46,1.46h87.25c.79,0,1.44-.64,1.46-1.43l1.43-83.74c0-.39-.14-.77-.42-1.05-.27-.28-.65-.44-1.04-.44h-29.1c-.8,0-1.45.64-1.46,1.44l-.26,23.08c-6.71-5.58-16.77-12.9-30.19-19.2-8.78-4.12-28.22-13.01-54.87-13.14-5.47-.03-20.58.27-38.88,6.15-9.39,3.02-32.68,11.7-53.61,33.52-1.86,1.94-8.24,8.71-14.95,18.86-15.04,22.75-19.19,43.47-20.01,47.86-.81,4.31-2.27,16.78-1.63,32.94.5,12.49,4.89,55.63,40.65,86.54,22.03,19.04,46.51,24.17,57.42,26.39,0,0,15.51,3.15,32.23,2.64,36.16-1.09,93.68-32.88,150.07-89.63l43.8-44.8c34.06-35,76.45-78.56,129.4-78.56,8.13,0,15.77,1.39,15.77,1.39,8.41,1.58,27.87,6.62,44.24,23.21,20.79,21.07,22.99,46.98,23.56,55.07.58,8.35,2.04,35.32-16.73,59.5-15.76,20.3-40.37,31.67-62.47,31.93,0,0-.02,0-.03,0-40.45,0-81.74-36.94-89.68-44.41l-9.68-9.68c-.91-.91-2.4-.91-3.31,0l-25.88,25.88c-.9.9-.92,2.35-.04,3.26,3.16,3.28,6.48,6.56,9.95,9.82,21.3,20.06,43.36,34.83,63.73,45.79,10.35,4.47,46.26,18.46,88.54,5.37,7.5-2.32,30.72-10.36,51.97-31.97,33.2-33.77,36.57-76.41,36.82-88.68.41-20.72-3.51-60.11-34.31-91.2Z"/>
    <path class="uuid-e2de1b83-995d-465c-83ad-82af3172eaaf" d="M809.94,486.37c-13.79-13.91-30.8-23.96-50.58-29.85-15.48-4.61-29.34-5.66-38.24-5.74-26.26-.21-51.41,6.94-76.85,21.84-13.87,8.13-28.13,17.18-67.64,54.99-18.43,17.64-42.84,41.84-70.67,71.96-56.9,48.12-92.66,64.42-115.52,64.42-.05,0-.09,0-.11,0-16.48.03-40.95-5.48-59.9-24.6-23.81-24.03-23.85-54.37-23.74-61.84.09-6.08,1.17-36.28,24.27-59.84,4.42-5.25,13.24-14.32,27.27-20.77,5.78-2.66,18.36-7.59,34.78-7.14,18.88.51,32.57,7.86,40.57,12.28,5.68,3.14,10.12,6.29,13.19,8.65h-26.57c-.8,0-1.46.65-1.46,1.46v29.98c0,.8.65,1.46,1.46,1.46h87.25c.79,0,1.44-.64,1.46-1.43l1.43-83.74c0-.39-.14-.77-.42-1.05-.27-.28-.65-.44-1.04-.44h-29.1c-.8,0-1.45.64-1.46,1.44l-.26,23.08c-6.71-5.58-16.77-12.9-30.19-19.2-8.78-4.12-28.22-13.01-54.87-13.14-5.47-.03-20.58.27-38.88,6.15-9.39,3.02-32.68,11.7-53.61,33.52-1.86,1.94-8.24,8.71-14.95,18.86-15.04,22.75-19.19,43.47-20.01,47.86-.81,4.31-2.27,16.78-1.63,32.94.5,12.49,4.89,55.63,40.65,86.54,22.03,19.04,46.51,24.17,57.42,26.39,0,0,15.51,3.15,32.23,2.64,36.16-1.09,93.68-32.88,150.07-89.63l43.8-44.8c34.06-35,76.45-78.56,129.4-78.56,8.13,0,15.77,1.39,15.77,1.39,8.41,1.58,27.87,6.62,44.24,23.21,20.79,21.07,22.99,46.98,23.56,55.07.58,8.35,2.04,35.32-16.73,59.5-15.76,20.3-40.37,31.67-62.47,31.93,0,0-.02,0-.03,0-40.45,0-81.74-36.94-89.68-44.41l-9.68-9.68c-.91-.91-2.4-.91-3.31,0l-25.88,25.88c-.9.9-.92,2.35-.04,3.26,3.16,3.28,6.48,6.56,9.95,9.82,21.3,20.06,43.36,34.83,63.73,45.79,10.35,4.47,46.26,18.46,88.54,5.37,7.5-2.32,30.72-10.36,51.97-31.97,33.2-33.77,36.57-76.41,36.82-88.68.41-20.72-3.51-60.11-34.31-91.2Z"/>
  </g>
  <g>
    <path class="uuid-bb03f893-9712-44c5-99ba-1a49dec5e0f2" d="M807.72,610.72l60.11,79.05c5.48,3.93,9.05,10.35,9.05,17.61,0,11.96-9.7,21.66-21.66,21.66s-21.66-9.7-21.66-21.66l-36.55-90.59,10.71-6.08Z"/>
    <path class="uuid-bb03f893-9712-44c5-99ba-1a49dec5e0f2" d="M756.45,786.83s1.81,5.43,6.33,4.52c3.61-.72,11.45-2.86,26.64-11.44h0s-11.93,50.78-11.93,50.78l99.83.13s23.38-115.87-18.58-139.77c2.36,1.34-2.74,17.32-9.07,19.13-6.33,1.81-25.33,0-31.66.9-6.33.9-15.78-.18-15.78-.18l-19.61,17.16s-7.14,10.72-16.92,20.69"/>
    <g class="uuid-aa130f6b-2fbb-48f3-993b-7bfb8561ddeb">
      <path class="uuid-bbc0e063-0f63-4f24-8b09-03ebe6931a74" d="M658.19,681.26c.67-.03,1.33.21,1.87.62l14.82,11c.06.05.13.08.21.08.46-.02,2.12-.06,3.48.66.23.12.5-.08.46-.34l-.33-1.94c-.14-.81-.42-1.59-.84-2.3-1.19-1.98-2.8-5.98-.79-9.16,0,0,1.83-3.04,3.93,2.55.09.24.19.49.29.73l1.89,4.34c.36.83.86,1.58,1.5,2.22,3.72,3.77,4.85,10.26,5.2,13.82.16,1.65,1.03,3.14,2.39,4.1l20.8,14.66s-1.56,11.51-13.67,14.62l-10.76-9.33c-4.11-3.57-8.74-6.49-13.73-8.66,0,0-8.66-3.73-11.47-7.11-.5-.6-1.14-1.07-1.89-1.32l-.89-.3c-1.01-.34-1.86-1.05-2.38-1.99l-2.61-4.71c-.51-.91,0-2.07,1.03-2.28.02,0,.03,0,.05,0l-3.69-6.25c-.18-.31-.34-.65-.42-1-.11-.45-.11-.86.11-1.27.15-.28.39-.44.71-.54.58-.18,1.01-.09,1.42.27,1.69,1.49,2.49,3.15,4.21,4.25.84.54,1.84,1.25,2.61,2.01,0,0-2.03-3.48-6.39-5.97,0,0-.35-.2-.85-.62l-.08-.07c-.77-.66-1.43-1.42-1.98-2.27-.01-.02-.03-.05-.04-.07-.07-.12-.15-.24-.22-.36-.08-.15-.16-.29-.24-.45,0,0,0,0,0,0h0s-.03-.05-.05-.07c-.32-.5-.31-1.06-.09-1.51.42-.87,1.57-1.1,2.36-.54l10.04,7.08s.06.05.1.06l1.12.22c.18.04.3-.19.17-.31l-8.84-9.25c-.17-.18-.33-.37-.45-.59-.43-.79-.39-1.7.65-2.31.4-.24.85-.36,1.31-.38ZM661.01,704.76l2.71,1.46-4.42-4.09s.2.26.25.64c.13.85.7,1.58,1.46,1.99Z"/>
      <path class="uuid-7f39e8d9-0a4a-4104-8744-9bb5384ea2d5" d="M677.27,692.56l4.29,2.82s-2.21-4.23-2.65-7.46c-.13-.94-.51-1.82-1.09-2.58-.66-.86-1.43-2.41-1.6-5.11l-2.72,6.06,3.77,6.26Z"/>
      <path class="uuid-7f39e8d9-0a4a-4104-8744-9bb5384ea2d5" d="M666.31,693.12c.63.78.06,1.94-.95,1.91h0c-.99-.03-4.53-2.87-5.55-5.01l-5.35-7.01.8-.89h0c3.85,2.96,7.34,6.37,10.38,10.16l.66.83Z"/>
      <path class="uuid-7f39e8d9-0a4a-4104-8744-9bb5384ea2d5" d="M654.94,707.12l9.33,12.47,8.82,5.28,20.48,16.52,11.64-5.06-21.67-14.78c-2.11-1.44-4.41-2.57-6.84-3.37h0c-2.09-.69-4.1-1.63-5.96-2.8l-4.22-2.65c-1.49-.94-3.06-1.73-4.67-2.44-1.42-.63-3.31-1.92-3.75-4.43,0,0-1.5-.64-4.42-7.69l1.25,8.95Z"/>
      <path class="uuid-7f39e8d9-0a4a-4104-8744-9bb5384ea2d5" d="M661.67,698.67s.13-.86-2.58-4.4c-.57-.74-1.27-1.37-2.08-1.83-1.32-.75-3.91-2.54-7.89-6.54l3.75,4.74-.15,2.04h0c1.05-.08,2.07.37,2.72,1.2l.34.44c1.52,1.97,3.56,3.47,5.89,4.34h0Z"/>
      <path class="uuid-7f39e8d9-0a4a-4104-8744-9bb5384ea2d5" d="M663.72,706.22s-1.53-1.2-3.07-2.56c-.51-.45-.85-1.15-1.37-1.52-1.04-.75-2.01-1.22-2.57-.95,0,0,1.92.2,3.24,2.61.09.16.98,2.63,3.76,2.42Z"/>
      <polygon class="uuid-7f39e8d9-0a4a-4104-8744-9bb5384ea2d5" points="657.15 701.08 651.68 692.14 653.01 698.19 655.32 700.93 657.15 701.08"/>
      <g>
        <path class="uuid-7f39e8d9-0a4a-4104-8744-9bb5384ea2d5" d="M663.61,706.09s-3.87-4.52-7.06-5.14c-.18-.04-.34-.15-.43-.32"/>
        <path class="uuid-7f39e8d9-0a4a-4104-8744-9bb5384ea2d5" d="M663.61,706.46c-.1,0-.21-.04-.28-.13-.04-.04-3.83-4.43-6.85-5.02-.3-.06-.55-.24-.69-.51-.09-.18-.02-.4.16-.49.18-.09.4-.02.49.16.03.06.09.11.17.12,3.28.64,7.11,5.08,7.27,5.26.13.15.11.39-.04.52-.07.06-.15.09-.24.09Z"/>
      </g>
    </g>
    <g>
      <g class="uuid-f3915ac1-9968-411c-8588-c44ec0d911c7">
        <path class="uuid-bbc0e063-0f63-4f24-8b09-03ebe6931a74" d="M813.19,588.16c.04-.07.04-.15.01-.23l-4.32-17.94c-.17-.69-.11-1.44.22-2.07.2-.37.47-.69.81-.95.96-.71,1.82-.39,2.38.31.15.19.27.42.37.64l5.05,11.76c.07.17.32.15.35-.03l.23-1.12v-.05s-2.59-12.07-2.59-12.07c-.2-.95.46-1.92,1.42-1.96.5-.02,1.01.19,1.35.68.02.02.03.05.05.07h0s0,0,0,0c.11.13.22.27.32.4.08.11.17.23.25.34.02.02.03.05.05.07.57.83,1.01,1.74,1.32,2.71l.03.1c.19.62.23,1.02.23,1.02.59,4.99,2.99,8.22,2.99,8.22-.4-1.02-.66-2.21-.83-3.19-.34-2.01-1.55-3.4-2.26-5.54-.17-.52-.08-.95.31-1.41.22-.26.47-.41.78-.44.5-.05.89.14,1.29.45.26.2.48.45.67.71l4.3,5.84s.02-.03.03-.04c.59-.86,2.86-1,3.5-.18l-.32,6.91.56,20.28c.05,5.44,6.33,7.54,8,12.72l4.37,13.56c-7.6,9.92-18.81,6.85-18.81,6.85l-5.33-24.88c-.35-1.61-1.37-3-2.82-3.79-3.11-1.69-8.58-5.24-10.64-10.08-.37-.87-.85-1.68-1.5-2.36l-3.27-3.45c-.18-.19-.37-.37-.56-.56-4.31-4.12-.8-4.61-.8-4.61,3.67-.61,6.69,2.37,8.07,4.25.49.67,1.09,1.26,1.79,1.71l1.69,1.09"/>
        <path class="uuid-7f39e8d9-0a4a-4104-8744-9bb5384ea2d5" d="M807.46,566.42l4.53,10.68,1,9.98c.12.99-2.17-4.53-3.01-5.07h0c-.83-.54-2.35-4.82-2.1-7.17l-.88-8.77.44.36Z"/>
        <path class="uuid-7f39e8d9-0a4a-4104-8744-9bb5384ea2d5" d="M814.2,562.21l1.5,5.93-1.33,1.55h0c.89.56,1.45,1.53,1.47,2.59v.56c.06,2.49.55,4.03,1.9,6.11l.26.88s.76-3.16-.2-7.68l-3.59-9.94Z"/>
      </g>
      <polygon class="uuid-7f39e8d9-0a4a-4104-8744-9bb5384ea2d5" points="820.49 568.82 824.54 582.04 824.02 575.26 820.49 568.82"/>
      <path class="uuid-7f39e8d9-0a4a-4104-8744-9bb5384ea2d5" d="M829.7,576.24l-4.65-5.67,3.28,6.24s.05-.41,1.37-.56Z"/>
      <polygon class="uuid-7f39e8d9-0a4a-4104-8744-9bb5384ea2d5" points="827.98 574.48 829.26 583.87 828.86 575.8 827.98 574.48"/>
      <path class="uuid-bbc0e063-0f63-4f24-8b09-03ebe6931a74" d="M830.73,576.66l-4.12-5.21c-.39-.49-.95-.81-1.57-.88h0s4.65,5.67,4.65,5.67c0,0,.27.09,1.04.41Z"/>
    </g>
    <path class="uuid-e2de1b83-995d-465c-83ad-82af3172eaaf" d="M721.28,758.5c.31,0,.62-.09.9-.26.78-.5,1-1.53.51-2.31-4.36-6.8-8.59-13.94-14.16-23.86-.45-.8-1.47-1.09-2.27-.64-.8.45-1.09,1.47-.64,2.27,5.6,9.98,9.87,17.16,14.26,24.02.32.5.86.77,1.41.77Z"/>
    <path class="uuid-bb03f893-9712-44c5-99ba-1a49dec5e0f2" d="M730.47,764.1c.12.06,11.8,6.12,28.5-1.6,17.44-8.06,48.53-27.73,48.84-27.93.17-.11.36-.18.56-.23l16.79-3.42c.8-.16,1.61.28,1.89,1.05.29.77-.02,1.63-.73,2.04l-6.95,3.99c-16.98,9.75-56.74,32.57-64.24,37.13-2.18,1.33-4.12,2.13-5.82,2.57-5.24,1.37-8.23-.67-9-1.3-2.83-1.69-6.67-5.05-11.76-9.59l-13.78-13.34c-.09-.08.02-.22.12-.15,3.34,2.44,13.09,9.53,14.21,10.09l1.35.68Z"/>
    <path class="uuid-bbc0e063-0f63-4f24-8b09-03ebe6931a74" d="M817.09,681.24c-6.28,2.69-14.21-.98-17.28-6.78-2.68-5.04-2.62-11.28-2.62-16.74,0-6.33,0-11.76.9-13.57s2.71-4.52,2.71-9.95,3.15-11.88,3.15-11.88c0,0,40.07-2.93,47.28,33.54l2.75,14.47-.27,16.14h0c-1.54-.55-1.34.2-1.34.2-17.5,2.19-29.71,7.9-35.21,10.98l-.07-.13c1.26-6.75.96-12.31.27-16.34l-.27.05Z"/>
    <path class="uuid-bbc0e063-0f63-4f24-8b09-03ebe6931a74" d="M812.65,683.66c-5.89,0-11.67-3.79-14.16-8.49-2.8-5.28-2.8-11.58-2.8-17.14v-.32c0-7.74.05-12.22,1.07-14.25.11-.22.23-.45.36-.7.92-1.75,2.19-4.15,2.19-8.57,0-5.71,3.17-12.27,3.3-12.55.37-.76,1.28-1.07,2.04-.7.76.37,1.07,1.28.7,2.04-.03.06-2.99,6.21-2.99,11.21,0,5.17-1.53,8.07-2.54,9.99-.12.23-.23.44-.33.64-.74,1.49-.74,7.28-.74,12.89v.32c0,5.2,0,11.1,2.44,15.71,3.22,6.08,10.67,8.09,15.34,6.09.77-.33,1.67.03,2,.8s-.03,1.67-.8,2c-1.64.71-3.36,1.02-5.06,1.02Z"/>
    <path class="uuid-bb03f893-9712-44c5-99ba-1a49dec5e0f2" d="M762.63,791.18c-3.8.44-6.45-2.85-7.39-4.84-.36-.76-.03-1.67.73-2.03.76-.36,1.67-.03,2.02.73.08.18,1.93,3.95,4.97,2.96,1.23-.4,30.34-9.98,44.54-25.8.56-.63,1.53-.68,2.15-.12.63.56.68,1.52.12,2.15-14.75,16.43-44.6,26.26-45.87,26.67-.44.14-.86.23-1.28.28Z"/>
    <g>
      <path class="uuid-4f3e7f9b-4f15-4d8b-97cf-bb70581b5b01" d="M858.73,692.09h-4.52c-22.62,2.71-42.52,13.57-42.52,13.57,0,0,0-4.52,2.71-6.33,2.71-1.81,16.28-9.95,37.99-12.66,0,0,5.43-1.81,6.33,5.43Z"/>
      <path class="uuid-4f3e7f9b-4f15-4d8b-97cf-bb70581b5b01" d="M812.42,707c.2-.11,19.87-10.72,41.88-13.38h4.43c.44,0,.85-.19,1.14-.52.29-.33.42-.76.37-1.2-.37-2.91-1.45-4.96-3.23-6.08-2.07-1.31-4.28-.84-4.93-.66-22.99,2.9-37,11.88-38.52,12.89-3.35,2.24-3.39,7.38-3.39,7.6,0,.54.28,1.04.75,1.31.24.14.51.21.78.21.25,0,.5-.06.73-.19ZM855.41,688.42c.71.46,1.16,1.28,1.44,2.15h-2.65c-.06,0-.12,0-.18.01-17.79,2.13-34.08,9.33-40.35,12.37.31-.93.8-1.84,1.57-2.35,1.47-.98,14.96-9.62,37.34-12.42.09-.01.19-.03.28-.06,0,0,.42-.13.97-.13.47,0,1.05.09,1.58.43Z"/>
    </g>
    <g>
      <path class="uuid-bb03f893-9712-44c5-99ba-1a49dec5e0f2" d="M858.64,692.36c-1.37-.44-2.8-.27-4.44-.27-22.62,2.71-42.52,13.57-42.52,13.57,0,0-11.94,6.33-12.3,9.05l-.36,4.52s12.66-7.24,19-8.14c6.33-.9,25.33.9,31.66-.9,6.33-1.81,15.37-8.14,15.38-10.85,0-2.31-3.1-4.73-4.7-6.02-.57-.46-1.14-.76-1.72-.95Z"/>
      <path class="uuid-bb03f893-9712-44c5-99ba-1a49dec5e0f2" d="M799.78,720.55c.12-.07,12.48-7.1,18.46-7.96,2.55-.36,7.45-.26,12.64-.16,7.54.16,15.35.32,19.23-.79,6.19-1.77,16.47-8.39,16.48-12.31,0-2.95-3.17-5.52-5.07-7.06l-.19-.15c-.69-.56-1.41-.96-2.21-1.21h0c-1.31-.42-2.61-.39-3.87-.36-.34,0-.68.02-1.04.02h-.18c-22.64,2.73-42.86,13.65-43.05,13.75-4.72,2.5-12.69,7.15-13.11,10.27l-.59,7.4,2.51-1.43ZM812.42,707c.2-.11,19.87-10.72,41.88-13.38.35,0,.69,0,1.02-.02,1.09-.03,2.04-.05,2.86.21.44.14.84.36,1.23.68l.19.16c1.18.95,3.94,3.19,3.94,4.66-.22,1.65-7.83,7.57-14.27,9.41-3.44.98-11.35.82-18.33.68-5.31-.11-10.34-.21-13.13.19-4.85.69-12.95,4.77-17.04,6.95l.13-1.6c.49-1.25,5.72-4.86,11.52-7.93Z"/>
    </g>
    <g>
      <g>
        <path class="uuid-4f3e7f9b-4f15-4d8b-97cf-bb70581b5b01" d="M706.61,718.22l-6.65-6.49c-11.16,6.05-13.85,15.28-13.85,15.28l8.57,6.12s4.27-7.86,9.12-12.04l2.82-2.88Z"/>
        <path class="uuid-4f3e7f9b-4f15-4d8b-97cf-bb70581b5b01" d="M695.02,734.62c.43-.1.79-.37,1-.76.04-.08,4.19-7.66,8.77-11.61.03-.03.06-.06.09-.09l2.82-2.88c.28-.29.44-.68.43-1.08s-.17-.79-.46-1.07l-6.65-6.49c-.48-.47-1.2-.57-1.79-.25-11.59,6.28-14.47,15.8-14.59,16.2-.18.62.05,1.29.58,1.67l8.57,6.12c.31.22.69.32,1.06.27.06,0,.11-.02.17-.03ZM699.72,713.62l4.74,4.62-1.71,1.74c-3.73,3.23-7.05,8.4-8.56,10.93l-6.25-4.46c.99-2.34,4.15-8.36,11.77-12.84Z"/>
      </g>
      <path class="uuid-bb03f893-9712-44c5-99ba-1a49dec5e0f2" d="M763.25,790.62c-2.41.28-4.77-.87-6.1-1.89-29.75-13.17-64.97-49.62-65.32-49.98-.37-.39-.51-.94-.37-1.46,3.35-12.11,15.77-21.21,16.29-21.6.61-.44,1.46-.37,1.98.17,15.12,15.48,41.27,27.56,41.53,27.68.76.35,1.1,1.25.75,2.02-.35.76-1.25,1.1-2.02.75-1.07-.49-25.88-11.96-41.48-27.36-2.89,2.33-11.07,9.54-13.88,18.31,4.82,4.9,36.82,36.83,63.91,48.75.12.05.24.13.35.21.13.11,3.45,2.71,5.76.49.61-.58,1.57-.56,2.15.04.58.61.56,1.57-.04,2.15-1.1,1.06-2.32,1.56-3.52,1.7Z"/>
      <line class="uuid-bb03f893-9712-44c5-99ba-1a49dec5e0f2" x1="790.01" y1="756.3" x2="790.01" y2="756.3"/>
      <path class="uuid-bb03f893-9712-44c5-99ba-1a49dec5e0f2" d="M750.63,744.93s-26.49-12.14-41.98-28c0,0-12.48,9.04-15.72,20.77,0,0,35.16,36.58,65.01,49.72,0,0,4.45,3.6,7.77.4"/>
    </g>
    <path class="uuid-bb03f893-9712-44c5-99ba-1a49dec5e0f2" d="M770.65,743.11l-21.86-.22-12.77,29.37,25.57,8.03s19.31-17.81,19.23-18.45-10.17-18.72-10.17-18.72Z"/>
    <path class="uuid-7f39e8d9-0a4a-4104-8744-9bb5384ea2d5" d="M817.38,695.81s.62-12.55.21-13.12l2.37,11.8-2.58,1.32Z"/>
    <path class="uuid-8388aebb-2065-4af3-879c-a0dd3cf565ec" d="M764.9,751.95c-.08,0-.15-.02-.22-.07-.16-.12-.2-.35-.07-.51l17.43-23.31,15.56-13.56c.15-.13.39-.12.52.04.13.15.12.39-.04.52l-15.53,13.53-17.35,23.23c-.07.1-.18.15-.29.15Z"/>
    <g>
      <path class="uuid-4f3e7f9b-4f15-4d8b-97cf-bb70581b5b01" d="M839.29,604.72l-6.65-6.49c-11.16,6.05-13.85,15.28-13.85,15.28l8.57,6.12s4.27-7.86,9.12-12.04l2.82-2.88Z"/>
      <path class="uuid-4f3e7f9b-4f15-4d8b-97cf-bb70581b5b01" d="M827.7,621.12c.43-.1.79-.37,1-.76.04-.08,4.19-7.66,8.77-11.61.03-.03.06-.06.09-.09l2.82-2.88c.28-.29.44-.68.43-1.08s-.17-.79-.46-1.07l-6.65-6.49c-.48-.47-1.2-.57-1.79-.25-11.59,6.28-14.47,15.8-14.59,16.2-.18.62.05,1.29.58,1.67l8.57,6.12c.31.22.69.32,1.06.27.06,0,.11-.02.17-.03ZM832.4,600.12l4.74,4.62-1.71,1.74c-3.73,3.23-7.05,8.4-8.56,10.93l-6.25-4.46c.99-2.34,4.15-8.36,11.77-12.84Z"/>
    </g>
    <g>
      <path class="uuid-bb03f893-9712-44c5-99ba-1a49dec5e0f2" d="M813.66,652.23c.76-2.78,1.17-5.85-.16-7.18-2.71-2.71-5.43,1.81-8.14,2.71-2.71.9-.9-6.33,0-9.95.9-3.62,0-10.86,0-10.86,0,0-3.62-8.14,0-11.76,0,0,1.81-6.33,6.33-6.33,0,0-.9-4.52,5.43-5.43,0,0,3.62-4.52,10.86-3.62,0,0,9.05-3.62,12.66,0,0,0,2.71,0,4.52,1.81,0,0,6.33,0,9.05,5.43,0,0,5.43,1.81,6.33,6.33,0,0,3.62,2.71,3.62,5.43,0,0,3.62,3.62,3.62,7.24,0,0,2.71,2.71,1.81,8.14,0,0,0,7.24-3.62,10.86,0,0-1.81,9.95-4.52,11.76,0,0-2.71,7.49-4.52,9.62-1.81,2.14-3.62,7.56-12.66,7.56-9.05,0-23.52-3.62-27.14-11.76l-3.97-6.36.51-3.66Z"/>
      <path class="uuid-bb03f893-9712-44c5-99ba-1a49dec5e0f2" d="M857.23,668.61c.32-.48.6-.89.85-1.19,1.74-2.05,4.01-7.97,4.65-9.69,2.62-2.38,4.2-9.6,4.65-11.96,3.46-3.84,3.71-10.4,3.73-11.45.76-4.76-.99-7.73-1.83-8.85-.26-3.24-2.67-6.22-3.64-7.31-.36-2.56-2.7-4.78-3.74-5.64-1.11-4.03-5.09-6.05-6.61-6.69-2.69-4.73-7.73-5.56-9.5-5.7-1.6-1.33-3.54-1.7-4.52-1.8-4.03-3.29-11.56-.79-13.49-.07-6.4-.66-10.2,2.52-11.42,3.76-2.38.44-4.12,1.41-5.18,2.91-.64.91-.91,1.84-1.01,2.6-3.89.98-5.7,5.53-6.16,6.88-3.58,4.06-.73,11.54-.14,12.95.25,2.1.67,7.44,0,10.09-1.59,6.35-2.1,9.84-.51,11.32.64.59,1.54.76,2.47.45,1.15-.38,2.18-1.18,3.17-1.95,2.25-1.75,2.73-1.82,3.42-1.13.17.17.98,1.27-.23,5.7-.02.06-.03.13-.04.19l-.51,3.66c-.05.35.03.72.22,1.02l3.92,6.27c4.17,9.15,19.66,12.56,28.49,12.56,8.33,0,11.24-4.33,12.98-6.92ZM815.15,652.53c1.14-4.23.95-7.03-.58-8.56-2.76-2.76-5.69-.48-7.44.88-.58.45-1.17.91-1.71,1.21-.07-1.23.4-3.88,1.41-7.88.96-3.85.07-11.11.03-11.41-.02-.15-.06-.29-.12-.43-.89-2-2.67-7.71-.32-10.07.18-.18.32-.41.39-.66.01-.05,1.59-5.23,4.87-5.23.45,0,.87-.21,1.16-.55.29-.34.41-.81.34-1.25,0-.04-.16-1.03.5-1.93.63-.87,1.9-1.46,3.64-1.71.38-.05.73-.25.97-.55.13-.16,3.24-3.85,9.48-3.07.25.03.52,0,.75-.1,2.11-.84,8.66-2.7,11.02-.34.28.28.67.44,1.07.45.02,0,2.13.04,3.46,1.36.28.28.67.44,1.07.45.22,0,5.44.09,7.69,4.59.18.36.5.63.88.76.05.02,4.61,1.6,5.32,5.19.07.37.28.69.58.92.98.74,3.01,2.75,3.01,4.21,0,.4.16.79.44,1.08.88.89,3.17,3.73,3.17,6.16,0,.39.16.78.43,1.06.09.09,2.15,2.32,1.4,6.83-.01.08-.02.17-.02.25,0,.07-.05,6.66-3.17,9.78-.22.22-.37.5-.42.8-.82,4.48-2.53,9.87-3.87,10.77-.27.18-.48.44-.59.75-.73,2.01-2.92,7.58-4.25,9.16-.36.42-.7.93-1.05,1.46-1.58,2.35-3.74,5.57-10.45,5.57-8.44,0-22.46-3.45-25.75-10.86-.03-.07-.06-.13-.1-.19l-3.68-5.89.42-3.01Z"/>
    </g>
    <polygon class="uuid-dcf6f7d1-acef-40c1-9988-2ad95171b891" points="789.43 779.91 777.5 830.7 782.82 830.46 789.43 779.91"/>
    <path class="uuid-8388aebb-2065-4af3-879c-a0dd3cf565ec" d="M789.43,780.28c-.11,0-.22-.05-.29-.14-.12-.16-.09-.39.07-.51l17.69-13.49c.16-.12.39-.09.52.07.12.16.09.39-.07.51l-17.69,13.49c-.07.05-.14.08-.22.08Z"/>
    <g>
      <path class="uuid-bbc0e063-0f63-4f24-8b09-03ebe6931a74" d="M804.49,649.47c1.9-.38,4.42-1.29,5.86-3.44.12-.18.44-.67,1.27-.33.91.38,2.1,1.76,1.65,4.03-.48,2.41-1.94,7.16-3.98,10.33h0c-.36.53-.82.98-1.37,1.31-1.44.84-4.32,1.79-6.96-1.77"/>
      <path class="uuid-7f39e8d9-0a4a-4104-8744-9bb5384ea2d5" d="M805.25,662.5c-1.39,0-3.04-.61-4.59-2.68-.12-.16-.09-.39.08-.51.16-.12.39-.09.51.07,2.34,3.14,4.82,2.65,6.48,1.67.48-.28.91-.69,1.25-1.2,2.01-3.12,3.45-7.81,3.92-10.2.41-2.05-.63-3.29-1.43-3.62-.55-.23-.71.01-.82.19-1.51,2.27-4.15,3.21-6.09,3.6-.19.04-.39-.09-.43-.29-.04-.2.09-.39.29-.43,1.81-.36,4.26-1.23,5.63-3.28.51-.76,1.21-.67,1.72-.46,1.02.42,2.37,1.96,1.87,4.44-.49,2.44-1.97,7.24-4.03,10.46-.41.61-.91,1.09-1.49,1.42-.59.35-1.63.82-2.86.82Z"/>
    </g>
  </g>
  <path class="uuid-d244d3d0-ae40-403d-baec-0031c871898c" d="M900.99,850.99c-10.31,0-46.37,0-58.16,0-9.66,0-39.9,0-47.95,0-8.11,0-32.39,0-39.28,0-13.92,0-25.21-11.29-25.21-25.21,0-13.92,11.29-25.21,25.21-25.21,2.17,0,4.27.27,6.27.79,5.27-12.54,17.47-21.44,31.8-21.91,7.59-19.75,26.73-33.78,49.16-33.78,20.16,0,37.67,11.34,46.52,27.98,3.68-1.13,7.58-1.74,11.63-1.74,21.84,0,39.55,17.71,39.55,39.55s-17.7,39.54-39.55,39.54Z"/>
  <g id="uuid-a1f1493c-c9c4-4a21-92c9-aa627c198563" data-name="Red Hat Advanced Cluster Security for Kubernetes">
    <rect class="uuid-bb03f893-9712-44c5-99ba-1a49dec5e0f2" x="758.52" y="266.69" width="139.3" height="139.3" rx="34.82" ry="34.82"/>
    <path class="uuid-8388aebb-2065-4af3-879c-a0dd3cf565ec" d="M862.99,271.53c16.54,0,29.99,13.45,29.99,29.99v69.65c0,16.54-13.45,29.99-29.99,29.99h-69.65c-16.54,0-29.99-13.45-29.99-29.99v-69.65c0-16.54,13.45-29.99,29.99-29.99h69.65M862.99,266.69h-69.65c-19.23,0-34.82,15.59-34.82,34.82v69.65c0,19.23,15.59,34.82,34.82,34.82h69.65c19.23,0,34.82-15.59,34.82-34.82v-69.65c0-19.23-15.59-34.82-34.82-34.82h0Z"/>
    <path class="uuid-50c55dc4-cb47-47a5-9a93-5e4e672bd755" d="M859.62,305.73l-30.95-6.58c-.33-.07-.67-.07-1.01,0l-30.95,6.58c-1.12.24-1.92,1.22-1.92,2.37v36.2c.48,15.19,8.85,26.89,22.38,31.29,3.57,1.16,7.26,1.72,10.9,1.72,8.22,0,16.22-2.88,22.26-8.06v2.77c0,1.34,1.08,2.42,2.42,2.42s2.42-1.08,2.42-2.42v-8.71c0-1.34-1.08-2.42-2.42-2.42h-8.42c-1.33,0-2.42,1.08-2.42,2.42s1.08,2.42,2.42,2.42h2.68c-7.46,6.29-18.4,8.5-28.33,5.27-11.69-3.81-18.63-13.59-19.05-26.77v-34.17l28.54-6.06,28.54,6.06v34.09c-.09,2.97-.52,5.81-1.27,8.42-.37,1.28.38,2.62,1.66,2.99,1.29.36,2.62-.38,2.99-1.66.85-2.99,1.35-6.22,1.45-9.67v-36.13c0-1.14-.8-2.13-1.92-2.37h0Z"/>
    <path class="uuid-e0b50074-b511-4adb-9051-3853dcbdec1c" d="M828.16,358.34c-.42,0-.84-.11-1.21-.32l-7.74-4.47c-.75-.43-1.21-1.23-1.21-2.09v-8.93c0-.86.46-1.66,1.21-2.09l7.74-4.47c.75-.43,1.67-.43,2.42,0l7.74,4.47c.75.43,1.21,1.23,1.21,2.09v8.93c0,.86-.46,1.66-1.21,2.09l-7.74,4.47c-.37.22-.79.32-1.21.32ZM822.84,350.06l5.32,3.07,5.32-3.07v-6.14l-5.32-3.07-5.32,3.07v6.14Z"/>
    <path class="uuid-e0b50074-b511-4adb-9051-3853dcbdec1c" d="M843.64,345.9c-.95,0-1.86-.57-2.24-1.5-.51-1.24.09-2.65,1.32-3.15,1.44-.59,2.37-1.97,2.37-3.52,0-1.93-1.46-3.54-3.4-3.75-1.29-.14-2.24-1.26-2.16-2.55l.03-.61c0-5.14-4.18-9.33-9.33-9.33-3.71,0-7.07,2.2-8.55,5.62-.45,1.03-1.54,1.62-2.67,1.41-.39-.08-.8-.12-1.22-.12-3.62,0-6.56,2.95-6.56,6.57,0,2.15,1.06,4.17,2.83,5.4,1.1.76,1.37,2.27.61,3.37-.76,1.09-2.27,1.37-3.37.61-3.07-2.13-4.91-5.64-4.91-9.37,0-6.38,5.29-11.56,11.67-11.4,2.53-4.25,7.13-6.91,12.17-6.91,7.43,0,13.54,5.75,14.12,13.03,3.29,1.24,5.57,4.39,5.57,8.05s-2.11,6.67-5.37,8c-.3.12-.61.18-.91.18h0Z"/>
  </g>
  <g class="uuid-aeaf75a4-87df-4963-844e-7371fbb5eb43">
    <g>
      <path class="uuid-307a6395-862d-4cc2-9290-10ca871f5b99" d="M292.98,735.53l-26.35-27.06,1.14-27.1,19.64,18.63c5.85,5.54,8.65,13.57,7.53,21.55l-1.96,13.98Z"/>
      <g>
        <path class="uuid-307a6395-862d-4cc2-9290-10ca871f5b99" d="M244.6,599.29s4.42,13.75,15.84,8.57c0,0-7.12-8.87-15.84-8.57Z"/>
        <g class="uuid-dce8f35d-2978-46c1-939e-b7c0657be9fd">
          <path class="uuid-ccc9a5b6-f18d-4729-8579-2fd9f78ac30a" d="M270.5,593.82l-3.66,3.44c-.87.82-1.74,1.63-2.63,2.42-1.53,1.35-7.56,6.24-7.9,15.61,0,0-4.58,1.25-14.2-7.15,0,0,13.97-27.86,15.84-38.45.07-.42.29-.81.64-1.06s.98-.29,1.27.56c.11.31.12.65.08.98l-.78,6.45,5.88-8.97c.39-.6,1.33-.44,1.48.26.14.66.03,1.84-.72,3.92,0,0,3.4-3.93,5.15-3.57.31.07.51.37.47.69-.03.27-.13.54-.41,1.03s-.62.99-.98,1.46c-1.45,1.86-6.18,8.04-6.29,9.39,0,0,10.07-8.65,13.21-8.09.31.06.54.31.55.62.01.35-.11.74-.63,1.41-.39.5-.84.94-1.33,1.34-1.88,1.51-8.11,6.56-9.28,8.07,0,0-4.4,6.44-.16,6.84,0,0,1.36.1,3.08-1.91,0,0,3.05-3.67,5.47-4.55,1.08-.39,2.03.83,1.41,1.8l-5.57,7.43Z"/>
          <polygon class="uuid-8edf77e4-ca28-492e-8908-c75c319aacb5" points="256.9 580.54 261.98 570.95 262.96 570.84 256.9 580.54"/>
          <path class="uuid-8edf77e4-ca28-492e-8908-c75c319aacb5" d="M258.17,582.06s5.31-8.15,9.89-14.19l.35.56-10.24,13.63Z"/>
          <path class="uuid-8edf77e4-ca28-492e-8908-c75c319aacb5" d="M260.25,584.91s4.95-6.62,9.57-10.93l-.19.77-9.37,10.15Z"/>
          <polygon class="uuid-8edf77e4-ca28-492e-8908-c75c319aacb5" points="281.97 571.8 272.16 578.35 265.96 584.67 269.72 584.84 281.97 571.8"/>
        </g>
        <path class="uuid-e2de1b83-995d-465c-83ad-82af3172eaaf" d="M229.18,687.76l31.26-79.91h0c-5.97.54-11.75-2.27-15.01-7.3l-.82-1.27-31.44,68.44,16.01,20.04Z"/>
        <path class="uuid-50c55dc4-cb47-47a5-9a93-5e4e672bd755" d="M229.45,633.06c-.08.05-.17.06-.26.02-.14-.06-.2-.23-.14-.36l15.31-33.54c.06-.14.23-.2.36-.14s.2.23.14.36l-15.31,33.54s-.06.09-.1.12Z"/>
      </g>
      <path class="uuid-307a6395-862d-4cc2-9290-10ca871f5b99" d="M354.74,696.5s-4.48,12.65,6.17,19.13c0,0,3.06-11.76-6.17-19.13Z"/>
      <polygon class="uuid-3a743d51-2c7f-4589-977b-d8e36a78905c" points="267.76 672.96 262.18 661.31 259.63 668.19 267.76 672.96"/>
      <path class="uuid-e2de1b83-995d-465c-83ad-82af3172eaaf" d="M215.2,669.4l15.66,43.41c2.6,7.2,4.28,14.71,4.81,22.35.74,10.72-.83,19.3-4.74,33.7h0c-1.27,2.59.62,5.61,3.5,5.6l46.76,70.7,7.91-122.97-42.37-73.51-31.53,20.73Z"/>
      <g class="uuid-5c8c714b-1d7a-44af-9af7-10301ec2ae33">
        <path class="uuid-ccc9a5b6-f18d-4729-8579-2fd9f78ac30a" d="M394.02,694.21c.21-.21.39-.45.52-.71.17-.34.25-.66.15-1.02-.06-.25-.22-.42-.46-.56-.42-.25-.78-.26-1.17-.06-1.62.86-2.57,2.01-4.14,2.56-.76.26-1.69.64-2.45,1.09,0,0,2.27-2.36,6.18-3.5,0,0,.31-.09.79-.33l.07-.04c.73-.37,1.4-.85,1.99-1.42.02-.02.03-.03.05-.05.08-.08.16-.16.24-.24.09-.1.19-.2.28-.31,0,0,0,0,0,0h0s.03-.03.05-.05c.35-.34.45-.78.36-1.17-.16-.77-1.03-1.17-1.76-.88l-10.29,3.67c-.15,0-.2-.2-.07-.28l11.53-6.67c.17-.11.33-.23.47-.38.49-.54.63-1.27-.07-1.95-.27-.26-.6-.45-.96-.55-.53-.15-1.09-.08-1.59.13l-12.93,5.37-7.79,3.04c-.33.13.69-1.77.78-1.97l.63-1.47c.26-.61.63-1.18,1.1-1.65,1.32-1.34,3.36-4.19,2.37-7.08,0,0-.86-2.75-3.59,1.26-.12.18-.24.35-.37.52l-2.32,3.07c-.44.58-1.05,1-1.61,1.47-3.16,2.68-4.02,5.62-6.74,9.92-.72,1.14-1.42,2.29-2.67,2.78l-19.22,7.61s-.96,9.39,8.01,14.15l10.28-5.32c3.93-2.03,8.14-3.46,12.5-4.22,0,0,7.55-1.3,10.42-3.43.51-.38,1.11-.63,1.74-.68l.76-.07c.87-.08,1.67-.48,2.26-1.12l2.96-3.22"/>
        <path class="uuid-8edf77e4-ca28-492e-8908-c75c319aacb5" d="M379.68,678.41l-.52,5.46-4.17,4.23-2.14,1.71.71-2.39c.65-2.22,1.8-4.26,3.36-5.97l2.76-3.03Z"/>
        <path class="uuid-8edf77e4-ca28-492e-8908-c75c319aacb5" d="M396.37,683.86l.28-.41c-3.61,1.6-9.15,5.05-12.28,7.46"/>
        <path class="uuid-8edf77e4-ca28-492e-8908-c75c319aacb5" d="M379.96,705.67l3.5-.8c1.56-.36,2.96-1.19,4.02-2.39l6.88-7.83-4.17,8.81-9.75,8.07-7.98,2.49-19.33,9.14-8.23-6.22,19.93-7.54,15.12-3.73Z"/>
        <polyline class="uuid-8edf77e4-ca28-492e-8908-c75c319aacb5" points="396.37 683.86 384.37 690.91 391.11 687.75"/>
        <polygon class="uuid-8edf77e4-ca28-492e-8908-c75c319aacb5" points="387.05 699.71 394.02 694.21 394.01 695.39 387.05 699.71"/>
        <polygon class="uuid-8edf77e4-ca28-492e-8908-c75c319aacb5" points="396.49 689.75 398.1 687.74 394.65 691.22 393.06 691.86 386.48 695.5 390.35 694.06 396.49 689.75"/>
      </g>
      <path class="uuid-307a6395-862d-4cc2-9290-10ca871f5b99" d="M307.8,735.84c-8.03,3.16-17.19,1.13-23.12-5.14l-29.22-30.85c-5.65-2.23-9.68-8.09-9.68-14.97,0,0-4.13,27.72,27.01,49.74,10.37,7.34,24.13,7.77,35.02,1.22h0Z"/>
      <path class="uuid-e2de1b83-995d-465c-83ad-82af3172eaaf" d="M297,717.75h0s-28.43-35.32-28.43-35.32c-2.1-6.03-7.48-10.33-13.8-10.33-8.14,0-14.74,7.13-14.74,15.94,0,6.88,4.03,12.74,9.68,14.97l29.22,30.85c5.94,6.27,15.09,8.3,23.12,5.14l58.85-23.36h0c-5.27-3.84-7.85-10.38-6.62-16.78l.45-2.35-57.74,21.24Z"/>
      <path class="uuid-ccc9a5b6-f18d-4729-8579-2fd9f78ac30a" d="M253.12,656.89l3.96,11.54,5.43,9.04s-11.57-10.03-34.21-6.94l8.23-20.58,16.59,6.94Z"/>
      <path class="uuid-edcda425-8a86-4e42-9fd7-392e42e8554c" d="M267.95,625.78l5.19-3.65c1.28-.9,2.93-1.16,4.39-.59.18.07.36.15.52.25.79.45.67,1.62-.18,1.92h0c-.35.12-.75.06-1.03-.19-.39-.33-1.16-.68-2.61-.3-.32.08-.64.2-.95.33l-5.34,2.23Z"/>
      <path class="uuid-ccc9a5b6-f18d-4729-8579-2fd9f78ac30a" d="M231.38,662.45c.37,4.41.72,7.07.72,7.07l25.29,5.54,4.93-13.56c.49-1.64,2.06-2.7,3.76-2.56l8.78.73c.82.07,1.66-.1,2.36-.54,2.44-1.53,1.45-4.69.74-6.28-.27-.62-.17-1.33.27-1.84l1.16-1.33c1.19-1.44-3.54-2.54-3.54-2.54l2.32-.86c.99-.36,1.56-1.4,1.33-2.43l-.23-1.01c-.26-1.17.44-2.37,1.6-2.67.66-.17,1.24-.21,1.24-.21,1.53-.19,2.03-1.2,2.15-2.18.12-.99-.21-1.98-.84-2.75l-4.45-5.42c-.81-.99-1.36-2.19-1.48-3.46-.01-.11-.02-.22-.02-.32-.05-1.1.06-2.19.28-3.27,1.12-5.49-1.9-11.71-3.88-15.03-.55-.92-1.92-.76-2.27.25-1.1,3.16-2.92,6.08-4.99,8.65-4.64,5.77-11.25,9.55-18.5,11.09-7.39,1.58-10.46,5.28-10.34,7.94.09,1.93-7.13,1.48-7.18,3.41-.02.72-.03,1.43-.03,2.13l.79,21.44Z"/>
      <circle class="uuid-bb03f893-9712-44c5-99ba-1a49dec5e0f2" cx="273.1" cy="627.33" r="1.21"/>
      <path class="uuid-bb03f893-9712-44c5-99ba-1a49dec5e0f2" d="M269.98,626.96c-1.12,0-1.9-.15-1.98-.16-.15-.03-.25-.17-.22-.32.03-.15.17-.24.32-.22.04,0,4.23.78,7.18-1.37.12-.09.29-.06.38.06.09.12.06.29-.06.38-1.84,1.34-4.06,1.63-5.63,1.63Z"/>
      <path class="uuid-edcda425-8a86-4e42-9fd7-392e42e8554c" d="M265.73,624.75l5.19-3.65c1.28-.9,2.93-1.16,4.39-.59.18.07.36.15.52.25.79.45.67,1.62-.18,1.92h0c-.35.12-.75.06-1.03-.19-.39-.33-1.16-.68-2.61-.3-.32.08-.64.2-.95.33l-5.34,2.23Z"/>
      <path class="uuid-6b610377-9083-4f4f-b62e-61e710f1e751" d="M274.64,646.93l4.39-2.76c.35-.22.81-.12,1.03.23,0,.02.02.03.03.05.31.54.13,1.23-.38,1.59-.7.5-2.34,1.33-5.07.89Z"/>
      <path class="uuid-6b610377-9083-4f4f-b62e-61e710f1e751" d="M274.64,646.93s3.21-.39,4.93,1.29c.12.12.21.27.27.43.16.44.37,1.3-.44,1.52-.26.07-.54.03-.79-.08-.92-.42-3.57-1.75-3.97-3.16Z"/>
      <path class="uuid-6b610377-9083-4f4f-b62e-61e710f1e751" d="M276.83,640.43c-.06,0-.13-.02-.18-.07-1.32-1.16-1.25-2.38-.96-3.2.05-.14.21-.22.35-.17.14.05.22.21.17.35-.34.96-.07,1.84.8,2.61.11.1.12.27.02.39-.05.06-.13.09-.21.09Z"/>
      <path class="uuid-6b610377-9083-4f4f-b62e-61e710f1e751" d="M280.9,640.45h-.01c-.15,0-.27-.12-.27-.28,0-.15.12-.27.27-.27h0s1.86,0,2.72-1.02c.4-.47.53-1.09.39-1.86-.11-.61-.39-1.21-.82-1.74l-5.32-6.55c-.1-.12-.08-.29.04-.39.12-.1.29-.08.38.04l5.32,6.55c.49.61.82,1.29.94,1.99.16.94-.01,1.71-.52,2.31-1,1.18-2.96,1.21-3.13,1.21Z"/>
      <path class="uuid-8edf77e4-ca28-492e-8908-c75c319aacb5" d="M272.38,659.47s-14.18-3.14-23.53-16.32c0,0,8.48,17.48,12.89,19.95,0,0,.23-.5.28-.64.97-2.45,2.82-3.59,5.31-3.39l5.05.4Z"/>
      <path class="uuid-50c55dc4-cb47-47a5-9a93-5e4e672bd755" d="M225.3,675.3s18.78-6.25,41.71,7.74l.76-10.07s-13.66-11.33-35.53-7.91l-6.93,10.25Z"/>
      <g>
        <path class="uuid-edcda425-8a86-4e42-9fd7-392e42e8554c" d="M232.07,646.56c-.79-3.43,6.43-8.19,8.13-9.2,2.3-1.37.57-8.26,7.94-9.83,7.25-1.55,13.87-5.33,18.52-11.12.8-1,1.57-2.05,2.27-3.15,1.26-1.98,2.76-3.79,4.52-5.34l.07-.06c.19-.17.5-.12.62.1.21.37.43.76.65,1.18l.02-.02c.48-.58.63-1.37.35-2.07-3.96-10.16-16.47-14.16-24.21-15.7-5.12-1.02-10.44-.71-15.37,1-.25.09-.49.17-.73.26-.24.09-.48.18-.72.28-7.54,3.03-13.13,8.74-16.23,15.56-3.95,8.7-3.46,18.7.96,27.05,1.46,2.76,2.81,5.57,3.93,8.48h0c.61,1.57.33,3.36-.75,4.65-4.29,5.11-14.63,10.02-15.57,21.26s13.5,18.84,6.11,24.22c-4.98,3.62,5.34,15.86,10.53,19.18h0c1.37.88,3.15-.22,2.97-1.84l-1.61-7.56c-1.09-5.11.79-10.39,4.85-13.67h0c.18-.14.36-.29.53-.44,4.08-3.53,6.45-8.64,6.75-14.03l.12-2.24c.02-.33.05-.65.1-.98,1.16-7.65-.15-15.47-3.26-22.55l-1.5-3.42Z"/>
        <path class="uuid-bb03f893-9712-44c5-99ba-1a49dec5e0f2" d="M223.4,713.75c-.05,0-.1-.01-.15-.04-4.11-2.63-11.81-11.18-11.97-16.45-.04-1.39.44-2.46,1.43-3.18,3.8-2.76,1.53-6.31-1.35-10.8-2.48-3.87-5.29-8.25-4.87-13.22.69-8.3,6.48-13.23,11.14-17.19,1.72-1.46,3.34-2.85,4.5-4.22,1.01-1.2,1.28-2.88.71-4.37-1.01-2.62-2.26-5.31-3.92-8.45-4.5-8.51-4.86-18.71-.96-27.29,3.27-7.2,9.09-12.77,16.38-15.7.24-.1.48-.19.73-.28.24-.09.49-.18.74-.27,4.89-1.7,10.26-2.05,15.51-1.01,2.08.41,4.1.92,6.01,1.52,3.4,1.06,6.58,2.73,9.45,4.98,1.26.99,2.39,2.02,3.36,3.08,1.88,2.06,3.07,4,4.25,6.92.06.14-.01.3-.15.36-.14.06-.3-.01-.36-.15-1.15-2.86-2.32-4.76-4.15-6.76-.95-1.03-2.05-2.05-3.29-3.02-2.82-2.2-5.95-3.85-9.28-4.89-1.89-.59-3.89-1.09-5.95-1.5-5.16-1.02-10.42-.68-15.22.99-.24.09-.49.17-.73.26-.24.09-.48.18-.72.28-7.16,2.88-12.88,8.35-16.09,15.42-3.83,8.42-3.47,18.45.95,26.81,1.67,3.17,2.93,5.87,3.95,8.51.65,1.68.34,3.56-.8,4.92-1.18,1.41-2.82,2.8-4.56,4.28-4.58,3.9-10.27,8.75-10.95,16.82-.4,4.79,2.36,9.09,4.79,12.88,2.91,4.54,5.43,8.47,1.21,11.53-.84.61-1.24,1.52-1.21,2.72.15,5.01,7.8,13.5,11.72,16.01.13.08.16.25.08.38-.05.08-.14.13-.23.13Z"/>
        <path class="uuid-bb03f893-9712-44c5-99ba-1a49dec5e0f2" d="M225.03,713.55c-7.73-4.89-7.77-13.14-7.1-17.62.25-1.68.88-3.36,1.87-5.01,2.52-4.18-.87-7.85-2.49-9.61-.13-.14-.24-.26-.34-.37-1.27-1.41-2.2-2.93-2.79-4.51-1.45-3.94-2.02-9.84,3.49-15.54,1.02-1.05,2.24-2.02,3.75-2.97,1.86-1.17,6.05-4.74,4.85-12.66l.54-.08c1.25,8.24-3.15,11.98-5.1,13.21-1.47.93-2.67,1.87-3.65,2.89-5.31,5.5-4.76,11.18-3.37,14.97.56,1.51,1.46,2.97,2.68,4.34.1.11.21.23.34.37,1.58,1.72,5.3,5.73,2.56,10.26-.95,1.58-1.56,3.2-1.8,4.8-.65,4.35-.62,12.35,6.85,17.08l-.29.46Z"/>
        <path class="uuid-bb03f893-9712-44c5-99ba-1a49dec5e0f2" d="M225.87,711.63c-.09-.11-9.03-11.09-1.52-22.16.8-1.18,1.3-2.4,1.47-3.63.3-2.1-.08-4.05-1.13-5.82-1.07-1.8-1.71-3.62-1.91-5.43-.26-2.43-.04-6.13,2.46-9.99.8-1.24,1.78-2.33,2.72-3.38,1.92-2.14,3.73-4.17,3.77-7.06.04-2.7-.66-5.16-2.06-7.31l.46-.3c1.46,2.24,2.18,4.8,2.15,7.61-.04,3.1-1.92,5.2-3.91,7.42-.93,1.04-1.89,2.12-2.67,3.32-2.41,3.72-2.62,7.29-2.37,9.63.18,1.72.8,3.48,1.83,5.21,1.1,1.85,1.52,3.98,1.2,6.18-.19,1.31-.72,2.61-1.56,3.86-7.29,10.73,1.4,21.4,1.49,21.51l-.42.35Z"/>
        <path class="uuid-e2de1b83-995d-465c-83ad-82af3172eaaf" d="M221.75,641.09c5.81.17,10.62,4.19,10.32,5.47-.34,1.47-3.35,2.28-9.43,1.78h0c-1.72-1.92-2.12-4.69-1-7.01l.11-.24Z"/>
      </g>
      <g>
        <path class="uuid-ccc9a5b6-f18d-4729-8579-2fd9f78ac30a" d="M250.13,642.52c-3.01,2.19-5.32,1.36-6.96-.2-2.74-2.62-3.41-6.8-1.71-10.19,1.07-2.14,3.04-4.2,6.68-4.6"/>
        <path class="uuid-6b610377-9083-4f4f-b62e-61e710f1e751" d="M246.61,644.12c-1.53,0-2.74-.76-3.62-1.6-2.79-2.68-3.52-7-1.76-10.51,1.4-2.8,3.72-4.4,6.89-4.75.15-.02.29.09.3.24.02.15-.09.29-.24.3-2.97.33-5.15,1.82-6.46,4.45-1.65,3.3-.97,7.35,1.65,9.87,1.96,1.88,4.18,1.94,6.61.18.12-.09.29-.06.38.06.09.12.06.29-.06.38-1.38,1-2.61,1.38-3.69,1.38Z"/>
      </g>
      <path class="uuid-50c55dc4-cb47-47a5-9a93-5e4e672bd755" d="M296.92,718.07l-.12-.14-32.06-36.88c-.1-.11-.09-.29.03-.39.11-.1.29-.09.39.03l31.93,36.73,57.56-21.18c.14-.05.3.02.35.16.05.14-.02.3-.16.35l-57.92,21.31Z"/>
    </g>
  </g>
</svg>