<svg width="1200" height="675" viewBox="0 0 1200 675" fill="none" xmlns="http://www.w3.org/2000/svg">
  <defs>
    <!-- Background gradient - darker and more saturated -->
    <linearGradient id="bgGradient" x1="0" y1="0" x2="1200" y2="675" gradientUnits="userSpaceOnUse">
      <stop offset="0%" stop-color="#292929"/>
      <stop offset="50%" stop-color="#292929"/>
      <stop offset="100%" stop-color="#003d7a"/>
    </linearGradient>

    <!-- Orange gradient for accents -->
    <linearGradient id="orangeGradient" x1="0%" y1="0%" x2="100%" y2="0%">
      <stop offset="0%" stop-color="#fc783d"/>
      <stop offset="100%" stop-color="#ff9966"/>
    </linearGradient>

    <!-- Radial glow for decorative elements -->
    <radialGradient id="blueGlow" cx="50%" cy="50%">
      <stop offset="0%" stop-color="#48B5FF" stop-opacity="0.4"/>
      <stop offset="50%" stop-color="#48B5FF" stop-opacity="0.15"/>
      <stop offset="100%" stop-color="#48B5FF" stop-opacity="0"/>
    </radialGradient>

    <radialGradient id="orangeGlow" cx="50%" cy="50%">
      <stop offset="0%" stop-color="#fc783d" stop-opacity="0.3"/>
      <stop offset="50%" stop-color="#fc783d" stop-opacity="0.12"/>
      <stop offset="100%" stop-color="#fc783d" stop-opacity="0"/>
    </radialGradient>
  </defs>

  <!-- Main background -->
  <rect width="1200" height="675" fill="url(#bgGradient)"/>

  <!-- Decorative background elements -->
  <!-- Large blue glow top-left -->
  <circle cx="200" cy="150" r="300" fill="url(#blueGlow)"/>

  <!-- Large orange glow bottom-right -->
  <circle cx="1000" cy="550" r="280" fill="url(#orangeGlow)"/>

  <!-- Geometric shapes for visual interest -->
  <circle cx="1000" cy="550"  r="180" fill="none" stroke="#48B5FF" stroke-width="2" opacity="0.15"/>
  <circle cx="1000" cy="550"  r="220" fill="none" stroke="#48B5FF" stroke-width="1" opacity="0.1"/>

  <circle cx="200" cy="150"  r="160" fill="none" stroke="#fc783d" stroke-width="2" opacity="0.2"/>
  <circle cx="200" cy="150" r="200" fill="none" stroke="#fc783d" stroke-width="1" opacity="0.12"/>

  <!-- Accent bars -->
  <rect x="0" y="0" width="500" height="6" fill="url(#orangeGradient)" rx="3"/>
  <rect x="700" y="673" width="500" height="2" fill="url(#orangeGradient)" rx="1"/>

  <!-- Main content -->
  <g transform="translate(100, 200)">

    <!-- Logo and Brand lockup -->
    <g>
      <!-- Konflux Logo (scaled) -->
      <g transform="scale(4.5)">
        <g clip-path="url(#clip0_social)">
          <path d="M21.21 40.52C31.9795 40.52 40.71 31.7896 40.71 21.02C40.71 10.2505 31.9795 1.52 21.21 1.52C10.4404 1.52 1.70996 10.2505 1.70996 21.02C1.70996 31.7896 10.4404 40.52 21.21 40.52Z" fill="white"/>
          <path d="M26.0801 22.04C22.6501 22.04 19.8601 24.82 19.8601 28.26C19.8601 28.49 19.8701 28.71 19.9001 28.93C14.5201 27.19 8.6401 20.31 2.1401 20.25C1.6501 20.25 1.1201 20.29 0.600098 20.38V21.67C0.990098 21.63 1.4001 21.63 1.8001 21.69C10.4601 23.06 12.1201 33.35 19.2501 36.12C24.2001 38.04 29.4201 35.98 31.4801 31.86C31.9801 30.87 32.3001 29.39 32.3001 28.25C32.3001 24.82 29.5201 22.03 26.0801 22.03V22.04Z" fill="#004884"/>
          <path d="M18.9901 6.93999C16.1101 6.93999 13.7701 9.27999 13.7701 12.16C13.7701 13.3 14.1401 14.36 14.7601 15.22C14.5701 15.4 14.3301 15.57 14.0401 15.73C11.9101 16.92 10.8101 16.21 6.34011 16.69C4.62011 16.87 2.51011 17.46 0.960107 18.77C0.720107 19.51 0.510107 20.27 0.360107 21.05C1.02011 20.3 2.04011 19.43 3.66011 18.96C7.75011 17.77 11.5301 19.95 16.1601 19.51C19.0501 19.24 21.2401 18.63 23.0301 16.07C23.9901 14.7 24.2001 13.54 24.2001 12.15C24.2001 9.26999 21.8601 6.92999 18.9801 6.92999L18.9901 6.93999Z" fill="#004884"/>
          <path d="M25.4599 20.55C22.2199 20.55 19.5899 23.18 19.5899 26.42C19.5899 26.63 19.5999 26.85 19.6199 27.05C14.5399 25.4 8.97993 18.91 2.83993 18.85C1.86993 18.85 2.14993 18.46 1.17993 18.79V19.96C2.02993 19.7 1.56993 20.06 2.51993 20.21C10.6999 21.51 12.2799 31.22 19.0099 33.84C23.6799 35.66 28.6199 33.71 30.5599 29.82C31.0299 28.88 31.3399 27.48 31.3399 26.41C31.3399 23.17 28.7099 20.54 25.4699 20.54L25.4599 20.55Z" fill="#48B5FF"/>
          <path d="M18.0199 6.14C15.2999 6.14 13.0899 8.35 13.0899 11.07C13.0899 12.15 13.4399 13.15 14.0299 13.96C13.8499 14.13 13.6299 14.29 13.3499 14.44C11.3299 15.56 10.2999 14.89 6.07993 15.35C4.45993 15.52 2.45993 16.07 0.999932 17.31C0.769932 18.01 0.579932 18.73 0.429932 19.47C1.05993 18.76 2.01993 17.94 3.54993 17.49C7.41993 16.36 10.9899 18.43 15.3599 18.01C18.0899 17.75 20.1599 17.18 21.8499 14.76C22.7599 13.46 22.9499 12.37 22.9499 11.06C22.9499 8.34001 20.7399 6.13 18.0199 6.13V6.14Z" fill="#48B5FF"/>
          <path d="M21.23 42.45C9.52 42.45 0 32.93 0 21.23C0 9.53 9.52 0 21.23 0C32.94 0 42.46 9.52 42.46 21.23C42.46 32.94 32.94 42.46 21.23 42.46V42.45ZM21.23 2.34C10.81 2.34 2.34 10.81 2.34 21.23C2.34 31.65 10.81 40.12 21.23 40.12C31.65 40.12 40.12 31.65 40.12 21.23C40.12 10.81 31.64 2.34 21.23 2.34Z" fill="#48B5FF"/>
        </g>
        <clipPath id="clip0_social">
          <rect width="42.46" height="42.45" fill="white"/>
        </clipPath>
      </g>

      <!-- KONFLUX text aligned with logo -->
      <text x="220" y="150" font-family="'Inter', 'Helvetica Neue', Arial, sans-serif" font-size="100" font-weight="900" fill="white" letter-spacing="-0.04em">KONFLUX</text>
    </g>

  </g>

  <!-- Tagline section -->
  <g transform="translate(320, 470)">
    <!-- Orange accent bar -->
    <rect x="0" y="20" width="200" height="5" fill="url(#orangeGradient)" rx="4"/>

    <!-- Tagline -->
    <text x="0" y="0" font-family="'Inter', 'Helvetica Neue', Arial, sans-serif" font-size="58" font-weight="500" fill="white" letter-spacing="-0.02em">Secure builds made</text>
    <text x="520" y="0" font-family="'Inter', 'Helvetica Neue', Arial, sans-serif" font-size="58" font-weight="500" fill="#fc783d" letter-spacing="-0.02em">easy</text>
  </g>

  <!-- Bottom badge -->
  <!-- <g transform="translate(100, 590)">
    <rect x="0" y="0" width="210" height="52" rx="26" fill="#fc783d" fill-opacity="0.2" stroke="#fc783d" stroke-width="2.5"/>
    <text x="105" y="35" font-family="'Inter', 'Helvetica Neue', Arial, sans-serif" font-size="19" font-weight="700" fill="white" text-anchor="middle">konflux-ci.dev</text>
  </g> -->

</svg>
